<?xml version="1.0" encoding="UTF-8" standalone="no"?>
<svg
   version="1.1"
   id="Layer_1"
   x="0px"
   y="0px"
   width="300"
   viewBox="0 0 300 150"
   enable-background="new 0 0 960 720"
   xml:space="preserve"
   sodipodi:docname="projeto_logos2.svg"
   height="150"
   inkscape:version="1.4 (e7c3feb100, 2024-10-09)"
   inkscape:export-filename="../../LUANOVA2.svg"
   inkscape:export-xdpi="96"
   inkscape:export-ydpi="96"
   xmlns:inkscape="http://www.inkscape.org/namespaces/inkscape"
   xmlns:sodipodi="http://sodipodi.sourceforge.net/DTD/sodipodi-0.dtd"
   xmlns="http://www.w3.org/2000/svg"
   xmlns:svg="http://www.w3.org/2000/svg"><defs
   id="defs37" /><sodipodi:namedview
   id="namedview37"
   pagecolor="#ffffff"
   bordercolor="#000000"
   borderopacity="0.25"
   inkscape:showpageshadow="2"
   inkscape:pageopacity="0.0"
   inkscape:pagecheckerboard="0"
   inkscape:deskcolor="#d1d1d1"
   showgrid="false"
   inkscape:zoom="2"
   inkscape:cx="135"
   inkscape:cy="58.25"
   inkscape:window-width="1920"
   inkscape:window-height="992"
   inkscape:window-x="1920"
   inkscape:window-y="0"
   inkscape:window-maximized="1"
   inkscape:current-layer="g4"
   showguides="true"><sodipodi:guide
     position="196.625,119"
     orientation="1,0"
     id="guide13"
     inkscape:locked="false" /><sodipodi:guide
     position="109.625,118.875"
     orientation="0,-1"
     id="guide15"
     inkscape:locked="false" /><sodipodi:guide
     position="109.60155,107.39682"
     orientation="0,-1"
     id="guide16"
     inkscape:locked="false" /><sodipodi:guide
     position="109.67535,43.551208"
     orientation="1,0"
     id="guide5"
     inkscape:locked="false" /><inkscape:page
     x="0"
     y="0"
     width="300"
     height="150"
     id="page2"
     margin="0"
     bleed="0" /></sodipodi:namedview>





































<style
   id="style1">
		.s0 { fill: #6764ad } 
		.s1 { fill: #2d307a } 
		.s2 { fill: #565353 } 
	</style><path
   id="path52"
   fill-rule="evenodd"
   class="s0"
   d="m 54.426703,86.987289 c 0,3.269261 -1.300056,5.639952 -3.881052,7.169431 -2.064796,1.204464 -5.028161,1.778019 -8.890094,1.778019 -3.842815,0 -6.80618,-0.611792 -8.890095,-1.911848 -2.466284,-1.567716 -3.728104,-4.034 -3.728104,-7.43709 v -8.240066 c 3.441327,-0.573555 10.84018,-1.739782 10.84018,-1.739782 v 10.285743 c 0,0.726503 0.133829,1.319176 0.439725,1.758901 0.325014,0.344133 0.802976,0.535317 1.433886,0.535317 0.63091,0 1.070635,-0.191184 1.395649,-0.535317 0.305896,-0.439725 0.458844,-1.032398 0.458844,-1.758901 v -8.851857 h 10.821061 z m 55.290657,8.31654 H 98.915413 v -1.472123 q -0.87945,0.87945 -2.695706,1.472123 c -1.108872,0.420607 -2.447166,0.63091 -4.014881,0.63091 -2.294218,0 -4.225185,-0.573555 -5.697308,-1.778019 -1.472123,-1.223583 -2.198626,-2.638351 -2.198626,-4.359014 V 72.342531 c 3.53692,-0.229422 7.169432,-0.439725 10.84018,-0.63091 v 15.37126 q 0,2.007441 1.89273,2.007441 c 0.611792,0 1.070635,-0.133829 1.376531,-0.458844 0.305896,-0.382369 0.49708,-0.87945 0.49708,-1.51036 v -15.6198 c 3.536917,-0.191185 7.169427,-0.325015 10.801947,-0.458844 z m 15.21831,0.344133 c -0.99416,0.210303 -2.23686,0.286777 -3.80458,0.286777 -3.23102,0 -5.50612,-0.592673 -6.90177,-1.701545 q -2.00744,-1.739782 -2.00744,-5.238464 v -8.870976 c 0,-3.53692 2.40893,-6.500285 7.2459,-8.813621 0.49708,-0.229422 0.99416,-0.458844 1.43389,-0.63091 l 4.034,-0.09559 c 4.18695,-0.09559 8.43125,-0.191184 12.71379,-0.210303 v 24.930502 h -9.57836 v -1.701545 q -0.80298,1.472123 -2.40893,1.89273 -0.34413,0.07647 -0.7265,0.152948 z m 0.0956,-6.55764 c 0.49708,0 0.93681,-0.133829 1.20447,-0.458844 0.40148,-0.401488 0.59267,-0.898568 0.59267,-1.567715 V 75.688265 c -0.76474,0.191185 -1.39565,0.401489 -1.89273,0.63091 -0.47796,0.210304 -0.8221,0.439726 -1.07064,0.669147 -0.53531,0.535318 -0.80297,1.223583 -0.80297,2.02656 v 8.048881 c 0,0.669147 0.17206,1.166227 0.49708,1.567715 0.32501,0.305896 0.78386,0.439726 1.37653,0.458844 z M 82.397044,86.96817 c 0,2.829536 -0.955924,4.970806 -2.733943,6.462048 l 2.906009,5.41053 h -8.966568 l -1.567716,-2.944246 c -0.707384,0.03824 -1.414767,0.03824 -2.236862,0.03824 -3.881052,0 -6.882654,-0.63091 -9.043043,-1.930967 -2.542758,-1.567715 -3.804578,-4.034 -3.804578,-7.43709 V 74.674986 c 3.53692,-0.420607 7.169431,-0.726502 10.84018,-1.089754 v 13.306464 c 0,0.707384 0.133829,1.300057 0.439725,1.739782 0.325014,0.363252 0.822095,0.535318 1.453005,0.535318 0.611791,0 1.070635,-0.172066 1.376531,-0.535318 0.325014,-0.439725 0.49708,-1.032398 0.49708,-1.739782 V 73.279337 c 3.53692,-0.267659 7.112076,-0.535318 10.84018,-0.802977 z m 79.188756,8.316541 h -6.84442 c -4.70314,0 -7.57092,-0.611792 -8.66067,-1.873612 -1.07063,-1.300057 -1.56771,-4.206066 -1.56771,-8.775383 V 70.315972 l 5.65907,-0.05736 5.20022,0.05736 v 14.24327 c 0,1.280938 0.43973,2.179507 1.30006,2.714824 0.61179,0.363251 1.60595,0.535318 2.90601,0.535318 h 2.00744 z M 202.21258,71.520436 V 95.284711 H 191.3724 V 71.061593 c 3.67075,0.133829 7.26502,0.267658 10.84018,0.458843 z M 189.26936,86.96817 c 0,3.307498 -1.26182,5.716427 -3.76634,7.150313 -2.00744,1.223583 -4.91345,1.797137 -8.77538,1.797137 -3.90017,0 -6.94001,-0.630909 -9.04304,-1.930966 -2.56188,-1.548597 -3.86194,-4.034 -3.86194,-7.43709 V 70.354209 c 3.67075,0.03824 7.30326,0.133829 10.84018,0.172066 v 16.346303 c 0,0.707384 0.19119,1.300057 0.49708,1.739782 0.32502,0.363251 0.76474,0.535317 1.39565,0.535317 0.61179,0 1.10887,-0.172066 1.43389,-0.535317 0.30589,-0.439725 0.43972,-1.032398 0.43972,-1.739782 V 70.621867 c 3.67075,0.09559 7.26503,0.229422 10.84018,0.344133 z m 40.62678,8.335659 H 219.05596 V 72.552834 c 3.67075,0.229422 7.30326,0.535318 10.84018,0.802977 z m 14.8933,0.363251 c -0.97504,0.191185 -2.25598,0.267659 -3.8237,0.267659 -3.23102,0 -5.50612,-0.573555 -6.86353,-1.701545 q -2.00744,-1.739782 -2.00744,-5.238464 v -8.851858 c 0,-2.38981 1.03239,-4.435488 3.17366,-6.270862 q 4.8561,0.439725 9.52101,0.936805 c 4.37813,0.477962 8.62243,0.975043 12.69467,1.529479 v 18.965535 h -9.57836 v -1.682426 q -0.80297,1.472123 -2.40893,1.873611 c -0.22942,0.05736 -0.45884,0.114711 -0.70738,0.172066 z m 0,-6.576758 h 0.0765 c 0.53532,0 0.93681,-0.133829 1.2427,-0.458844 0.36326,-0.382369 0.55444,-0.87945 0.55444,-1.548597 V 75.707384 q -1.10887,0.267659 -1.87361,0.611791 -0.70739,0.325015 -1.08975,0.688266 c -0.53532,0.535317 -0.76474,1.204464 -0.76474,2.007441 v 8.067999 c 0,0.669147 0.13383,1.166228 0.43972,1.548597 0.34413,0.325015 0.8221,0.439726 1.41477,0.458844 z m 26.19232,6.213507 H 260.14158 V 76.682427 c 3.76634,0.49708 7.37973,1.032398 10.84018,1.605952 z"
   style="stroke-width:0.191185" /><path
   id="path56"
   fill-rule="evenodd"
   class="s1"
   d="M 98.915413,67.486436 V 51.121015 H 109.71736 V 66.932 c 0.95592,-0.05736 1.93096,-0.09559 2.90601,-0.133829 v -7.035602 c 0,-3.26926 1.30005,-5.639952 3.99576,-7.169431 1.9692,-1.089754 4.7605,-1.701545 8.31654,-1.778019 q 0.32501,0 0.63091,0 c 3.84281,0 6.71059,0.669147 8.64155,1.969204 2.29422,1.472123 3.46045,3.976644 3.46045,7.379734 v 5.964967 q 3.40309,-0.05736 6.84442,-0.07647 V 57.65954 h -4.83698 v -6.538521 h 4.83698 v -8.870976 h 10.84018 v 8.870976 h 5.83113 v 6.538521 h -5.83113 v 8.393014 q 4.26342,0.01912 8.46948,0.09559 v -5.984085 c 0,-3.307497 1.30006,-5.773782 3.84282,-7.30326 2.17951,-1.357413 5.10463,-2.026559 8.87097,-2.045678 h 0.19119 c 3.53692,0 6.50028,0.802976 8.87098,2.370692 2.44716,1.472123 3.67074,3.670749 3.67074,6.576758 v 7.112076 q 1.05152,0.05736 2.10304,0.09559 V 51.121015 h 10.84018 v 1.472123 c 0.47796,-0.363251 1.08975,-0.707384 1.85449,-0.994161 q 0.36325,-0.13383 0.78386,-0.24854 c 1.20446,-0.363252 2.54276,-0.535318 4.07223,-0.535318 2.29422,0 4.1296,0.611792 5.60172,1.873611 1.52948,1.204465 2.23686,2.695707 2.23686,4.435488 v 11.432853 c 0.76474,0.05736 1.52948,0.114711 2.29422,0.191185 V 51.121015 h 10.84018 v 18.602284 c 3.55604,0.363251 7.05472,0.745621 10.43869,1.147109 4.18695,-2.083915 6.3091,-3.594275 6.3091,-4.473725 v -6.538521 c 0,-0.726503 -0.13383,-1.26182 -0.45884,-1.605953 -0.3059,-0.363251 -0.80298,-0.592673 -1.41477,-0.592673 -0.49708,0 -0.93681,0.229422 -1.30006,0.592673 q -0.53531,0.516199 -0.53531,1.605953 v 8.737146 H 232.4389 v -8.832739 c 0,-3.26926 1.35741,-5.639952 3.99576,-7.169431 2.14127,-1.166227 5.10464,-1.778019 8.94745,-1.778019 3.86194,0 6.72971,0.669147 8.64156,1.969204 2.29421,1.472123 3.46044,3.976644 3.46044,7.379734 v 13.038806 c 0.17207,0.01912 0.36325,0.05736 0.53532,0.09559 0.70738,0.09559 1.41477,0.229422 2.10303,0.325014 V 40.777915 h 10.84018 v 34.833877 c 11.20343,2.275099 20.28471,4.836976 26.70852,7.666511 -14.47269,-4.072237 -34.2412,-7.475327 -57.62311,-9.979848 -5.02816,-0.535317 -10.22838,-1.032398 -15.58156,-1.472123 -6.57676,-0.554436 -13.40206,-1.01328 -20.39942,-1.433886 -8.89009,-0.497081 -18.08609,-0.879451 -27.53062,-1.127991 -8.64155,-0.24854 -17.51253,-0.363251 -26.51733,-0.363251 -8.50773,0 -16.88162,0.114711 -25.08345,0.305896 -19.69204,0.516199 -38.313441,1.586834 -55.271536,3.135431 q -4.951687,0.439725 -9.712189,0.955924 C 53.604609,73.967602 47.505813,74.713223 41.732031,75.535318 26.226941,77.695706 12.88224,80.314938 2.3288373,83.278303 8.7526476,80.448768 17.833927,77.886891 29.037358,75.611792 V 60.164057 c 0,-3.307497 1.204464,-5.773782 3.670749,-7.30326 2.103033,-1.376531 5.104635,-2.045678 8.966568,-2.045678 h 0.05736 c 3.785459,0 6.710587,0.63091 8.81362,1.778019 2.580996,1.491242 3.881052,3.861934 3.881052,7.169431 v 11.738749 q 1.26182,-0.152948 2.52364,-0.305896 V 60.164057 c 0,-3.307497 1.242702,-5.773782 3.804578,-7.30326 2.160389,-1.357413 5.123754,-2.026559 8.909213,-2.045678 h 0.13383 c 3.536919,0 6.500284,0.802976 8.909213,2.370692 2.428047,1.472123 3.670749,3.670749 3.670749,6.576758 v 8.851858 c 0.650028,-0.03824 1.300056,-0.09559 1.930966,-0.152948 V 51.121015 h 10.84018 v 16.594843 q 1.873612,-0.133829 3.766341,-0.229422 z M 204.06707,57.831602 c -0.61179,0 -1.08975,0.152948 -1.41477,0.458844 -0.30589,0.305896 -0.43972,0.802976 -0.43972,1.472123 v 7.781223 l 1.85449,0.114711 1.85449,0.11471 v -7.915051 c 0,-1.338294 -0.57355,-2.02656 -1.83537,-2.02656 z m -27.5115,8.584199 1.87361,0.05736 v -6.614995 c 0,-0.726503 -0.13383,-1.26182 -0.43972,-1.605953 -0.3059,-0.363251 -0.8221,-0.592673 -1.43389,-0.592673 -0.49708,0 -0.9368,0.229422 -1.30005,0.592673 -0.36326,0.344133 -0.59268,0.87945 -0.59268,1.605953 v 6.500284 z m -51.60078,-0.03824 1.89273,-0.05736 v -6.462047 c 0,-0.726503 -0.19119,-1.26182 -0.49708,-1.605953 -0.32502,-0.363251 -0.76474,-0.592673 -1.39565,-0.592673 -0.53532,0 -0.97505,0.229422 -1.3383,0.592673 q -0.53531,0.535317 -0.53531,1.605953 v 6.576758 z m -55.271537,3.40309 1.873611,-0.191185 v -9.731307 c 0,-0.726503 -0.172066,-1.26182 -0.477962,-1.605953 -0.325014,-0.363251 -0.764739,-0.592673 -1.395649,-0.592673 -0.535318,0 -0.975043,0.229422 -1.338294,0.592673 q -0.535317,0.535317 -0.535317,1.605953 v 10.11368 z M 43.605642,69.971839 V 59.858162 c 0,-0.726503 -0.133829,-1.26182 -0.439725,-1.605953 -0.325014,-0.363251 -0.764739,-0.592673 -1.395649,-0.592673 h -0.01912 c -0.535317,0.01912 -0.975042,0.229422 -1.319175,0.592673 -0.363251,0.344133 -0.535318,0.87945 -0.535318,1.605953 V 69.971839 Z M 219.05596,48.712086 v -7.934171 h 10.84018 v 7.934171 z"
   style="stroke-width:0.191185" /><path
   id="path60-8"
   fill-rule="evenodd"
   class="s2"
   d="m 193.6475,114.49879 -1.22359,4.034 h -2.65747 l 4.53109,-14.1668 h 3.30749 l 4.58844,14.1668 h -2.77218 l -1.28094,-4.034 z m 4.07223,-1.95009 -1.12799,-3.47956 c -0.26766,-0.86033 -0.49708,-1.83538 -0.70738,-2.65747 h -0.0382 c -0.2103,0.82209 -0.4206,1.81625 -0.66914,2.65747 l -1.10888,3.47956 z m -16.42277,-8.18271 h 2.58099 v 14.1668 h -2.58099 z m -6.65324,13.49765 c -0.89856,0.32501 -2.65746,0.80298 -4.55019,0.80298 -2.38981,0 -4.20607,-0.6118 -5.54436,-1.89273 -1.26182,-1.20447 -2.00745,-3.07808 -1.98833,-5.21935 0,-4.47373 3.19279,-7.36062 7.87682,-7.36062 1.7589,0 3.11631,0.36325 3.76634,0.66915 l -0.55444,2.08392 c -0.78385,-0.32502 -1.73978,-0.6118 -3.23102,-0.6118 -3.02072,0 -5.14287,1.79714 -5.14287,5.08552 0,3.23102 1.9692,5.14287 4.91345,5.14287 0.9368,0 1.62507,-0.13383 1.9692,-0.30589 v -3.5178 h -2.52364 v -2.04568 h 5.00904 z m -27.30119,-13.32558 c 0.97504,-0.15295 2.40893,-0.28678 3.91929,-0.28678 2.02656,0 3.42221,0.34413 4.35901,1.14711 0.78386,0.63091 1.22359,1.62507 1.22359,2.82953 0,1.83538 -1.2427,3.05896 -2.56188,3.55604 v 0.0574 c 1.01328,0.38237 1.62507,1.35741 1.9692,2.73394 0.43973,1.7589 0.8221,3.40309 1.12799,3.93841 h -2.67658 c -0.21031,-0.42061 -0.53532,-1.56772 -0.93681,-3.32662 -0.40149,-1.85449 -1.08975,-2.44716 -2.54276,-2.4854 h -1.31917 v 5.81202 h -2.56188 z m 2.56188,6.27086 h 1.54859 c 1.73979,0 2.82954,-0.91769 2.82954,-2.33246 0,-1.54859 -1.08975,-2.2751 -2.77218,-2.2751 -0.82209,0 -1.35741,0.0574 -1.60595,0.13383 z m -9.44453,1.41477 h -5.35318 v 4.16783 h 5.98409 v 2.12215 h -8.56508 v -14.1668 h 8.24006 v 2.12215 h -5.65907 v 3.67075 h 5.35318 z m -26.13497,6.27086 v -14.14768 h 2.94425 l 3.65163,6.06056 c 0.95592,1.58683 1.77802,3.21191 2.42804,4.7605 h 0.0382 c -0.17206,-1.89273 -0.22942,-3.7281 -0.22942,-5.88849 v -4.93257 h 2.38981 v 14.14768 h -2.65747 l -3.70898,-6.23263 c -0.89857,-1.52948 -1.8545,-3.28838 -2.54276,-4.87521 l -0.0574,0.0191 c 0.11471,1.81625 0.11471,3.68987 0.11471,6.02232 v 5.0664 z m -6.88265,-6.27086 h -5.35318 v 4.14871 h 5.98409 v 2.12215 h -8.565084 v -14.14768 h 8.240064 v 2.10303 h -5.65907 v 3.67075 h 5.35318 z"
   style="stroke-width:0.191185" /><path
   id="path64"
   class="s2"
   d="m 38.0804,41.695603 c -0.688265,0.24854 -2.026559,0.611791 -3.422208,0.611791 -1.816256,0 -3.192787,-0.458843 -4.206066,-1.433886 -0.955924,-0.898569 -1.491242,-2.313337 -1.491242,-3.919289 0.01912,-3.383972 2.408929,-5.54436 5.945848,-5.54436 1.319176,0 2.332455,0.267659 2.829536,0.49708 l -0.420607,1.567716 c -0.592673,-0.267659 -1.300057,-0.458844 -2.428047,-0.458844 -2.2751,0 -3.881052,1.357413 -3.881052,3.842815 0,2.428048 1.491241,3.861934 3.708985,3.861934 0.707384,0 1.223583,-0.09559 1.472124,-0.210303 v -2.676588 h -1.89273 V 36.30419 H 38.0804 Z"
   style="stroke-width:0.191185" /><path
   id="path68"
   fill-rule="evenodd"
   class="s2"
   d="m 44.332144,31.677518 c 0.745621,-0.13383 1.816256,-0.229422 2.944247,-0.229422 1.529478,0 2.561877,0.24854 3.288379,0.841213 0.592673,0.497081 0.917687,1.242701 0.917687,2.160389 0,1.37653 -0.936806,2.313336 -1.950085,2.657469 v 0.05736 c 0.783858,0.267659 1.242701,1.01328 1.491241,2.045678 0.344133,1.338294 0.63091,2.561877 0.841214,2.982483 h -1.988322 c -0.172067,-0.325014 -0.439726,-1.185346 -0.726503,-2.52364 -0.305896,-1.395649 -0.802976,-1.835374 -1.911848,-1.873611 h -0.975043 v 4.397251 h -1.930967 z m 1.930967,4.703146 h 1.147109 c 1.319176,0 2.122152,-0.707383 2.122152,-1.7589 0,-1.166227 -0.802976,-1.720663 -2.064796,-1.720663 -0.63091,0 -1.01328,0.05736 -1.204465,0.09559 z"
   style="stroke-width:0.191185" /><path
   id="path72"
   class="s2"
   d="m 59.531338,31.52457 v 6.213507 c 0,2.103033 0.860332,3.058957 2.179507,3.058957 1.414768,0 2.255981,-0.955924 2.255981,-3.058957 V 31.52457 h 1.950086 v 6.098796 c 0,3.288379 -1.701545,4.741384 -4.263422,4.741384 -2.466284,0 -4.072237,-1.376531 -4.072237,-4.741384 V 31.52457 Z"
   style="stroke-width:0.191185" /><path
   id="path76"
   fill-rule="evenodd"
   class="s2"
   d="m 72.398077,31.658399 c 0.726503,-0.114711 1.682427,-0.210303 2.982484,-0.210303 1.433886,0 2.466284,0.286777 3.135431,0.860332 0.63091,0.516199 1.051517,1.357412 1.051517,2.370691 0,1.01328 -0.325015,1.835375 -0.898569,2.389811 -0.802976,0.783858 -2.007441,1.166227 -3.383972,1.166227 -0.363251,0 -0.669146,-0.01912 -0.955924,-0.07647 v 4.034 h -1.930967 z m 1.930967,4.951687 c 0.267659,0.07647 0.554436,0.09559 0.955924,0.09559 1.453005,0 2.351574,-0.726503 2.351574,-1.969204 0,-1.185346 -0.822095,-1.797138 -2.179507,-1.797138 -0.535318,0 -0.917687,0.03824 -1.127991,0.09559 z"
   style="stroke-width:0.191185" /><path
   id="path80"
   fill-rule="evenodd"
   class="s2"
   d="m 89.967963,42.36475 c -2.77218,0 -5.009042,-2.466285 -5.009042,-5.525242 0,-3.039839 2.236862,-5.506123 5.009042,-5.506123 2.77218,0 5.028161,2.466284 5.028161,5.506123 0,3.058957 -2.255981,5.525242 -5.028161,5.525242 z m 2.963365,-5.525242 c 0,-2.179507 -1.319175,-3.938407 -2.963365,-3.938407 -1.625071,0 -2.944246,1.7589 -2.944246,3.938407 0,2.198626 1.319175,3.957526 2.944246,3.957526 1.64419,0 2.963365,-1.7589 2.963365,-3.957526 z"
   style="stroke-width:0.191185" /></svg>
