<?xml version="1.0" encoding="UTF-8" standalone="no"?>
<svg
   version="1.1"
   id="Layer_1"
   x="0px"
   y="0px"
   width="300"
   viewBox="0 0 300 150"
   enable-background="new 0 0 960 720"
   xml:space="preserve"
   height="150"
   xmlns="http://www.w3.org/2000/svg"
   xmlns:svg="http://www.w3.org/2000/svg"><defs
   id="defs37" />





































<g
   id="g4"
   transform="matrix(0.25003894,0,0,0.25003894,-13.771049,194.48846)"><path
     fill="#010165"
     opacity="1"
     stroke="none"
     d="m 531.74777,-460.78972 c 11.33476,0.10764 22.66944,0.30517 34.00424,0.30822 76.09813,0.0204 152.19625,-4e-4 228.87751,0.58094 -2.54735,3.08107 -2.3334,2.50921 -8.86716,7.93846 -15.68742,10.21304 -26.28447,16.80868 -42.74399,26.81153 -48.67955,29.58375 1.72293,20.53826 -279.83758,20.0122 0.0686,-26.5657 0.36123,-52.527 0.43518,-78.48891 0.17209,-60.43287 0.2388,-120.86601 0.34822,-181.29904 0,0 0.0894,-0.11829 0.48047,-0.14428 31.35923,-29.29765 54.97411,-51.35642 63.14853,-58.85876 0.26584,0.19361 0.53165,0.38721 1.21473,1.11838 0.46187,1.89488 0.5064,3.25218 0.41774,5.23036 -0.11118,83.95186 1.4248,167.3202 -0.16847,250.63597 -0.13189,6.897 -0.75675,6.44221 2.69046,6.15494 z"
     id="path2-4"
     style="stroke-width:1.31113" /><text
     xml:space="preserve"
     style="font-style:italic;font-variant:normal;font-weight:800;font-stretch:normal;font-size:182.378px;font-family:'Open Sans';-inkscape-font-specification:'Open Sans, Ultra-Bold Italic';font-variant-ligatures:normal;font-variant-caps:normal;font-variant-numeric:normal;font-variant-east-asian:normal;text-align:start;writing-mode:lr-tb;direction:ltr;text-anchor:start;opacity:1;fill:#010165;fill-opacity:1;stroke-width:2.52389"
     x="52.360275"
     y="-217.32329"
     id="text6"
     transform="scale(1.2114143,0.82548142)"><tspan
       id="tspan6"
       style="font-style:italic;font-variant:normal;font-weight:800;font-stretch:normal;font-size:182.378px;font-family:'Open Sans';-inkscape-font-specification:'Open Sans, Ultra-Bold Italic';font-variant-ligatures:normal;font-variant-caps:normal;font-variant-numeric:normal;font-variant-east-asian:normal;fill:#010165;fill-opacity:1;stroke-width:2.52389"
       x="52.360275"
       y="-217.32329">EDECONSIL</tspan></text><rect
     style="fill:#ffcc00;fill-opacity:1;stroke-width:5.83155"
     id="rect13"
     width="287.95514"
     height="65.765755"
     x="560.88074"
     y="-744.45032" /><rect
     style="fill:#ffcc00;fill-opacity:1;stroke-width:5.83155"
     id="rect14"
     width="287.95514"
     height="65.765755"
     x="560.88074"
     y="-648.09033" /><rect
     style="fill:#ffcc00;fill-opacity:1;stroke-width:5.83155"
     id="rect15"
     width="287.95514"
     height="65.765755"
     x="560.88074"
     y="-552.60522" /></g></svg>
