<?xml version="1.0" encoding="UTF-8" standalone="no"?>
<svg
   version="1.1"
   id="Layer_1"
   x="0px"
   y="0px"
   width="300"
   viewBox="0 0 300 150"
   enable-background="new 0 0 960 720"
   xml:space="preserve"
   height="150"
   xmlns="http://www.w3.org/2000/svg"
   xmlns:svg="http://www.w3.org/2000/svg"><defs
   id="defs37" />
































<path
   fill="#76777a"
   opacity="1"
   stroke="none"
   d="M 880.72278,480.08142 C 0,0 0,0 880.72278,480.08142 Z"
   id="path33" />



<g
   id="g37"><g
     id="g38"
     transform="matrix(0.37053201,0,0,0.37053201,-27.720652,-64.441926)"><g
       id="g39"
       transform="translate(-1189.582,-95.771432)"><path
         fill="#019299"
         opacity="1"
         stroke="none"
         d="m 156.94415,361.25817 c -0.12751,-0.38705 -0.25501,-0.77408 -0.5903,-1.77524 -10.44729,-15.04785 -20.68677,-29.48163 -30.92626,-43.91537 -0.19037,-0.27518 -0.38074,-0.55033 -0.87147,-1.32828 -4.34351,-6.36975 -8.32764,-12.27844 -12.44101,-18.09574 -11.57697,-16.37271 -23.207107,-32.70776 -34.816276,-49.05767 -0.09045,-0.5096 -0.180916,-1.01918 0.222153,-1.86966 19.448936,-11.93276 38.957333,-22.76419 61.474443,-24.91773 17.94978,-1.71672 18.90603,-1.65196 34.57454,0.0322 24.67182,3.60471 46.23177,14.62755 65.7655,29.3312 20.80474,15.66032 40.69854,32.53076 61.10921,49.18985 14.36002,12.09042 29.08267,23.17236 45.84799,31.181 15.42664,7.36904 31.49518,11.22641 48.75772,8.75393 18.85559,-2.70059 34.77021,-11.57678 49.60221,-22.91705 1.7362,-1.32748 3.75714,-2.28259 5.7623,-3.10175 0.0471,0.74021 -0.0222,1.17188 -0.0914,1.60352 -0.1687,0.27191 -0.38047,0.50464 -1.11051,1.02182 -26.15774,33.00977 -51.86715,65.67474 -77.51169,98.39062 -13.22222,16.86823 -26.32904,33.82688 -39.48797,50.74469 -0.27084,0.19098 -0.49082,0.42896 -1.10974,1.05039 -6.24671,7.89221 -12.04358,15.448 -17.84046,23.00378 -0.23355,0.2713 -0.46713,0.54264 -1.14819,1.17603 -10.9054,13.7944 -21.36328,27.22668 -32.08392,40.80505 -0.50208,0.69519 -0.74137,1.24433 -0.98066,1.7934 -0.32223,0.0637 -0.64447,0.12738 -1.30285,-0.18671 -0.6691,-0.84204 -1.00208,-1.30646 -1.43711,-2.09265 -13.3554,-19.20328 -26.5897,-38.09811 -39.88597,-56.94922 -1.68605,-2.39047 -3.69658,-4.55212 -5.55677,-6.81979 -0.17008,-0.35706 -0.34017,-0.71414 -0.63828,-1.69785 -20.34479,-29.37311 -40.5294,-58.1423 -60.80585,-86.84662 -3.97755,-5.6308 -8.31042,-11.01059 -12.47941,-16.50616 z"
         id="path2" /><path
         fill="#eab733"
         opacity="1"
         stroke="none"
         d="m 450.29865,312.45928 c -1.88891,1.12775 -3.90985,2.08286 -5.64605,3.41034 -14.832,11.34027 -30.74662,20.21646 -49.60221,22.91705 -17.26254,2.47248 -33.33108,-1.38489 -48.75772,-8.75393 -16.76532,-8.00864 -31.48797,-19.09058 -45.52789,-31.34034 15.19153,-7.24838 30.5102,-12.3794 45.15857,-20.82251 35.65515,-20.55113 84.76249,-61.19157 123.49747,-38.04249 7.6325,5.14021 14.72934,9.8867 21.8262,14.63319 0.0657,0.43929 0.13144,0.87859 -0.19824,1.79193 -7.78357,11.18741 -15.17176,21.90076 -22.55997,32.61411 -0.10611,0.29571 -0.21225,0.59146 -0.82687,1.43872 -5.09513,6.60712 -9.6818,12.66278 -14.58994,18.87018 -0.47913,0.55981 -0.63669,0.96789 -0.75983,1.37243 0.0345,-0.004 0.0113,-0.0688 -0.32937,-0.10467 -0.46247,0.3414 -0.58426,0.71863 -0.67267,1.10199 0.0334,0.006 0.0117,-0.0581 -0.34714,-0.1391 -0.46545,0.32016 -0.57208,0.72131 -0.64749,1.11096 0.0312,-0.0115 -0.0168,-0.0579 -0.0168,-0.0579 z"
         id="path3" /><path
         fill="#77787b"
         opacity="1"
         stroke="none"
         d="m 601.66264,494.44631 c -1.48328,-0.51791 -2.49353,-0.95892 -3.85217,-1.55194 15.01233,-35.05515 29.95605,-69.95023 44.91845,-105.25363 5.23242,-0.40222 10.44623,-0.39615 16.10925,-0.2645 14.08527,34.02057 27.72468,67.91419 41.34498,101.81549 0.55255,1.37525 0.92468,2.82303 1.39856,4.61069 -5.13855,0.48972 -10.29499,0.60583 -16.18164,0.40802 -2.23408,-1.46817 -4.51044,-2.3176 -5.10718,-3.82977 -2.49958,-6.33417 -4.34644,-12.92438 -6.7909,-19.28299 -0.54882,-1.42761 -2.52423,-3.25382 -3.87371,-3.27957 -12.99115,-0.24759 -25.98975,-0.21283 -38.9834,-0.0441 -1.21497,0.0158 -3.1305,1.26007 -3.50049,2.34872 -2.72363,8.01334 -5.13678,16.1322 -7.64771,24.21781 -5.78704,0.0609 -11.57409,0.12179 -17.83404,0.10577 M 657.43778,430.915 c -1.76617,-5.50992 -3.5324,-11.01981 -5.62426,-17.54578 -5.19013,12.80228 -10.01203,24.69632 -15.04859,37.11984 9.28662,0 17.79981,0 26.84656,0 -2.06403,-6.53979 -4.00012,-12.67434 -6.17371,-19.57406 z"
         id="path8" /><path
         fill="#76777a"
         opacity="1"
         stroke="none"
         d="m 881.26738,474.49444 c -0.19361,5.44752 -0.0954,12.64599 -0.12529,18.49136 -18.47847,0.1029 -34.61123,-0.12347 -52.26028,4.6e-4 -2.93178,0.0206 -5.23488,0.0778 -8.27294,-0.0684 -0.23908,-9.79016 -0.25037,-18.98352 -0.2616,-28.17685 v -75.64047 h 61.70422 c 0,2.63702 0,5.23635 -0.40265,8.33905 -2.60406,1.94937 -5.12304,3.07971 -6.94061,4.90753 -3.71594,3.73684 -7.98016,4.74664 -13.10052,4.53103 -7.93805,-0.33419 -15.90064,-0.0882 -24.01508,-0.0882 v 22.8735 h 39.47028 v 17.63669 h -39.50739 v 27.19425 z"
         id="path9" /><path
         fill="#76777a"
         opacity="1"
         stroke="none"
         d="m 591.02665,386.22155 c -15.99326,39.20861 -26.37715,65.27345 -41.39135,105.9592 -0.70834,1.91947 -0.53444,1.89329 -1.26742,1.90442 -3.35939,0.051 -7.71947,0.0283 -11.55741,0.0593 -4.04297,-8.71667 -7.68634,-16.99515 -11.4242,-25.23071 -0.26007,-0.573 -1.42463,-2.66802 -2.20276,-4.17145 -5.54443,-12.73874 -11.03061,-24.78033 -16.63959,-36.76437 -6.00952,-12.83969 -12.13464,-25.62525 -18.20931,-38.43445 -0.67957,-2.92859 0.64526,-3.84906 3.44116,-3.75467 4.97311,0.16776 9.95312,0.133 15.36416,0.77258 1.29135,1.76807 2.3863,2.83975 2.97095,4.14075 10.49762,23.36078 20.92767,46.75195 31.40473,70.12201 0.41754,0.93137 1.15667,1.71857 2.10205,3.08905 9.73394,-26.22873 19.21295,-51.77039 28.69195,-77.31201 6.13251,-0.21039 12.26502,-0.42075 18.71704,-0.3797 z"
         id="path11" /><path
         fill="#76777a"
         opacity="1"
         stroke="none"
         d="m 731.49284,492.42168 c 0,-33.7019 0,-67.40378 0,-101.7077 6.43561,0 12.37591,0 18.81103,-0.0614 0.57795,21.52093 0.65985,43.10324 0.74555,64.68555 0.0112,2.82437 0.0414,5.64871 0.13965,9.39102 0.0767,4.01382 0.0767,7.10962 0.0767,10.84582 15.53485,0 30.6701,0 46.34686,0 0,6.25672 0,11.86832 0,17.47992 -5.99976,0.15006 -11.99945,0.30008 -18.74896,0.30796 -2.53571,-0.3364 -4.32038,-0.68513 -6.10785,-0.70029 -13.75403,-0.11676 -27.50861,-0.16879 -41.263,-0.24091 z"
         id="path12" /><path
         fill="#019299"
         opacity="1"
         stroke="none"
         d="m 453.072,309.17553 c 0.14948,0.25604 -0.0225,0.66385 -0.49438,1.22381 -0.14231,-0.25592 0.0152,-0.664 0.49438,-1.22381 z"
         id="path34" /><path
         fill="#019299"
         opacity="1"
         stroke="none"
         d="m 450.96299,311.40618 c 0.21356,0.43756 0.0684,0.79413 -0.37778,1.1366 -0.1943,-0.41529 -0.0877,-0.81644 0.37778,-1.1366 z"
         id="path35" /><path
         fill="#019299"
         opacity="1"
         stroke="none"
         d="m 451.98277,310.44329 c 0.17315,0.34976 0.006,0.66369 -0.43399,1.03674 -0.15024,-0.31811 -0.0285,-0.69534 0.43399,-1.03674 z"
         id="path36" /></g><path
       fill="#00397f"
       opacity="1"
       stroke="none"
       d="m -206.60456,-179.73927 c 2.16738,2.95871 7.10284,4.04634 11.05865,0.69936 13.37696,-33.34886 24.55874,-61.60709 36.51909,-92.95933 0,0 27.42773,-0.21173 33.93824,-0.16847 0.11221,42.9744 -0.0118,88.03592 -0.46598,132.26646 -1.06194,1.62563 -1.4691,2.67234 -1.67661,3.25459 -6.12424,0.11194 -12.24852,0.22388 -19.5887,-0.23017 -1.58549,-1.06146 -2.06137,-1.41293 -2.64358,-1.62041 -0.11221,-33.93232 -0.22442,-67.86462 0.4656,-102.94181 0.28709,-2.553 -0.96529,-3.29689 -2.4493,-4.15694 -1.02949,-0.59663 -2.87088,-0.8051 -3.80176,1.37878 -10.5935,30.48831 -24.0712,66.04966 -40.08907,107.47281 -0.43223,1.11776 -1.60177,0.7003 -18.73403,0.51887 -27.65909,-71.22869 -29.45231,-78.47498 -43.98907,-117.00246 0.0295,1.39384 0.0589,2.78767 0.0885,4.1815 -0.0932,36.1533 -0.18627,72.30662 -0.84601,109.71608 -1.0619,1.62563 -1.41337,2.1015 -1.62088,2.68375 -6.12425,0.11194 -12.24851,0.2239 -19.5887,-0.23017 -1.5855,-1.06146 -2.06137,-1.41293 -2.64358,-1.62041 -0.11221,-42.9744 -0.22442,-85.94879 0.22976,-130.1793 1.06194,-1.62558 1.41343,-2.10145 1.62087,-2.68373 11.46428,-0.12512 22.94049,-0.57324 34.38454,-0.15036 2.89489,0.10697 5.68708,2.9928 8.05301,5.97973 11.55251,31.46716 19.61259,52.58902 31.77912,85.79162 z"
       id="path2-3"
       style="stroke-width:2.25777" /><path
       fill="#00397f"
       opacity="1"
       stroke="none"
       d="m 114.44119,-136.27049 c -7.24349,0.98918 -9.36304,-1.27423 -9.35626,-7.82806 0.0117,-11.05646 -1.1294,-22.1249 -2.02878,-33.1685 -0.90034,-11.05482 -8.543182,-14.70131 -18.171902,-15.36532 -6.29679,-0.43424 -12.64794,-0.0819 -19.93988,-0.0819 0,18.79355 0,37.00558 0,55.82101 -9.36758,0 -17.78531,0 -26.80239,0 0,-44.59949 0,-89.09483 0,-134.80737 20.57857,0 41.24046,-1.46314 61.56368,0.52895 12.938482,1.26823 24.699482,7.98419 28.594832,23.18153 4.193,16.35864 1.93676,30.5189 -10.98022,42.36039 17.55629,20.50725 7.77622,45.09483 11.11006,69.35941 -5.00323,0 -8.96383,0 -13.98914,-1e-4 m -24.409302,-78.48886 c 11.302552,-6.70039 15.421802,-14.83354 12.595012,-24.26113 -2.646582,-8.82673 -15.437072,-16.82949 -37.172092,-13.79212 0,13.1802 0,26.3775 0,39.38704 8.28294,0 15.75781,0 24.57708,-1.33379 z"
       id="path3-6"
       style="stroke-width:2.25777" /><path
       fill="#00397f"
       opacity="1"
       stroke="none"
       d="m -341.97282,-176.39658 c 0.18288,-32.82612 0.18288,-64.69335 0.18288,-97.07558 9.32816,0 17.74907,0 24.87125,0 0,34.72758 1.47062,69.09981 -0.6081,103.25605 -1.07127,17.60241 -14.9743,28.76661 -32.16218,33.35054 -15.14609,4.0394 -30.22966,3.6912 -45.55373,-1.27798 -18.37694,-5.95913 -28.46266,-19.54568 -29.48216,-36.73291 -1.92949,-32.528 -0.55794,-65.2518 -0.55794,-98.50376 9.09195,0 17.51524,0 27.08845,0 0,28.21308 0.73124,56.31391 -0.28965,84.35094 -0.56198,15.43342 6.62359,28.73373 19.383,32.01082 15.76645,4.04943 28.07658,-2.01076 37.1282,-19.37812 z"
       id="path4"
       style="stroke-width:2.25777" /><path
       fill="#00397f"
       opacity="1"
       stroke="none"
       d="m -105.58427,-136.73758 c 4.94197,-18.28828 10.557018,-36.278 16.710998,-54.08142 8.7951,-25.44404 17.79606,-50.82249 27.25248,-76.02505 1.13796,-3.03283 5.67646,-6.86168 8.60456,-6.83296 32.16667,0.31557 23.58028,-5.87923 34.09462,23.54603 11.1369001,31.16752 22.0312301,62.42288 32.8142,93.71476 2.13828,6.20535 3.29158,12.75011 4.89753,19.132 -0.78928,0.38804 -1.34656,0.89305 -1.91823,0.90988 -23.9573699,0.70507 -23.9154799,0.68596 -31.30449,-22.04221 -8.20903,-25.25091 -16.45399,-50.49051 -24.81947,-75.68983 -1.21173,-3.65008 -3.18238,-7.04823 -6.38595,-14.00121 -6.87583,20.39728 -12.78767,37.49442 -18.39159,54.69188 -4.84626,14.87245 -9.71044,29.75764 -13.86114,44.83146 -2.63308,9.5625 -7.23806,14.64682 -17.77568,12.40278 -2.883,-0.61395 -5.996398,-0.14588 -9.917838,-0.55611 z"
       id="path5"
       style="stroke-width:2.25777" /><path
       fill="#00397f"
       opacity="1"
       stroke="none"
       d="m -517.85615,-163.39665 c 0,-37.13085 0,-73.14005 0,-109.87244 8.86706,0 17.28125,0 26.6422,0 0,37.5114 0,75.24545 0,113.95844 16.07533,0 31.2731,0 47.15918,0 0,7.86264 0,14.78018 0,22.37711 -24.03718,0 -48.2432,0 -73.80138,0 0,-8.34989 0,-16.84567 0,-26.46311 z"
       id="path6"
       style="stroke-width:2.25777" /><path
       fill="#00397f"
       opacity="1"
       stroke="none"
       d="m -552.09898,-183.68398 c 0.52944,1.69956 0.74387,2.25708 1.68887,5.17236 3.88119,12.31 7.70239,22.67631 11.85774,33.20971 1.0986,4.09362 0.71191,4.07734 0.65538,8.77339 -6.85034,-0.20312 -12.67681,-0.2881 -21.76489,-0.7203 -14.66101,-36.64921 -22.31413,-58.71067 -41.22366,-107.74069 -0.51921,-0.48795 -3.11537,-1.19685 -4.252,2.88309 -16.19865,58.14566 -18.39579,66.40826 -30.185,104.34593 -3.2792,1.89405 -13.59723,1.07493 -20.29239,1.28916 13.36733,-42.62866 26.5904,-85.40526 38.14897,-128.57947 2.2558,-7.18571 2.24491,-9.49751 9.08153,-9.03297 6.24373,0.42426 12.5975,-0.41234 18.78619,0.30815 2.97446,0.34628 5.68009,3.00168 8.0288,5.99686 18.19535,45.20726 21.20363,58.48659 29.47046,84.09478 z"
       id="path7"
       style="stroke-width:2.25777" /><path
       fill="#ffffff"
       opacity="1"
       stroke="none"
       d="m 89.359678,-214.09245 c -8.14706,0.66689 -15.62193,0.66689 -23.90487,0.66689 0,-13.00953 0,-26.20683 0,-39.38703 21.73502,-3.03738 34.52551,4.96538 37.172092,13.79212 2.82679,9.42759 -1.29246,17.56074 -13.267222,24.92802 z"
       id="path32"
       style="stroke-width:2.25777" /><path
       style="fill:#cf772e;stroke-width:0.799889"
       d="m 359.74372,446.3812 c -3.53513,-5.3953 -2.69706,-7.949 42.33087,-128.98577 25.26558,-67.91482 47.30522,-125.69234 48.97699,-128.39447 2.97497,-4.80853 3.73757,-4.90031 35.87434,-4.31751 l 32.83475,0.59545 v 32.37282 32.37283 l -10.3253,5.57654 c -49.45987,26.71253 -53.30168,91.34889 -7.26852,122.28879 12.78712,8.59452 22.38828,11.36404 39.44968,11.37959 15.63644,0.0142 28.21521,-4.01798 40.33186,-12.92867 10.68315,-7.85648 16.0759,-8.27622 17.80527,-1.38586 2.55416,10.1766 0.0585,69.59251 -3.08172,73.36819 -2.68561,3.2291 -13.73774,3.56235 -118.14223,3.56235 H 363.35027 Z"
       id="path48" /><g
       id="g64"
       transform="translate(-0.91206309)"><text
         xml:space="preserve"
         style="font-style:normal;font-variant:normal;font-weight:bold;font-stretch:normal;font-size:99.5772px;font-family:'Open Sans';-inkscape-font-specification:'Open Sans, Bold';font-variant-ligatures:normal;font-variant-caps:normal;font-variant-numeric:normal;font-variant-east-asian:normal;text-align:start;writing-mode:lr-tb;direction:ltr;text-anchor:start;fill:#0f3a68;fill-opacity:1;stroke:none;stroke-width:8.29809"
         x="304.27847"
         y="675.26636"
         id="text51"
         transform="scale(1.1667858,0.85705533)"><tspan
           id="tspan51"
           style="font-style:normal;font-variant:normal;font-weight:bold;font-stretch:normal;font-size:99.5772px;font-family:'Open Sans';-inkscape-font-specification:'Open Sans, Bold';font-variant-ligatures:normal;font-variant-caps:normal;font-variant-numeric:normal;font-variant-east-asian:normal;fill:#0f3a68;fill-opacity:1;stroke:none;stroke-width:8.29809"
           x="304.27847"
           y="675.26636">N</tspan></text><text
         xml:space="preserve"
         style="font-style:normal;font-variant:normal;font-weight:bold;font-stretch:normal;font-size:92.1129px;font-family:'Open Sans';-inkscape-font-specification:'Open Sans, Bold';font-variant-ligatures:normal;font-variant-caps:normal;font-variant-numeric:normal;font-variant-east-asian:normal;text-align:start;writing-mode:lr-tb;direction:ltr;text-anchor:start;fill:#0f3a68;fill-opacity:1;stroke:none;stroke-width:7.67606"
         x="251.34698"
         y="645.2876"
         id="text52"
         transform="scale(1.1149858,0.8968724)"><tspan
           id="tspan52"
           style="font-style:normal;font-variant:normal;font-weight:bold;font-stretch:normal;font-size:92.1129px;font-family:'Open Sans';-inkscape-font-specification:'Open Sans, Bold';font-variant-ligatures:normal;font-variant-caps:normal;font-variant-numeric:normal;font-variant-east-asian:normal;fill:#0f3a68;fill-opacity:1;stroke:none;stroke-width:7.67606"
           x="251.34698"
           y="645.2876">A</tspan></text><text
         xml:space="preserve"
         style="font-style:normal;font-variant:normal;font-weight:bold;font-stretch:normal;font-size:94.619px;font-family:'Open Sans';-inkscape-font-specification:'Open Sans, Bold';font-variant-ligatures:normal;font-variant-caps:normal;font-variant-numeric:normal;font-variant-east-asian:normal;text-align:start;writing-mode:lr-tb;direction:ltr;text-anchor:start;fill:#0f3a68;fill-opacity:1;stroke:none;stroke-width:7.8849"
         x="370.98364"
         y="690.46228"
         id="text53"
         transform="scale(1.1946393,0.83707275)"><tspan
           id="tspan53"
           style="font-style:normal;font-variant:normal;font-weight:bold;font-stretch:normal;font-size:94.619px;font-family:'Open Sans';-inkscape-font-specification:'Open Sans, Bold';font-variant-ligatures:normal;font-variant-caps:normal;font-variant-numeric:normal;font-variant-east-asian:normal;fill:#0f3a68;fill-opacity:1;stroke:none;stroke-width:7.8849"
           x="370.98364"
           y="690.46228">O</tspan></text><text
         xml:space="preserve"
         style="font-style:normal;font-variant:normal;font-weight:bold;font-stretch:normal;font-size:104.201px;font-family:'Open Sans';-inkscape-font-specification:'Open Sans, Bold';font-variant-ligatures:normal;font-variant-caps:normal;font-variant-numeric:normal;font-variant-east-asian:normal;text-align:start;writing-mode:lr-tb;direction:ltr;text-anchor:start;fill:#0f3a68;fill-opacity:1;stroke:none;stroke-width:8.68347"
         x="427.1503"
         y="714.01123"
         id="text54"
         transform="scale(1.2337327,0.81054834)"><tspan
           id="tspan54"
           style="font-style:normal;font-variant:normal;font-weight:bold;font-stretch:normal;font-size:104.201px;font-family:'Open Sans';-inkscape-font-specification:'Open Sans, Bold';font-variant-ligatures:normal;font-variant-caps:normal;font-variant-numeric:normal;font-variant-east-asian:normal;fill:#0f3a68;fill-opacity:1;stroke:none;stroke-width:8.68347"
           x="427.1503"
           y="714.01123">P</tspan></text><text
         xml:space="preserve"
         style="font-style:normal;font-variant:normal;font-weight:bold;font-stretch:normal;font-size:101.529px;font-family:'Open Sans';-inkscape-font-specification:'Open Sans, Bold';font-variant-ligatures:normal;font-variant-caps:normal;font-variant-numeric:normal;font-variant-east-asian:normal;text-align:start;writing-mode:lr-tb;direction:ltr;text-anchor:start;fill:#0f3a68;fill-opacity:1;stroke:none;stroke-width:8.46074"
         x="498.29111"
         y="698.50598"
         id="text55"
         transform="scale(1.2086545,0.82736629)"><tspan
           id="tspan55"
           style="font-style:normal;font-variant:normal;font-weight:bold;font-stretch:normal;font-size:101.529px;font-family:'Open Sans';-inkscape-font-specification:'Open Sans, Bold';font-variant-ligatures:normal;font-variant-caps:normal;font-variant-numeric:normal;font-variant-east-asian:normal;fill:#0f3a68;fill-opacity:1;stroke:none;stroke-width:8.46074"
           x="498.29111"
           y="698.50598">U</tspan></text><text
         xml:space="preserve"
         style="font-style:normal;font-variant:normal;font-weight:bold;font-stretch:normal;font-size:113.169px;font-family:'Open Sans';-inkscape-font-specification:'Open Sans, Bold';font-variant-ligatures:normal;font-variant-caps:normal;font-variant-numeric:normal;font-variant-east-asian:normal;text-align:start;writing-mode:lr-tb;direction:ltr;text-anchor:start;fill:#0f3a68;fill-opacity:1;stroke:none;stroke-width:9.43073"
         x="512.49329"
         y="771.63727"
         id="text56"
         transform="scale(1.3352137,0.74894379)"><tspan
           id="tspan56"
           style="font-style:normal;font-variant:normal;font-weight:bold;font-stretch:normal;font-size:113.169px;font-family:'Open Sans';-inkscape-font-specification:'Open Sans, Bold';font-variant-ligatures:normal;font-variant-caps:normal;font-variant-numeric:normal;font-variant-east-asian:normal;fill:#0f3a68;fill-opacity:1;stroke:none;stroke-width:9.43073"
           x="512.49329"
           y="771.63727">S</tspan></text><text
         xml:space="preserve"
         style="font-style:normal;font-variant:normal;font-weight:bold;font-stretch:normal;font-size:99.5416px;font-family:'Open Sans';-inkscape-font-specification:'Open Sans, Bold';font-variant-ligatures:normal;font-variant-caps:normal;font-variant-numeric:normal;font-variant-east-asian:normal;text-align:start;writing-mode:lr-tb;direction:ltr;text-anchor:start;fill:#0f3a68;fill-opacity:1;stroke:none;stroke-width:8.29512"
         x="165.85722"
         y="671.90405"
         id="text57"
         transform="scale(1.1626558,0.86009978)"><tspan
           id="tspan57"
           style="font-style:normal;font-variant:normal;font-weight:bold;font-stretch:normal;font-size:99.5416px;font-family:'Open Sans';-inkscape-font-specification:'Open Sans, Bold';font-variant-ligatures:normal;font-variant-caps:normal;font-variant-numeric:normal;font-variant-east-asian:normal;fill:#0f3a68;fill-opacity:1;stroke:none;stroke-width:8.29512"
           x="165.85722"
           y="671.90405">C</tspan></text></g><path
       style="fill:#0f3a68;fill-opacity:1;stroke-width:0.466926"
       d=""
       id="path60"
       transform="matrix(2.6988222,0,0,2.6988222,74.81311,173.9173)" /></g></g>
</svg>
