<?xml version="1.0" encoding="UTF-8" standalone="no"?>
<!-- Created with Inkscape (http://www.inkscape.org/) -->

<svg
   width="300"
   height="150"
   viewBox="0 0 79.374998 39.6875"
   version="1.1"
   id="svg1"
   inkscape:export-filename="bitmapvallle.svg"
   inkscape:export-xdpi="96"
   inkscape:export-ydpi="96"
   xmlns:inkscape="http://www.inkscape.org/namespaces/inkscape"
   xmlns:sodipodi="http://sodipodi.sourceforge.net/DTD/sodipodi-0.dtd"
   xmlns="http://www.w3.org/2000/svg"
   xmlns:svg="http://www.w3.org/2000/svg">
  <sodipodi:namedview
     id="namedview1"
     pagecolor="#ffffff"
     bordercolor="#000000"
     borderopacity="0.25"
     inkscape:showpageshadow="2"
     inkscape:pageopacity="0.0"
     inkscape:pagecheckerboard="0"
     inkscape:deskcolor="#d1d1d1"
     inkscape:document-units="mm">
    <inkscape:page
       x="0"
       y="0"
       width="79.375"
       height="39.6875"
       id="page2"
       margin="0"
       bleed="0" />
  </sodipodi:namedview>
  <defs
     id="defs1" />
  <g
     inkscape:label="Camada 1"
     inkscape:groupmode="layer"
     id="layer1">
    <g
       id="g2"
       transform="matrix(0.26458333,0,0,0.26458333,-7.8178162e-4,0.36236764)">
      <path
         fill="#019299"
         opacity="1"
         stroke="none"
         d="M 30.43511,68.270284 C 30.387864,68.126869 30.340621,67.983462 30.216385,67.612501 26.34533,62.036791 22.551275,56.688613 18.757216,51.34045 18.686678,51.238487 18.61614,51.136535 18.434309,50.84828 16.824899,48.488084 15.348651,46.298725 13.824516,44.143229 9.5348781,38.076616 5.2255401,32.023957 0.92397133,25.965792 0.89045671,25.776969 0.85693616,25.588153 1.0062861,25.273023 8.2127395,20.851554 15.441225,16.838162 23.784535,16.040207 c 6.650968,-0.6361 7.005289,-0.612104 12.810974,0.01193 9.141699,1.33566 17.130351,5.419975 24.368223,10.868148 7.708822,5.80265 15.080112,12.053688 22.642918,18.226414 5.320847,4.479888 10.77606,8.586101 16.98815,11.553559 5.71606,2.730465 11.66997,4.159744 18.06629,3.243611 6.9866,-1.000655 12.88348,-4.289567 18.37921,-8.491501 0.64332,-0.491873 1.39214,-0.845772 2.13512,-1.149297 0.0174,0.274271 -0.008,0.434219 -0.0339,0.594155 -0.0625,0.100752 -0.14098,0.186986 -0.41148,0.378617 -9.69228,12.231177 -19.21844,24.334594 -28.72056,36.456875 -4.89926,6.250219 -9.75575,12.533942 -14.631558,18.802532 -0.100355,0.0708 -0.181865,0.15894 -0.411194,0.3892 -2.314606,2.92432 -4.462532,5.72398 -6.610462,8.52364 -0.08654,0.10053 -0.173086,0.20107 -0.425441,0.43576 -4.0408,5.11126 -7.915779,10.08835 -11.888119,15.11957 -0.186037,0.25759 -0.274702,0.46107 -0.363366,0.66452 -0.119397,0.0236 -0.238797,0.0472 -0.482748,-0.0692 -0.247923,-0.312 -0.371303,-0.48408 -0.532495,-0.77539 -4.948603,-7.11543 -9.852335,-14.11657 -14.779029,-21.10151 -0.624735,-0.88574 -1.369701,-1.6867 -2.058961,-2.52695 -0.06302,-0.1323 -0.126044,-0.26461 -0.236503,-0.62911 C 50.051238,95.682116 42.572194,85.02221 35.05912,74.386341 33.585311,72.299949 31.979843,70.306565 30.435099,68.27028 Z"
         id="path2"
         sodipodi:nodetypes="cccccccscsccsscccsccccccccsccscc"
         style="opacity:0.947989;fill:#016b67;fill-opacity:1;stroke-width:0.370532" />
      <path
         fill="#eab733"
         opacity="1"
         stroke="none"
         d="m 139.13234,50.188733 c -0.6999,0.417868 -1.44872,0.771766 -2.09204,1.26364 -5.49573,4.201933 -11.39261,7.490846 -18.37921,8.491501 -6.39632,0.916133 -12.35023,-0.513146 -18.06629,-3.243611 -6.21209,-2.967458 -11.667303,-7.073671 -16.869543,-11.6126 5.628949,-2.685756 11.305006,-4.586964 16.732693,-7.715406 13.21138,-7.614852 31.40722,-22.673436 45.75977,-14.09596 2.82808,1.904612 5.45769,3.663338 8.0873,5.422065 0.0243,0.162771 0.0487,0.325546 -0.0735,0.663967 -2.88406,4.145294 -5.62162,8.114933 -8.35919,12.084572 -0.0393,0.10957 -0.0786,0.219155 -0.30638,0.533092 -1.88791,2.448149 -3.58742,4.691965 -5.40604,6.992006 -0.17754,0.207427 -0.23592,0.358634 -0.28154,0.508529 0.0128,-0.0015 0.004,-0.02549 -0.12205,-0.03878 -0.17136,0.1265 -0.21648,0.266276 -0.24924,0.408323 0.0124,0.0022 0.004,-0.02153 -0.12863,-0.05154 -0.17246,0.118629 -0.21197,0.267268 -0.23991,0.411646 0.0116,-0.0043 -0.006,-0.02145 -0.006,-0.02145 z"
         id="path3"
         sodipodi:nodetypes="cssccsccccccccccccc"
         style="fill:#e6aa06;fill-opacity:1;stroke-width:0.370532" />
      <path
         fill="#77787b"
         opacity="1"
         stroke="none"
         d="m 195.21755,117.62075 c -0.54961,-0.1919 -0.92394,-0.35531 -1.42736,-0.57504 5.56255,-12.98906 11.09968,-25.9188 16.64373,-38.999839 1.93878,-0.149036 3.87066,-0.146787 5.96899,-0.09801 5.21904,12.60571 10.27288,25.164389 15.31964,37.725899 0.20474,0.50958 0.34262,1.04603 0.51821,1.70841 -1.904,0.18146 -3.81462,0.22448 -5.99582,0.15119 -0.82779,-0.54401 -1.67126,-0.85875 -1.89237,-1.41906 -0.92617,-2.34701 -1.61049,-4.78889 -2.51624,-7.14496 -0.20336,-0.52898 -0.93531,-1.20565 -1.43534,-1.21519 -4.81364,-0.0917 -9.63003,-0.0789 -14.4446,-0.0163 -0.45018,0.006 -1.15995,0.4669 -1.29704,0.87028 -1.00919,2.9692 -1.90334,5.97749 -2.83372,8.97347 -2.14428,0.0226 -4.28857,0.0451 -6.60808,0.0392 m 20.66647,-23.540385 c -0.65442,-2.041602 -1.30887,-4.083192 -2.08397,-6.501273 -1.92311,4.743654 -3.70977,9.150777 -5.57598,13.754088 3.44099,0 6.5954,0 9.94751,0 -0.76479,-2.423201 -1.48217,-4.696248 -2.28756,-7.252815 z"
         id="path8"
         style="fill:#808080;stroke-width:0.370532" />
      <path
         fill="#76777a"
         opacity="1"
         stroke="none"
         d="m 298.82005,110.22795 c -0.0717,2.01848 -0.0353,4.68574 -0.0464,6.85164 -6.84687,0.0381 -12.82457,-0.0457 -19.36411,1.7e-4 -1.08632,0.008 -1.93969,0.0288 -3.06539,-0.0253 -0.0886,-3.62756 -0.0928,-7.034 -0.0969,-10.44042 V 78.586773 h 22.86339 c 0,0.9771 0,1.940235 -0.14919,3.089885 -0.96489,0.722304 -1.89825,1.141131 -2.57172,1.818397 -1.37688,1.384619 -2.95691,1.758782 -4.85416,1.678892 -2.94131,-0.123828 -5.8917,-0.03268 -8.89836,-0.03268 v 8.475364 h 14.625 v 6.534959 h -14.63875 v 10.07634 z"
         id="path9"
         sodipodi:nodetypes="ccscccccssccccccc"
         style="fill:#808080;stroke-width:0.370532" />
      <path
         fill="#76777a"
         opacity="1"
         stroke="none"
         d="m 191.27657,77.520015 c -5.92601,14.528045 -9.77358,24.185905 -15.33682,39.261275 -0.26246,0.71123 -0.19803,0.70153 -0.46962,0.70565 -1.24476,0.0189 -2.86031,0.0105 -4.28239,0.022 -1.49805,-3.2298 -2.84803,-6.29725 -4.23303,-9.34878 -0.0964,-0.21232 -0.52787,-0.98859 -0.81619,-1.54566 -2.05439,-4.72011 -4.0872,-9.181905 -6.1655,-13.622376 -2.22672,-4.757516 -4.49628,-9.494975 -6.74714,-14.241194 -0.2518,-1.085136 0.23909,-1.4262 1.27506,-1.391225 1.8427,0.06216 3.68795,0.04928 5.69292,0.286266 0.47848,0.655126 0.8842,1.052218 1.10083,1.53428 3.8897,8.655917 7.75437,17.323094 11.63646,25.982449 0.15471,0.3451 0.42858,0.63679 0.77887,1.14459 3.60674,-9.718582 7.11902,-19.182584 10.63129,-28.646572 2.27229,-0.07796 4.54458,-0.155902 6.93526,-0.140691 z"
         id="path11"
         sodipodi:nodetypes="csscscsccccscccc"
         style="fill:#808080;stroke-width:0.370532" />
      <path
         fill="#76777a"
         opacity="1"
         stroke="none"
         d="m 243.32379,116.87056 c 0,-12.48763 0,-24.975255 0,-37.685956 2.3846,0 4.58567,0 6.97009,-0.02275 0.21415,7.974193 0.2445,15.97113 0.27625,23.968066 0.004,1.04652 0.0153,2.09303 0.0517,3.47967 0.0284,1.48725 0.0284,2.63435 0.0284,4.01873 5.75616,0 11.36426,0 17.173,0 0,2.31831 0,4.39759 0,6.47687 -2.2231,0.0556 -4.44618,0.11119 -6.94709,0.11411 -0.93956,-0.12465 -1.60084,-0.25387 -2.26315,-0.25948 -5.09631,-0.0433 -10.19282,-0.0625 -15.28927,-0.0893 z"
         id="path12"
         style="fill:#808080;stroke-width:0.370532" />
      <path
         fill="#019299"
         opacity="1"
         stroke="none"
         d="m 140.15996,48.971999 c 0.0554,0.09487 -0.008,0.245977 -0.18319,0.45346 -0.0527,-0.09483 0.006,-0.246033 0.18319,-0.45346 z"
         id="path34"
         style="stroke-width:0.370532" />
      <path
         fill="#019299"
         opacity="1"
         stroke="none"
         d="m 139.3785,49.798526 c 0.0791,0.16213 0.0254,0.29425 -0.13998,0.421146 -0.072,-0.153878 -0.0325,-0.302517 0.13998,-0.421146 z"
         id="path35"
         style="stroke-width:0.370532" />
      <path
         fill="#019299"
         opacity="1"
         stroke="none"
         d="m 139.75636,49.441744 c 0.0642,0.129598 0.002,0.245919 -0.1608,0.384146 -0.0557,-0.11787 -0.0106,-0.257646 0.1608,-0.384146 z"
         id="path36"
         style="stroke-width:0.370532" />
    </g>
  </g>
</svg>
