<?xml version="1.0" encoding="UTF-8" standalone="no"?>
<svg
   version="1.1"
   id="Layer_1"
   x="0px"
   y="0px"
   width="300"
   viewBox="0 0 300 150"
   enable-background="new 0 0 1080 590"
   xml:space="preserve"
   sodipodi:docname="Logo-Edeconsil.svg"
   height="150"
   xmlns:inkscape="http://www.inkscape.org/namespaces/inkscape"
   xmlns:sodipodi="http://sodipodi.sourceforge.net/DTD/sodipodi-0.dtd"
   xmlns="http://www.w3.org/2000/svg"
   xmlns:svg="http://www.w3.org/2000/svg"><defs
   id="defs172" /><sodipodi:namedview
   id="namedview172"
   pagecolor="#ffffff"
   bordercolor="#000000"
   borderopacity="0.25"
   inkscape:showpageshadow="2"
   inkscape:pageopacity="0.0"
   inkscape:pagecheckerboard="0"
   inkscape:deskcolor="#d1d1d1"><inkscape:page
     x="0"
     y="0"
     width="300"
     height="150"
     id="page2"
     margin="0"
     bleed="0" /></sodipodi:namedview>












































































































































































<g
   id="g175"
   transform="matrix(0.90743104,0,0,0.90743104,0.34274376,-7.1141103)"><text
     xml:space="preserve"
     style="font-style:normal;font-variant:normal;font-weight:normal;font-stretch:normal;font-size:67.6635px;font-family:Georgia;-inkscape-font-specification:'Georgia, Normal';font-variant-ligatures:normal;font-variant-caps:normal;font-variant-numeric:normal;font-variant-east-asian:normal;text-align:start;writing-mode:lr-tb;direction:ltr;text-anchor:start;fill:#d40000;stroke-width:3.96381"
     x="-1.887825"
     y="94.297859"
     id="text172"><tspan
       sodipodi:role="line"
       id="tspan172"
       x="-1.887825"
       y="94.297859"
       style="stroke-width:3.96381">L</tspan></text><text
     xml:space="preserve"
     style="font-style:normal;font-variant:normal;font-weight:normal;font-stretch:normal;font-size:66.8136px;font-family:Georgia;-inkscape-font-specification:'Georgia, Normal';font-variant-ligatures:normal;font-variant-caps:normal;font-variant-numeric:normal;font-variant-east-asian:normal;text-align:start;writing-mode:lr-tb;direction:ltr;text-anchor:start;fill:#ffffff;stroke-width:3.91403"
     x="43.970299"
     y="93.954491"
     id="text173"><tspan
       sodipodi:role="line"
       id="tspan173"
       x="43.970299"
       y="93.954491"
       style="stroke-width:3.91403">LUCENA</tspan></text><path
     style="fill:#d40000;stroke-width:1.05203"
     d="m 272.78871,93.81166 0.63714,-1.95145 0.50115,-1.36673 c 0.52743,-1.04408 0.93167,-1.64697 1.25037,-2.26998 2.65935,-3.65654 3.87397,-5.14624 6.38567,-8.0073 0.91061,-1.03726 2.64609,-2.26878 2.89566,-2.43791 0.3823,-0.25908 2.85119,-2.01516 2.85119,-2.01516 l 2.09799,-1.2938 2.01039,-1.17972 3.21225,-1.67269 c 0,0 3.56912,-1.70168 4.39103,-1.96043 0.82193,-0.25875 5.31526,-2.16989 5.31526,-2.16989 l 4.04374,-1.498 2.79642,-0.98278 4.6314,-1.33696 c 3.97589,-0.95751 8.50259,-2.05516 12.65927,-2.75778 l 0.0306,2.20124 c -3.32849,1.3236 -6.98687,2.73085 -15.44504,6.17267 -0.52777,0.21476 -1.14859,0.59439 -1.72056,0.82879 l -2.12504,1.07664 -1.85651,1.0407 c 0,0 -1.2759,0.71015 -3.23335,1.8478 -0.0679,0.0394 -1.52994,0.94152 -2.41641,1.55057 -0.61247,0.4208 -2.31945,1.54342 -2.31945,1.54342 l -1.80007,1.14506 -1.62862,1.05696 -1.20252,0.98152 c -0.38586,0.32714 -1.67575,1.42066 -2.22993,2.08424 -1.0183,1.21935 -2.34824,2.75288 -3.73608,4.72668 -1.89277,2.69191 -2.8399,6.2553 -2.97682,6.55549 -5.93375,-0.062 -4.95665,-0.0525 -10.99005,0.055 z"
     id="path172"
     sodipodi:nodetypes="ccccssccccsccccccscccssccccssccc" /><path
     style="fill:#ffffff;stroke-width:1.05695"
     d="m 2.5322463,103.05187 0.42744,5.35668"
     id="path173" /><path
     style="fill:#ff0000;stroke-width:1.05695"
     d="m 2.7459663,102.86056 -0.21372,5.7393 v 0.38262 L 154.48754,106.11283 Z"
     id="path174" /><path
     style="fill:#ff0000;stroke-width:1.05695"
     d="m 173.93611,106.11283 148.53577,-3.25227 -0.21372,5.16537 z"
     id="path175" /><text
     xml:space="preserve"
     style="font-style:normal;font-variant:normal;font-weight:normal;font-stretch:normal;font-size:29.4269px;font-family:Georgia;-inkscape-font-specification:'Georgia, Normal';font-variant-ligatures:normal;font-variant-caps:normal;font-variant-numeric:normal;font-variant-east-asian:normal;text-align:start;writing-mode:lr-tb;direction:ltr;text-anchor:start;fill:#ffffff;stroke-width:1.72387"
     x="1.2192105"
     y="161.11096"
     id="text175"
     transform="scale(1.2029899,0.83126218)"><tspan
       sodipodi:role="line"
       id="tspan175"
       x="1.2192105"
       y="161.11096"
       style="stroke-width:1.72387">INFRAESTRUTURA</tspan></text></g></svg>
