<?xml version="1.0" encoding="UTF-8" standalone="no"?>
<!-- Created with Inkscape (http://www.inkscape.org/) -->

<svg
   width="300"
   height="150"
   viewBox="0 0 79.374998 39.6875"
   version="1.1"
   id="svg1"
   xml:space="preserve"
   inkscape:export-filename="logo-alumar.svg"
   inkscape:export-xdpi="96"
   inkscape:export-ydpi="96"
   xmlns:inkscape="http://www.inkscape.org/namespaces/inkscape"
   xmlns:sodipodi="http://sodipodi.sourceforge.net/DTD/sodipodi-0.dtd"
   xmlns="http://www.w3.org/2000/svg"
   xmlns:svg="http://www.w3.org/2000/svg"><sodipodi:namedview
     id="namedview1"
     pagecolor="#ffffff"
     bordercolor="#000000"
     borderopacity="0.25"
     inkscape:showpageshadow="2"
     inkscape:pageopacity="0.0"
     inkscape:pagecheckerboard="0"
     inkscape:deskcolor="#d1d1d1"
     inkscape:document-units="mm"><inkscape:page
       x="0"
       y="0"
       width="79.375"
       height="39.6875"
       id="page2"
       margin="0"
       bleed="0" /></sodipodi:namedview><defs
     id="defs1" /><g
     inkscape:label="Camada 1"
     inkscape:groupmode="layer"
     id="layer1"><g
       id="g1"
       transform="translate(-0.57532552,3.0736021)"><path
         fill="#00397f"
         opacity="1"
         stroke="none"
         d="m 45.762008,19.160336 c 0.212483,0.290062 0.696338,0.39669 1.084153,0.06856 1.311431,-3.269408 2.407655,-6.039748 3.580207,-9.113415 0,0 2.688921,-0.02076 3.327189,-0.01652 0.011,4.213063 -0.0012,8.630741 -0.04568,12.966952 -0.104109,0.159371 -0.144026,0.261987 -0.164369,0.319069 -0.6004,0.01097 -1.200803,0.02195 -1.92041,-0.02257 -0.155436,-0.104062 -0.202089,-0.138519 -0.259167,-0.15886 -0.011,-3.326609 -0.022,-6.653216 0.04565,-10.092063 0.02815,-0.250288 -0.09463,-0.323216 -0.240121,-0.407533 -0.100928,-0.05849 -0.281452,-0.07893 -0.372712,0.135171 -1.038551,2.98897 -2.359858,6.475283 -3.930196,10.536268 -0.04237,0.109581 -0.157032,0.06865 -1.83662,0.05087 -2.711603,-6.983018 -2.887404,-7.69342 -4.312539,-11.470522 0.0029,0.136648 0.0058,0.273294 0.0087,0.40994 -0.0091,3.544346 -0.01826,7.088694 -0.08294,10.75619 -0.104105,0.159371 -0.138562,0.206024 -0.158906,0.263106 -0.6004,0.01097 -1.200802,0.02195 -1.920409,-0.02257 -0.155437,-0.104062 -0.20209,-0.138519 -0.259168,-0.15886 -0.011,-4.213064 -0.022,-8.426126 0.02253,-12.762334 0.104109,-0.159366 0.138568,-0.206019 0.158905,-0.263104 1.123919,-0.01227 2.249007,-0.0562 3.370943,-0.01474 0.283805,0.01049 0.557542,0.293403 0.789489,0.586232 1.132569,3.084933 1.922752,5.155647 3.115517,8.410717 z"
         id="path2-3"
         style="stroke-width:0.221344" /><path
         fill="#00397f"
         opacity="1"
         stroke="none"
         d="m 77.236239,23.421867 c -0.710127,0.09698 -0.917921,-0.124921 -0.917256,-0.767436 0.0011,-1.083938 -0.110723,-2.16905 -0.198895,-3.251727 -0.08827,-1.083777 -0.837544,-1.441266 -1.781511,-1.506363 -0.617316,-0.04257 -1.239961,-0.008 -1.954838,-0.008 0,1.842455 0,3.6279 0,5.472501 -0.918365,0 -1.743611,0 -2.627615,0 0,-4.372382 0,-8.734553 0,-13.216054 2.017453,0 4.043074,-0.143442 6.035494,0.05186 1.268444,0.124333 2.421452,0.782743 2.803339,2.272638 0.411068,1.603745 0.189874,2.991969 -1.076463,4.152868 1.721159,2.010461 0.762354,4.420943 1.089192,6.79976 -0.490499,0 -0.878783,0 -1.371447,-10e-6 m -2.393005,-7.69478 c 1.108064,-0.656883 1.511901,-1.454229 1.234772,-2.378478 -0.259462,-0.865343 -1.513398,-1.649906 -3.644225,-1.352132 0,1.292141 0,2.58596 0,3.86137 0.812031,0 1.544842,0 2.409453,-0.13076 z"
         id="path3-6"
         style="stroke-width:0.221344" /><path
         fill="#00397f"
         opacity="1"
         stroke="none"
         d="m 32.490966,19.488042 c 0.01793,-3.218161 0.01793,-6.342315 0.01793,-9.5169585 0.914501,0 1.740058,0 2.438292,0 0,3.4045735 0.144175,6.7743095 -0.05962,10.1228705 -0.105024,1.725681 -1.468029,2.820181 -3.15307,3.269574 -1.484871,0.396009 -2.963613,0.361872 -4.465933,-0.125289 -1.801612,-0.584213 -2.790382,-1.916192 -2.89033,-3.601169 -0.189161,-3.188935 -0.0547,-6.397064 -0.0547,-9.6569735 0.891344,0 1.717135,0 2.65566,0 0,2.7659145 0.07169,5.5208245 -0.0284,8.2694785 -0.05509,1.51304 0.649354,2.816957 1.900243,3.138232 1.545689,0.396992 2.752533,-0.197128 3.639923,-1.899765 z"
         id="path4"
         style="stroke-width:0.221344" /><path
         fill="#00397f"
         opacity="1"
         stroke="none"
         d="m 55.665693,23.376075 c 0.484494,-1.79292 1.034974,-3.556571 1.638289,-5.301958 0.862242,-2.494447 1.744665,-4.982463 2.671741,-7.453236 0.111561,-0.297328 0.5565,-0.6726965 0.843561,-0.6698805 3.153511,0.03094 2.311731,-0.57638 3.342521,2.3083725 1.091823,3.055558 2.159866,6.119726 3.216992,9.187476 0.20963,0.608351 0.322695,1.249977 0.480137,1.875636 -0.07738,0.03804 -0.132012,0.08755 -0.188057,0.0892 -2.348699,0.06912 -2.344592,0.06725 -3.068985,-2.160944 -0.804785,-2.475513 -1.613093,-4.949917 -2.433216,-7.420372 -0.118794,-0.357842 -0.31199,-0.690985 -0.626057,-1.372631 -0.674083,1.99968 -1.25366,3.675825 -1.803049,5.361805 -0.475111,1.458044 -0.951978,2.917338 -1.358899,4.395124 -0.258138,0.937474 -0.709595,1.435924 -1.742667,1.215926 -0.282639,-0.06019 -0.587866,-0.0143 -0.972311,-0.05452 z"
         id="path5"
         style="stroke-width:0.221344" /><path
         fill="#00397f"
         opacity="1"
         stroke="none"
         d="m 15.247964,20.762511 c 0,-3.640182 0,-7.170401 0,-10.7715195 0.869296,0 1.694195,0 2.61191,0 0,3.6774905 0,7.3768075 0,11.1720965 1.575971,0 3.065908,0 4.623325,0 0,0.770827 0,1.448999 0,2.193776 -2.356523,0 -4.729599,0 -7.235235,0 0,-0.818595 0,-1.651492 0,-2.594353 z"
         id="path6"
         style="stroke-width:0.221344" /><path
         fill="#00397f"
         opacity="1"
         stroke="none"
         d="m 11.890913,18.77361 c 0.0519,0.166619 0.07293,0.221277 0.165571,0.507081 0.380499,1.20683 0.755117,2.223108 1.162493,3.255767 0.107703,0.401324 0.06979,0.399728 0.06425,0.860113 -0.671584,-0.01991 -1.242791,-0.02824 -2.133756,-0.07062 C 9.712156,19.732991 8.96187,17.570161 7.1080444,12.763426 7.0571424,12.715586 6.8026242,12.646091 6.6911928,13.046074 5.1031324,18.746476 4.8877323,19.556513 3.7319584,23.275792 3.4104768,23.461479 2.3989324,23.381175 1.7425619,23.402177 3.0530491,19.223009 4.3493938,15.029338 5.4825566,10.796685 5.7037075,10.092223 5.7026399,9.8655815 6.3728788,9.9111235 c 0.612114,0.04159 1.235016,-0.04043 1.841734,0.03021 0.2916059,0.03395 0.5568567,0.2942745 0.7871162,0.5879115 1.78381,4.431966 2.078732,5.733826 2.889184,8.244365 z"
         id="path7"
         style="stroke-width:0.221344" /></g></g></svg>
