<?xml version="1.0" encoding="UTF-8" standalone="no"?>
<svg
   version="1.1"
   id="Layer_1"
   x="0px"
   y="0px"
   width="300"
   viewBox="0 0 300 150"
   enable-background="new 0 0 848 275"
   xml:space="preserve"
   height="150"
   xmlns="http://www.w3.org/2000/svg"
   xmlns:svg="http://www.w3.org/2000/svg"><defs
   id="defs40" />







































<g
   id="g40"
   transform="matrix(0.39131125,0,0,0.39131125,55.243025,146.83818)"><path
     fill="#103a61"
     opacity="1"
     stroke="none"
     d="m -6.79056,-272.40608 c 5.05697,-0.28667 10.11126,-0.73363 15.17159,-0.81786 5.82195,-0.0969 12.62602,-1.70696 17.19887,0.72855 4.55194,2.42438 6.92817,9.00905 10.15092,13.84121 16.61298,24.90934 33.14972,49.86972 49.84181,74.72585 1.81266,2.69921 2.19782,4.43078 0.0407,7.32107 -19.51232,26.14439 -38.84487,52.42339 -58.13149,78.73521 -1.86964,2.55065 -3.85077,3.59623 -7.04926,3.49695 -8.8193,-0.2738 -17.64988,-0.1846 -26.45701,-0.83952 4.87715,-7.36639 9.73532,-14.13222 14.90863,-21.04214 16.19452,-21.39481 32.07387,-42.64553 47.88048,-63.79889 -8.60524,-12.5673 -16.82273,-24.65415 -25.1317,-36.67777 -7.63337,-11.04598 -15.36532,-22.02384 -23.08246,-33.36314 -5.13276,-7.65745 -10.23692,-14.98349 -15.34108,-22.30952 z"
     id="path2" /><path
     fill="#103a60"
     opacity="1"
     stroke="none"
     d="m -81.61055,-272.37341 c 2.52317,-0.29717 5.04293,-0.81073 7.57016,-0.85052 7.26954,-0.11447 14.54882,-0.2046 21.80854,0.0871 1.71658,0.069 3.37141,1.6743 5.52096,3.0577 5.57739,7.91682 10.68848,15.34883 15.907,23.12376 1.50316,2.23044 2.89886,4.11795 4.28137,6.34348 4.93495,7.6942 9.88309,15.0504 14.92314,22.74567 8.3292,12.82395 16.5665,25.30882 24.77181,37.74525 -8.44133,11.65094 -16.73261,23.09476 -25.28919,34.73169 -5.31555,7.11593 -10.36583,14.03876 -15.68612,21.15092 -1.35544,2.07561 -2.44086,3.96186 -3.87529,5.89312 -5.20261,6.63925 -10.05622,13.23349 -14.90982,19.82772 -2.06363,3.50429 -5.09848,4.34999 -9.08275,4.16205 -7.2275,-0.34094 -14.48325,-0.0474 -21.72556,-0.14334 -1.26218,-0.0167 -2.51626,-0.64516 -3.43224,-1.50659 5.03171,-6.99963 9.72156,-13.48372 14.7288,-20.1039 1.52487,-1.77522 2.73235,-3.41436 4.21386,-5.24034 5.33544,-7.11203 10.39684,-14.03722 15.74527,-21.13115 1.40866,-2.06215 2.53029,-3.95558 3.99492,-5.89895 5.18997,-6.57984 10.03696,-13.1097 15.16315,-19.83861 3.12814,-4.01395 5.97708,-7.82889 9.05176,-11.94612 -3.21314,-4.47173 -6.35945,-8.85044 -9.60028,-13.55904 -5.17104,-7.49856 -10.24755,-14.66721 -15.41703,-22.19022 -1.56236,-2.2338 -3.03175,-4.11326 -4.43802,-6.32216 -4.83764,-7.2782 -9.73843,-14.22696 -14.73359,-21.51709 -1.19567,-2.08672 -2.29695,-3.83209 -3.49306,-5.90313 -5.39581,-7.78956 -10.6968,-15.25345 -15.99779,-22.71734 z"
     id="path3" /><path
     fill="#103a60"
     opacity="1"
     stroke="none"
     d="m -43.31793,-273.18253 c 9.60884,-0.0262 19.22107,-0.19027 28.82353,0.0447 1.79502,0.0439 3.55091,1.68682 5.65746,3.11201 5.37779,7.9041 10.42302,15.28801 15.51681,23.01332 13.98339,21.37581 27.86943,42.44292 41.91523,63.40296 1.74049,2.59731 1.88632,4.28682 -0.0806,6.88341 -9.82701,12.97272 -19.46756,26.08797 -29.07349,39.22633 -4.59263,6.28148 -8.96316,12.72533 -13.73794,19.17894 -4.9504,6.56223 -9.59713,13.04114 -14.24387,19.52004 -2.59178,3.78926 -6.16783,4.69475 -10.64885,4.44746 -6.78395,-0.37433 -13.60457,-0.045 -20.40776,-0.143 -1.32425,-0.0191 -2.64006,-0.62458 -3.63388,-1.47057 5.17656,-7.09202 10.02724,-13.67305 15.16663,-20.40599 1.36869,-1.76537 2.44863,-3.37878 3.81364,-5.1693 5.43089,-7.06427 10.57675,-13.95144 15.91597,-21.11352 9.42455,-12.63562 18.6557,-24.99632 28.01002,-37.52191 -9.74035,-14.00163 -19.31753,-27.76869 -28.97897,-41.86312 -5.39395,-8.0322 -10.70364,-15.73705 -16.13792,-23.74067 -1.03434,-1.4835 -1.94405,-2.66823 -2.93854,-4.18143 -5.03568,-7.95886 -9.98656,-15.58924 -14.93744,-23.21962 z"
     id="path4" /><path
     fill="#113a61"
     opacity="1"
     stroke="none"
     d="m 268.68683,-103.43932 c 0,-12.80289 0,-25.11675 0,-37.43062 -0.2919,-0.0635 -0.58377,-0.12704 -0.87567,-0.19058 -2.40289,8.51745 -4.81824,17.0314 -7.20438,25.55354 -1.70196,6.07849 -3.11984,12.25392 -5.20581,18.19606 -0.56799,1.61814 -3.03351,3.53406 -4.73294,3.64055 -15.32324,0.96008 -15.31796,0.84741 -19.42791,-13.8625 -2.81675,-10.08139 -5.66361,-20.15439 -8.52189,-30.22409 -0.42871,-1.51039 -0.99368,-2.98212 -2.01721,-4.32604 0,14.46109 -0.15295,28.92479 0.0941,43.38167 0.0732,4.28697 -1.39325,5.54614 -5.45261,5.25212 -4.14352,-0.30014 -8.34485,0.15433 -12.47909,-0.2036 -1.23874,-0.10725 -3.34818,-1.82657 -3.35248,-2.81476 -0.10431,-23.98046 0.0222,-47.96195 0.12051,-71.9432 5.2e-4,-0.12593 0.19162,-0.2511 0.7544,-0.9429 8.80591,0 18.09106,-0.17372 27.35446,0.19677 1.31299,0.0525 3.17609,2.56096 3.67288,4.25814 4.15387,14.18948 8.04212,28.45665 12.02911,42.69514 0.34623,1.23639 0.8263,2.43527 1.54502,4.52741 4.3743,-15.78244 8.72427,-30.57227 12.47476,-45.51258 1.26709,-5.04765 3.47815,-6.63385 8.53275,-6.28901 6.79928,0.46385 13.65643,0.22133 20.48382,0.0662 2.97067,-0.0675 4.12329,0.84314 4.10935,3.97023 -0.10111,22.65825 -0.10376,45.31742 0.002,67.97564 0.0149,3.19439 -1.32764,4.05664 -4.18134,3.97732 -3.99548,-0.11104 -8.02469,-0.32582 -11.98773,0.0497 -4.79639,0.45441 -6.39603,-1.51468 -5.7583,-6.01582 0.16199,-1.14342 0.0243,-2.3293 0.0243,-3.98471 z"
     id="path5" /><path
     fill="#a7a9ac"
     opacity="1"
     stroke="none"
     d="m -81.92953,-272.26791 c 5.61997,7.35839 10.92096,14.82228 16.01121,22.74796 -14.59893,22.6061 -29.036549,44.71886 -43.2444,66.97827 -0.79651,1.24791 -0.33598,4.14118 0.61602,5.53144 9.290501,13.56732 18.854397,26.94694 28.24646,40.44542 4.7275,6.79446 9.26158,13.72348 13.88313,20.59165 -4.68987,6.48409 -9.37972,12.96818 -14.37686,19.55152 -4.970744,-6.07451 -9.81396,-12.12172 -14.264697,-18.44519 -14.558513,-20.68436 -29.010653,-41.44415 -43.355653,-62.27687 -0.87819,-1.27536 -1.27877,-3.9339 -0.54891,-5.10808 18.44836,-29.67993 37.07697,-59.24783 55.68665,-88.82741 0.25992,-0.41314 0.68179,-0.7244 1.34705,-1.18871 z"
     id="path6" /><path
     fill="#133c62"
     opacity="1"
     stroke="none"
     d="m 379.48935,-135.04551 c -0.0988,12.3622 -0.22735,24.35909 -0.0381,36.35096 0.0601,3.80697 -0.88971,5.55671 -5.02729,5.25553 -4.30877,-0.31363 -8.68188,0.18328 -12.97534,-0.22114 -1.34131,-0.12636 -3.59845,-2.02098 -3.60632,-3.11934 -0.17041,-23.65114 -0.0824,-47.30414 -0.0251,-70.95674 7.4e-4,-0.29775 0.2511,-0.59488 0.69959,-1.59151 8.59857,0 17.52862,-0.16566 26.43799,0.18907 1.25213,0.0498 2.85724,2.46001 3.52746,4.09407 4.53595,11.05945 8.85749,22.20676 13.26783,33.31795 0.64105,1.61504 1.3858,3.18889 2.84435,4.63084 0,-13.86944 0,-27.7389 0,-41.93566 7.16389,0 13.90284,0 21.14515,0 0.11346,1.67454 0.31543,3.28105 0.31701,4.88775 0.0211,21.65761 -0.0853,43.31609 0.0994,64.97212 0.0362,4.24756 -0.96393,6.0322 -5.54291,5.7549 -6.14154,-0.3719 -12.33111,-0.28744 -18.48352,-0.0196 -3.74957,0.16324 -5.65899,-1.1395 -6.99463,-4.71394 -4.12481,-11.03936 -8.59485,-21.95061 -13.00879,-32.8801 -0.62609,-1.55037 -1.68499,-2.92593 -2.63684,-4.01514 z"
     id="path7" /><path
     fill="#a8aaad"
     opacity="1"
     stroke="none"
     d="m 216.74637,-192.88734 c -0.008,-6.77964 -0.12274,-13.11263 0.0291,-19.43921 0.10241,-4.266 -1.78949,-6.17459 -5.97156,-6.02442 -1.16446,0.0418 -2.34833,0.12617 -3.49512,-0.0241 -4.3656,-0.57195 -5.94736,1.22697 -5.7533,5.63321 0.29288,6.65048 -0.0144,13.3252 0.11414,19.98613 0.0573,2.9716 -1.04816,4.27575 -4.06006,4.21237 -4.82882,-0.10164 -9.66162,-0.0599 -14.49225,-0.0195 -3.12646,0.0261 -4.51947,-1.42837 -4.51397,-4.57101 0.0381,-21.82266 0.0323,-43.64543 0.007,-65.46813 -0.003,-2.69185 1.08615,-3.90468 3.88803,-3.88515 13.3259,0.0929 26.75858,-0.96403 39.95102,0.37724 15.07312,1.53248 19.59134,11.27602 17.48999,26.33403 -0.48544,3.47886 -2.42728,6.75448 -3.89154,10.63396 4.10776,4.21363 4.67856,10.05405 4.43686,16.21793 -0.20868,5.32259 -0.15271,10.66283 -0.003,15.98936 0.0843,3.00115 -1.21508,4.3355 -4.07974,4.34692 -5.164,0.0206 -10.35364,0.29262 -15.47638,-0.1666 -1.48913,-0.13348 -2.78735,-2.39672 -4.17935,-4.13306 m -13.25884,-40.53114 c 2.30887,0.0506 4.63092,-0.0371 6.92386,0.18097 4.63623,0.44082 6.90704,-1.32457 6.35345,-6.18453 -0.16723,-1.4684 0.42151,-3.21866 -0.19284,-4.39063 -0.76068,-1.45104 -2.41113,-3.4295 -3.68081,-3.43215 -3.70505,-0.008 -7.41224,0.85228 -11.11527,1.39448 -0.0546,0.008 -0.10626,0.30688 -0.0933,0.46462 0.31604,3.8696 0.64099,7.73847 1.80496,11.96725 z"
     id="path8" /><path
     fill="#a7a9ac"
     opacity="1"
     stroke="none"
     d="m 450.6301,-241.28525 c 6e-5,11.48115 0.006,22.4733 -0.002,33.46541 -0.006,9.42497 -5.51227,17.26851 -14.83984,18.14082 -10.84125,1.01388 -21.93244,1.01973 -32.7652,-0.0518 -9.1482,-0.90485 -14.54688,-8.66261 -14.58155,-17.92931 -0.0449,-11.99125 -0.0403,-23.98288 -0.003,-35.97417 0.0325,-10.43807 6.97205,-18.1942 17.33393,-18.65478 9.14135,-0.40632 18.32928,-0.42693 27.46978,-0.0177 11.02509,0.49365 17.3841,8.32413 17.38764,21.02146 m -28.8606,-6.16271 c -0.99987,-4.4e-4 -1.99981,-0.007 -2.99963,-3.1e-4 -6.50201,0.0434 -7.30365,0.78982 -7.32251,7.12948 -0.0298,9.99877 0.0791,19.99877 -0.0456,29.99607 -0.0558,4.4786 1.85565,6.49219 6.31537,6.19041 1.4931,-0.10102 3.00262,-0.0895 4.49762,-0.005 3.83374,0.21546 5.44598,-1.61652 5.42443,-5.37785 -0.062,-10.83174 -0.0477,-21.66415 -0.008,-32.4961 0.0124,-3.4105 -1.35919,-5.4005 -5.86133,-5.43621 z"
     id="path9" /><path
     fill="#103a60"
     opacity="1"
     stroke="none"
     d="m 106.35959,-122.35857 c 0,-15.78311 0,-31.06622 0,-46.59755 1.57001,-0.16814 2.67905,-0.38785 3.78851,-0.39018 11.8238,-0.025 23.64835,-0.0945 35.47135,0.006 12.31412,0.10498 19.89828,7.7663 19.91128,19.91841 0.0125,11.65731 -0.49063,23.34102 0.13068,34.96514 0.73532,13.75654 -9.27078,20.57039 -19.7005,20.84933 -11.98187,0.32045 -23.97916,0.0244 -35.96857,0.13135 -2.91244,0.026 -3.7099,-1.19594 -3.67254,-3.90295 0.11255,-8.15856 0.0401,-16.31968 0.0398,-24.9798 m 37.34009,-17.4856 c 0,-1.166 0,-2.33198 -3e-5,-3.49798 -3e-5,-11.15337 0.001,-11.02097 -11.21146,-10.93257 -3.73782,0.0295 -4.93341,1.35025 -4.8631,5.00518 0.18576,9.65749 -0.0716,19.32326 0.0958,28.98142 0.22635,13.06158 -2.64899,10.79675 11.36902,11.13844 3.4812,0.0848 4.72088,-1.2823 4.65835,-4.71544 -0.15161,-8.32574 -0.0488,-16.65609 -0.0486,-25.97905 z"
     id="path10" /><path
     fill="#123b62"
     opacity="1"
     stroke="none"
     d="m 623.53678,-133.35846 c 0,6.8226 0.003,13.14521 -6.1e-4,19.46783 -0.006,11.54857 -5.68171,18.8465 -17.12513,19.8732 -8.87164,0.79594 -17.98815,0.64877 -26.82598,-0.44769 -9.54285,-1.18392 -14.88129,-8.57032 -14.89698,-18.21837 -0.0203,-12.47881 -0.016,-24.95769 -0.002,-37.43653 0.0124,-10.6866 7.26733,-18.58522 18.10827,-19.13272 7.46796,-0.37715 14.97742,-0.29397 22.45477,-0.0313 8.82434,0.30995 19.20282,7.12779 18.34876,19.4569 -0.367,5.2989 -0.0615,10.6444 -0.0615,16.46872 m -37.1626,3.49905 c 10e-4,5.15605 0.0548,10.3128 -0.0142,15.46791 -0.0467,3.49202 1.42517,5.32051 5.04596,5.19656 1.66131,-0.0569 3.33044,-0.0859 4.98858,0.007 3.78461,0.21126 5.39026,-1.40045 5.34107,-5.29887 -0.14288,-11.30826 -0.20795,-22.62262 0.0175,-33.92818 0.10931,-5.48128 -3.30762,-5.71658 -7.18989,-5.76904 -6.50494,-0.0879 -8.08313,0.98131 -8.16516,5.86168 -0.0978,5.81972 -0.0236,11.64233 -0.0239,18.46324 z"
     id="path11" /><path
     fill="#a7a9ac"
     opacity="1"
     stroke="none"
     d="m 271.74689,-188.56994 c -5.53516,-1.35354 -10.95285,-1.98592 -15.5686,-4.2518 -5.18393,-2.54477 -7.67685,-7.60103 -7.66364,-13.64055 0.0375,-17.15294 0.091,-34.30668 -0.0539,-51.45848 -0.0292,-3.45752 0.98303,-4.79734 4.53366,-4.59824 4.48236,0.25132 9.00094,0.25894 13.48233,-6.4e-4 3.76449,-0.21804 4.92929,1.26416 4.89834,4.90811 -0.13305,15.65308 -0.0699,31.30796 -0.0493,46.96215 0.008,6.1378 0.36124,6.45423 6.53863,6.50178 9.38605,0.0723 9.56333,-0.10004 9.56449,-9.42725 0.002,-15.97722 4.9e-4,-31.95444 4.9e-4,-48.40708 7.31088,0 14.33465,0 21.86853,0 0.0793,1.79454 0.22332,3.56468 0.22534,5.33498 0.0178,15.48766 0.0103,30.97535 0.0103,46.46303 -3e-5,13.89978 -7.22574,21.26207 -21.3284,21.59225 -5.32623,0.12473 -10.65777,0.0214 -16.45831,0.0217 z"
     id="path12" /><path
     fill="#a9abad"
     opacity="1"
     stroke="none"
     d="m 129.32688,-241.26353 c 1.8e-4,11.15256 0.10013,21.81964 -0.0581,32.48288 -0.0491,3.30684 0.7356,4.68555 4.39737,4.71209 11.85632,0.0859 11.85461,0.23433 11.85559,-11.69412 3.1e-4,-3.66628 -0.30875,-7.37437 0.17123,-10.97707 0.17759,-1.33305 2.1424,-3.35356 3.41691,-3.45244 5.13537,-0.39842 10.32064,-0.10435 15.48517,-0.1964 2.78274,-0.0496 3.88012,1.17989 3.86779,3.90213 -0.0513,11.33195 0.0699,22.666 -0.14334,33.99416 -0.0247,1.31178 -1.73862,3.7169 -2.67166,3.71802 -14.47046,0.0173 -29.02344,0.5872 -43.38641,-0.77394 -11.69397,-1.10823 -16.52445,-8.20358 -16.52814,-19.92507 -0.004,-11.16555 -0.0367,-22.33126 0.01,-33.49661 0.0456,-11.01268 7.95368,-19.23679 19.039,-19.43139 11.99515,-0.21056 23.99774,0.0288 35.99481,-0.11538 3.4289,-0.0412 4.76575,1.11535 4.71708,4.61384 -0.16352,11.75708 0.93036,10.42772 -9.93335,10.4558 -8.47037,0.0219 -16.9408,0.004 -25.92783,0.004 -0.11651,2.17198 -0.21097,3.93207 -0.30566,6.17912 z"
     id="path13" /><path
     fill="#113b61"
     opacity="1"
     stroke="none"
     d="m 500.77121,-93.51282 c -2.3985,-2e-5 -4.33429,-2e-5 -7.14404,-2e-5 1.52179,-7.11812 2.80463,-13.39589 4.21137,-19.64577 3.86969,-17.19255 7.86328,-34.35768 11.62915,-51.57275 0.71838,-3.2838 1.88104,-4.83546 5.55248,-4.71606 8.15644,0.26522 16.32941,0.18696 24.49134,0.0278 2.97864,-0.0581 4.44293,0.76279 5.13482,3.89854 5.19379,23.53896 10.56965,47.03775 16.21863,72.00824 -4.20587,0 -8.03424,0.0296 -11.862,-0.005 -12.8833,-0.11792 -10.01104,1.51091 -12.52685,-10.56066 -0.47156,-2.26272 -0.92859,-4.52849 -1.52362,-7.43393 -2.60956,0 -5.21436,0 -7.81909,0 -2.48139,0 -4.96271,0 -7.72089,0 -0.96594,4.82416 -2.09509,9.33863 -2.71076,13.92203 -0.43139,3.21222 -1.95306,4.23764 -4.97131,4.11162 -3.49316,-0.14589 -6.99719,-0.0337 -10.95923,-0.0337 m 23.87073,-46.22768 c -0.81738,4.55811 -1.63476,9.11621 -2.50983,13.9957 3.52802,0 6.61914,0 10.18781,0 -1.65112,-8.41139 -3.24908,-16.55185 -4.84705,-24.69232 -0.22699,0.0344 -0.45404,0.0688 -0.68103,0.10315 -0.66125,3.25193 -1.32251,6.50386 -2.1499,10.59347 z"
     id="path14" /><path
     fill="#a7a9ac"
     opacity="1"
     stroke="none"
     d="m 343.08408,-213.08571 c -0.77094,6.05591 -1.25818,11.94645 -1.41528,17.84578 -0.17707,6.65072 -0.0479,6.65844 -6.57013,6.6681 -3.99311,0.006 -7.98645,-0.0325 -11.97925,0.003 -2.9928,0.0265 -4.55798,-1.02701 -4.54376,-4.3882 0.0923,-21.79547 0.0748,-43.59158 0.0168,-65.38728 -0.008,-2.95675 1.08655,-4.17268 4.11243,-4.1484 13.30923,0.10678 26.62515,-0.15198 39.92795,0.16729 10.63128,0.25516 17.86883,8.12387 17.89892,18.67067 0.009,3.32759 0.003,6.65522 10e-4,9.98284 -0.006,12.53275 -7.37103,20.02581 -20.05322,20.3004 -5.65369,0.12241 -11.31073,0.0878 -17.39569,0.28588 m 14.42523,-31.24648 c -1.2276,-1.32487 -2.32428,-3.60227 -3.70776,-3.7923 -3.83142,-0.52627 -7.78235,-0.18232 -11.77521,-0.18232 0,7.03904 0,13.38086 0,20.14658 4.01569,0 7.71399,0.44289 11.21442,-0.19662 1.62292,-0.29651 3.78845,-2.53488 4.08215,-4.18266 0.62909,-3.5296 0.2008,-7.24765 0.1864,-11.79268 z"
     id="path15" /><path
     fill="#133c62"
     opacity="1"
     stroke="none"
     d="m 307.76358,-95.35036 c -8.04077,-3.84668 -11.54394,-9.73027 -11.35168,-18.49396 0.37268,-16.98634 0.0969,-33.98668 0.12503,-50.98116 0.003,-2.03414 -0.74014,-4.56535 2.83582,-4.55627 16.64218,0.0422 33.28457,0.0187 50.31082,0.0187 0,5.1021 0,9.84011 0,15.18196 -8.76551,0 -17.38215,0.20154 -25.98264,-0.084 -4.38043,-0.14542 -5.85864,1.28503 -5.7128,5.69849 0.35678,10.79785 -1.13891,9.24601 9.30866,9.35083 4.66473,0.0468 9.33484,0.13304 13.99377,-0.0373 2.92774,-0.10701 4.33295,0.7316 4.13666,3.9218 -0.21368,3.4718 -0.0485,6.96694 -0.0485,11.01863 -2.14002,0.1781 -4.03907,0.44432 -5.94165,0.47283 -4.49756,0.0673 -9.00141,-0.10395 -13.49387,0.0615 -3.57718,0.13176 -8.37726,-1.87178 -7.98282,5.21292 0.43131,7.74635 1.49884,9.32647 8.86408,9.35237 6.83105,0.024 13.6632,0.0709 20.49298,-0.0227 3.12335,-0.0428 4.29834,1.0138 4.31061,4.3774 0.0413,11.34968 0.18658,11.34915 -11.23896,11.34915 -7.33099,0 -14.66815,0.17731 -21.99023,-0.0781 -3.43631,-0.11983 -6.84354,-1.07332 -10.63526,-1.76314 z"
     id="path16" /><path
     fill="#133c62"
     opacity="1"
     stroke="none"
     d="m 452.97031,-125.85936 c -19.58203,-3.33004 -21.61725,-5.80309 -20.97742,-25.15345 0.32941,-9.96292 7.27832,-17.70831 17.51807,-18.15092 12.10394,-0.52318 24.24786,-0.12284 36.78387,-0.12284 0,4.95713 0,9.67075 0,15.10494 -8.518,0 -17.10443,-0.0414 -25.6903,0.0139 -6.2088,0.04 -7.09949,1.18432 -6.94623,7.42122 0.0797,3.24288 1.52002,4.83704 4.59802,5.43451 6.52173,1.26598 13.01874,2.65932 19.52881,3.9858 7.85895,1.60133 11.72558,6.26338 11.75152,14.20959 0.01,2.99623 -0.27282,6.02236 0.0492,8.98361 1.36554,12.55796 -8.38245,20.1632 -19.32965,20.53122 -11.14032,0.3745 -22.30316,0.035 -33.4552,0.1281 -2.78064,0.0232 -3.88941,-1.00134 -3.83771,-3.8011 0.26605,-14.40628 -1.86835,-11.67326 11.20691,-11.91306 6.15692,-0.11293 12.31872,-0.0897 18.47607,0.0113 2.83136,0.0465 5.30487,-0.53491 5.19947,-3.81004 -0.11841,-3.67632 2.06591,-8.50254 -3.28772,-10.31598 -3.58991,-1.216 -7.45002,-1.63428 -11.58771,-2.55682 z"
     id="path17" /><path
     fill="#143d63"
     opacity="1"
     stroke="none"
     d="m 193.07572,-148.35778 c -6e-5,16.99408 -0.0832,33.48908 0.0652,49.982 0.0325,3.61009 -0.93719,5.23988 -4.78247,4.91568 -5.41531,-0.45659 -10.85714,-0.59908 -16.28763,-0.87586 -0.1842,-5.28195 -0.50805,-10.56341 -0.52725,-15.84596 -0.066,-18.1601 0.074,-36.32156 -0.10754,-54.48009 -0.0372,-3.71924 0.96942,-5.0066 4.75711,-4.78605 5.29876,0.3085 10.6289,0.0778 16.88269,0.0778 0,7.02393 0,13.76828 -6e-5,21.01248 z"
     id="path18" /><path
     fill="#143d63"
     opacity="1"
     stroke="none"
     d="m 530.50156,-184.04293 c 2.8512,-0.0792 5.86011,0.43691 7.75269,-0.78129 4.93963,-3.17949 6.00262,-3.53835 12.14978,-0.38335 -2.37781,10.51228 -12.96985,15.86314 -22.45002,11.12584 -5.2854,-2.64116 -9.92047,-4.98679 -15.08209,0.87422 -1.15295,1.30927 -6.13238,-0.75136 -9.45868,-1.27766 3.39386,-11.7278 12.32507,-16.07013 22.20062,-11.74367 1.51264,0.66267 3.02442,1.32725 4.8877,2.18591 z"
     id="path19" /><path
     fill="#9fa3a8"
     opacity="1"
     stroke="none"
     d="m -28.35342,-116.22103 c -4.85066,6.58101 -9.70134,13.16204 -14.89247,19.81778 -1.15486,-0.54526 -1.96927,-1.16524 -3.06288,-1.94972 4.57438,-6.75874 9.42799,-13.35298 14.95498,-20.01564 1.44907,0.67024 2.22472,1.40892 3.00037,2.14758 z"
     id="path20" /><path
     fill="#9ba0a6"
     opacity="1"
     stroke="none"
     d="m -43.643,-273.18213 c 5.27595,7.62998 10.22683,15.26036 14.99814,23.46376 -0.87522,1.18872 -1.57085,1.80443 -2.26648,2.42012 -5.11107,-7.43201 -10.22216,-14.86401 -15.44777,-22.61157 0.72065,-1.301 1.55586,-2.28646 2.71611,-3.27231 z"
     id="path21" /><path
     fill="#9ea2a7"
     opacity="1"
     stroke="none"
     d="m -8.49377,-98.45919 c 4.59968,-6.82057 9.24641,-13.29948 14.56283,-19.81907 1.2798,0.69476 1.88991,1.43019 2.5,2.1656 -4.85815,6.76582 -9.71632,13.53165 -14.81541,20.52582 -0.89407,-0.69132 -1.54723,-1.611 -2.24742,-2.87235 z"
     id="path22" /><path
     fill="#9ea2a7"
     opacity="1"
     stroke="none"
     d="m 6.63129,-247.35393 c -5.04521,-7.38392 -10.09044,-14.76783 -15.1312,-22.50042 0.36174,-1.05929 0.71903,-1.7699 1.39283,-2.51612 5.42068,7.29042 10.52484,14.61646 15.5684,22.58423 -0.6504,1.23858 -1.24022,1.83544 -1.83003,2.43231 z"
     id="path23" /><path
     fill="#a7a9ac"
     opacity="1"
     stroke="none"
     d="m -62.02533,-243.41158 c 4.90079,6.94877 9.80158,13.89754 14.69312,21.57426 -0.44832,1.60823 -0.81084,2.53746 -1.33797,3.36139 -7.50389,11.72861 -15.13137,23.38066 -22.42544,35.23793 -0.9348,1.5196 -1.01351,4.67134 -0.0483,6.08011 8.04754,11.74631 16.43291,23.26116 24.71633,34.84587 -5.0614,6.9252 -10.1228,13.85039 -15.62772,20.63997 -12.68644,-17.76425 -24.845539,-35.45221 -37.241123,-52.97285 -2.560337,-3.61893 -3.368247,-6.21013 -0.603866,-10.43401 11.57019,-17.67886 22.620359,-35.69764 33.923519,-53.55232 1.097,-1.73283 2.62407,-3.1934 3.9515,-4.78035 z"
     id="path25" /><path
     fill="#a6a8ac"
     opacity="1"
     stroke="none"
     d="m -42.85513,-215.55933 c 5.07652,7.16865 10.15303,14.3373 15.07257,22.0621 -2.30997,3.90546 -4.65678,7.15189 -6.51706,10.65657 -0.70811,1.33406 -0.9785,3.67217 -0.27162,4.84101 2.12561,3.5148 4.83055,6.67926 7.30949,9.98037 -4.84698,6.52988 -9.69397,13.05974 -15.23059,19.64582 -7.77485,-9.91022 -14.89784,-19.85036 -21.87706,-29.89045 -0.59005,-0.84883 -0.73794,-2.69538 -0.21416,-3.52395 7.1524,-11.31432 14.45945,-22.53086 21.72843,-33.77147 z"
     id="path26" /><path
     fill="#9ea2a7"
     opacity="1"
     stroke="none"
     d="m -12.11676,-145.38924 c 1.14487,0.84814 2.02445,1.8894 3.24617,2.96951 -4.80371,6.92603 -9.94957,13.8132 -15.63197,20.69425 -1.36781,-0.90482 -2.19905,-1.8035 -3.0303,-2.70218 5.05027,-6.92282 10.10055,-13.84565 15.4161,-20.96158 z"
     id="path31" /><path
     fill="#9ea2a7"
     opacity="1"
     stroke="none"
     d="m -9.30403,-222.04081 c -0.61684,1.29082 -1.31793,2.25427 -2.20314,3.52663 -5.13226,-7.04727 -10.0804,-14.40347 -15.01921,-22.49639 0.40923,-1.98187 0.80913,-3.227 1.20903,-4.47213 5.30968,7.70485 10.61937,15.40969 16.01332,23.44189 z"
     id="path32" /></g>
</svg>
