<?xml version="1.0" encoding="UTF-8" standalone="no"?>
<!-- Created with Inkscape (http://www.inkscape.org/) -->

<svg
   width="300"
   height="150"
   viewBox="0 0 79.374998 39.6875"
   version="1.1"
   id="svg1"
   inkscape:export-filename="bitmapvallle.svg"
   inkscape:export-xdpi="96"
   inkscape:export-ydpi="96"
   xmlns:inkscape="http://www.inkscape.org/namespaces/inkscape"
   xmlns:sodipodi="http://sodipodi.sourceforge.net/DTD/sodipodi-0.dtd"
   xmlns="http://www.w3.org/2000/svg"
   xmlns:svg="http://www.w3.org/2000/svg">
  <sodipodi:namedview
     id="namedview1"
     pagecolor="#ffffff"
     bordercolor="#000000"
     borderopacity="0.25"
     inkscape:showpageshadow="2"
     inkscape:pageopacity="0.0"
     inkscape:pagecheckerboard="0"
     inkscape:deskcolor="#d1d1d1"
     inkscape:document-units="mm">
    <inkscape:page
       x="0"
       y="0"
       width="79.375"
       height="39.6875"
       id="page2"
       margin="0"
       bleed="0" />
  </sodipodi:namedview>
  <defs
     id="defs1" />
  <g
     inkscape:label="Camada 1"
     inkscape:groupmode="layer"
     id="layer1">
    <g
       id="g3"
       transform="matrix(0.26458333,0,0,0.26458333,-0.11832696,-3.8005443e-7)">
      <path
         style="fill:#f89e3e;stroke-width:0.324656"
         d="m 24.182154,111.76186 c -3.84662,-2.18038 -13.14281,-10.61278 -13.14281,-11.921597 0,-1.23281 5.68661,-7.150633 13.13019,-13.664063 13.8872,-12.15184 31.47247,-22.7386 48.38619,-29.129649 6.32574,-2.39026 7.94304,-2.781806 8.98092,-1.76294 0.64404,0.632246 1.61979,1.796153 1.24845,2.322921 -0.58188,0.825411 -1.96314,2.105694 -6.71,6.468658 -12.64276,12.429659 -25.96015,23.276058 -41.31504,43.15225 -3.38869,4.3865 -5.05676,6.7857 -5.6168,6.77989 -0.56004,-0.006 -2.79253,-1.01627 -4.9611,-2.24547 z"
         id="path70"
         sodipodi:nodetypes="sssssscscs" />
      <path
         style="fill:#0071b4;stroke-width:0.324656"
         d="m 45.413774,116.24711 c 0,-1.44962 9.78592,-18.767902 14.82322,-26.232862 5.90006,-8.74351 15.69377,-20.37826 20.56714,-24.4334 l 3.96377,-3.29826 1.01394,3.73635 c 0.5961,2.19661 0.84352,7.05209 0.60041,11.78236 -0.35485,6.90446 -0.84914,8.95561 -3.48386,14.4571 -6.52191,13.618212 -18.09592,22.307512 -32.30081,24.250152 -3.63394,0.49698 -5.18381,0.41881 -5.18381,-0.26144 z M 155.81339,82.898098 V 56.174379 h 3.50475 c 2.91675,0 3.50475,0.29303 3.50475,1.74659 0,1.55781 0.42574,1.42162 3.93884,-1.25999 13.03357,-9.94876 31.99243,0.93843 31.95705,18.351439 -0.0246,12.09124 -9.44064,21.59176 -21.39982,21.59176 -4.50521,0 -10.98369,-2.36721 -12.29787,-4.49359 -1.54971,-2.50749 -2.1982,-0.0556 -2.1982,8.311272 v 9.19997 h -3.50475 -3.50475 z m 28.70315,3.94758 c 4.74185,-2.89114 6.48895,-6.57306 6.13174,-12.92227 -0.27139,-4.82387 -0.65763,-5.83094 -3.2701,-8.52632 -11.61021,-11.978689 -30.40771,1.28011 -22.84145,16.1112 0.94261,1.84767 3.0126,4.19103 4.59998,5.20746 3.88096,2.48505 11.41276,2.54869 15.37983,0.12993 z m -72.98454,7.98744 c -4.40243,-1.99977 -10.6073,-8.92233 -11.779346,-13.14182 -3.29912,-11.8772 2.722676,-23.877269 13.891696,-27.682939 2.16092,-0.7363 5.16715,-1.33873 6.6805,-1.33873 4.87784,0 11.32866,2.48167 14.8609,5.71708 l 3.42649,3.138539 -12.94881,12.97043 c -14.13096,14.15456 -14.11018,14.09765 -5.14835,14.09765 4.94753,0 9.90751,-2.128 11.47074,-4.92133 0.61808,-1.10446 1.2409,-1.05765 4.53356,0.34074 l 3.81703,1.6211 -3.26956,3.61902 c -1.79825,1.99045 -4.94611,4.43062 -6.99524,5.42258 -4.83843,2.34225 -13.56691,2.41648 -18.53961,0.15768 z m 6.5009,-23.73595 c 8.68762,-9.32544 8.88534,-9.6275 6.66634,-10.18443 -3.39917,-0.853139 -9.17024,0.1634 -11.74319,2.06849 -4.32166,3.1999 -6.20917,7.02979 -6.20917,12.59885 0,3.68482 0.3282,5.12756 1.16643,5.12756 0.64153,0 5.19535,-4.32472 10.11959,-9.61047 z m 24.63767,4.79143 V 56.174379 h 3.94285 3.94284 v 19.714219 19.71423 h -3.94284 -3.94285 z M 4.8875938,87.498088 c -0.77977,-2.52999 -1.67902,-6.43225 -1.99835,-8.67168 l -0.58058,-4.0717 6.19749,-3.68186 C 20.703524,63.826528 44.984894,54.251209 61.930734,50.004969 c 2.09673,-0.52539 3.63545,-1.13205 3.41937,-1.34813 -0.70663,-0.70663 -21.89875,1.39483 -32.01227,3.17441 -5.43701,0.9567 -13.56062,2.91671 -18.05247,4.35557 -4.49185,1.43887 -8.4299402,2.61613 -8.7513202,2.61613 -0.32138,0 0.26159,-1.65813 1.29548,-3.68473 2.3896302,-4.68406 10.6607302,-13.38988 15.3114802,-16.116221 17.33325,-10.16102 39.79051,-6.75749 52.77976,7.999091 l 3.72989,4.23737 -9.01371,3.23033 c -24.19075,8.669469 -42.01984,18.749739 -58.21486,32.913699 -2.9654802,2.59357 -5.5548902,4.71559 -5.7542502,4.71559 -0.19937,0 -1.00047,-2.07 -1.78024,-4.59999 z M 143.17125,48.664199 c -3.09548,-3.09548 -0.62896,-9.137381 3.73021,-9.137381 2.50782,0 5.40718,2.980991 5.40718,5.559421 0,4.22447 -6.10164,6.61371 -9.13739,3.57796 z"
         id="path65"
         sodipodi:nodetypes="ssscsssssccsssssssccccssssssssssscsssscssssssssscccccccccsscssssssssscssssssss" />
      <path
         id="path95"
         style="font-weight:bold;font-size:13.7273px;font-family:'Open Sans';-inkscape-font-specification:'Open Sans, Bold';fill:#0071b4;fill-opacity:1;stroke-width:1.14394"
         d="m 261.44516,57.858936 c -1.06797,0 -1.94801,0.20748 -2.64063,0.62305 -0.69262,0.41557 -1.20587,1.00068 -1.54101,1.75586 -0.33067,0.75071 -0.49609,1.63408 -0.49609,2.64844 0,1.01435 0.16542,1.90051 0.49609,2.66015 0.33514,0.75965 0.84701,1.3495 1.53515,1.76954 0.69263,0.42004 1.56931,0.63086 2.63282,0.63086 1.06797,0 1.94661,-0.21082 2.63476,-0.63086 0.68816,-0.42004 1.19667,-1.00654 1.52735,-1.76172 0.33514,-0.75965 0.5039,-1.64441 0.5039,-2.6543 0,-1.01882 -0.16876,-1.90693 -0.5039,-2.66211 -0.33068,-0.75518 -0.83919,-1.34029 -1.52735,-1.75586 -0.68368,-0.41557 -1.55758,-0.62305 -2.62109,-0.62305 z m -47.9375,0.0137 c -1.02329,0 -1.83342,0.2448 -2.42773,0.73633 -0.59432,0.48707 -0.89063,1.17048 -0.89063,2.05078 0,0.44686 0.0766,0.83257 0.22852,1.1543 0.15639,0.31727 0.3544,0.58712 0.5957,0.81055 0.2413,0.22342 0.49556,0.41391 0.76367,0.57031 0.26811,0.15193 0.51625,0.28143 0.74414,0.38867 0.36195,0.17427 0.68668,0.33635 0.97266,0.48828 0.29045,0.15193 0.51825,0.31597 0.68359,0.49024 0.16533,0.17427 0.24805,0.38314 0.24805,0.6289 0,0.29939 -0.10917,0.54753 -0.32813,0.74414 -0.21448,0.19662 -0.57652,0.29493 -1.08593,0.29493 -0.49154,0 -0.98781,-0.0827 -1.48829,-0.24805 -0.50048,-0.16534 -0.98253,-0.34914 -1.44726,-0.55469 v 1.92969 c 0.80881,0.39323 1.73227,0.58984 2.77344,0.58984 1.15287,0 2.04237,-0.2576 2.66797,-0.77148 0.63006,-0.51388 0.94531,-1.20815 0.94531,-2.08399 0,-0.51388 -0.095,-0.94303 -0.28711,-1.2871 -0.19215,-0.34855 -0.46673,-0.6496 -0.82422,-0.9043 -0.35301,-0.25918 -0.78078,-0.50731 -1.28125,-0.74414 -0.61665,-0.29492 -1.07839,-0.54167 -1.38672,-0.73828 -0.30833,-0.20108 -0.46289,-0.47568 -0.46289,-0.82422 0,-0.29492 0.10443,-0.53359 0.31445,-0.7168 0.21002,-0.18321 0.51107,-0.27539 0.9043,-0.27539 0.37089,0 0.73627,0.0515 1.09375,0.1543 0.35749,0.0983 0.76157,0.23866 1.21289,0.42187 l 0.66992,-1.61523 c -0.50494,-0.22343 -0.99035,-0.39358 -1.45508,-0.50977 -0.46025,-0.12065 -0.94371,-0.17968 -1.45312,-0.17968 z m 39.10937,0 c -0.98754,0 -1.82357,0.21695 -2.51171,0.6504 -0.68369,0.42897 -1.20363,1.02355 -1.55665,1.7832 -0.35301,0.75965 -0.52929,1.6316 -0.52929,2.61914 0,1.00542 0.15595,1.8874 0.46875,2.64258 0.3128,0.75071 0.79347,1.33582 1.4414,1.75586 0.47815,0.30457 1.05445,0.49482 1.72461,0.57617 l -0.47656,0.94531 c 0.41111,0.0581 0.69795,0.15166 0.86328,0.28125 0.16534,0.12959 0.24805,0.27607 0.24805,0.44141 0,0.15639 -0.0482,0.26417 -0.14648,0.32226 -0.0938,0.0626 -0.20636,0.0937 -0.33594,0.0937 -0.13406,0 -0.29474,-0.0156 -0.48242,-0.0469 -0.18768,-0.0313 -0.34698,-0.0625 -0.47657,-0.0937 v 1.12696 c 0.12959,0.0402 0.27664,0.0728 0.4375,0.0996 0.16088,0.0268 0.34189,0.041 0.54297,0.041 0.782,-1e-5 1.32171,-0.14371 1.6211,-0.42969 0.29939,-0.28152 0.44921,-0.67948 0.44921,-1.19336 0,-0.33514 -0.11251,-0.60639 -0.33593,-0.81641 -0.22343,-0.21002 -0.47296,-0.35985 -0.75,-0.44922 l 0.13086,-0.29687 c 0.31746,-0.0182 0.62072,-0.0472 0.89453,-0.0996 0.42004,-0.076 0.8478,-0.20407 1.28125,-0.38281 v -1.74219 c -0.4692,0.16533 -0.90643,0.29344 -1.3086,0.38281 -0.39769,0.0894 -0.79566,0.13281 -1.19336,0.13281 -0.85796,0 -1.48177,-0.28545 -1.875,-0.85742 -0.38876,-0.57197 -0.58398,-1.37875 -0.58398,-2.41992 0,-1.02776 0.21082,-1.84067 0.63086,-2.43945 0.42451,-0.59879 1.03272,-0.89844 1.82812,-0.89844 0.35748,0 0.72287,0.0657 1.09375,0.19531 0.37089,0.12959 0.73905,0.28081 1.10547,0.45508 l 0.66992,-1.68945 c -0.44685,-0.21449 -0.91471,-0.38131 -1.40624,-0.50196 -0.48708,-0.12511 -0.97583,-0.1875 -1.4629,-0.1875 z m 18.33985,0 c -1.02329,0 -1.83147,0.2448 -2.42578,0.73633 -0.59432,0.48707 -0.89258,1.17048 -0.89258,2.05078 0,0.44686 0.0766,0.83257 0.22851,1.1543 0.1564,0.31727 0.35441,0.58712 0.59571,0.81055 0.2413,0.22342 0.49751,0.41391 0.76562,0.57031 0.26811,0.15193 0.5143,0.28143 0.74219,0.38867 0.36195,0.17427 0.68667,0.33635 0.97266,0.48828 0.29045,0.15193 0.51826,0.31597 0.68359,0.49024 0.16533,0.17427 0.24805,0.38314 0.24805,0.6289 0,0.29939 -0.10917,0.54753 -0.32813,0.74414 -0.21449,0.19662 -0.57653,0.29493 -1.08594,0.29493 -0.49154,0 -0.9878,-0.0827 -1.48828,-0.24805 -0.50047,-0.16534 -0.98254,-0.34914 -1.44726,-0.55469 v 1.92969 c 0.8088,0.39323 1.73422,0.58984 2.77539,0.58984 1.15288,0 2.04042,-0.2576 2.66601,-0.77148 0.63006,-0.51388 0.94532,-1.20815 0.94532,-2.08399 0,-0.51388 -0.095,-0.94303 -0.28711,-1.2871 -0.19215,-0.34855 -0.46674,-0.6496 -0.82422,-0.9043 -0.35302,-0.25918 -0.78078,-0.50731 -1.28125,-0.74414 -0.61666,-0.29492 -1.07839,-0.54167 -1.38672,-0.73828 -0.30833,-0.20109 -0.46289,-0.47568 -0.46289,-0.82422 0,-0.29492 0.10443,-0.53359 0.31445,-0.7168 0.21002,-0.18321 0.51302,-0.27539 0.90625,-0.27539 0.37089,0 0.73432,0.0515 1.0918,0.1543 0.35748,0.0983 0.76157,0.23866 1.21289,0.42187 l 0.66992,-1.61523 c -0.50494,-0.22343 -0.9884,-0.39359 -1.45312,-0.50977 -0.46026,-0.12065 -0.94567,-0.17969 -1.45508,-0.17969 z m -52.7168,0.14063 v 9.79883 h 5.64258 v -1.71485 h -3.56445 v -2.52734 h 3.3164 v -1.70312 h -3.3164 v -2.1504 h 3.56445 v -1.70312 z m 7.6875,0 v 9.79883 h 2.07813 v -3.75977 h 1.10546 l 2.33985,3.75977 h 2.30469 l -2.88086,-4.26953 c 0.32173,-0.14746 0.62139,-0.33795 0.89843,-0.57032 0.27706,-0.23236 0.50013,-0.51447 0.66993,-0.84961 0.1698,-0.33513 0.2539,-0.72697 0.2539,-1.17382 0,-0.98755 -0.31998,-1.72248 -0.95898,-2.20508 -0.63454,-0.48707 -1.61899,-0.73047 -2.95508,-0.73047 z m 7.82813,0 3.32617,9.79883 h 2.26367 l 3.33203,-9.79883 h -2.09765 l -1.85743,5.83203 c -0.0313,0.10278 -0.0828,0.28992 -0.15429,0.5625 -0.067,0.26811 -0.13554,0.55217 -0.20704,0.85156 -0.067,0.29939 -0.11382,0.54753 -0.14062,0.74414 -0.0268,-0.19661 -0.0783,-0.44475 -0.1543,-0.74414 -0.0715,-0.30386 -0.14335,-0.59126 -0.21484,-0.85937 -0.0715,-0.27258 -0.12303,-0.45638 -0.1543,-0.55469 l -1.84375,-5.83203 z m 10.15625,0 v 9.79883 h 2.07617 v -9.79883 z m 35.34375,0 v 9.79883 h 2.77343 c 1.6891,0 3.00302,-0.4183 3.94141,-1.25391 0.94285,-0.84008 1.41406,-2.08493 1.41406,-3.73828 0,-1.0501 -0.20747,-1.93208 -0.62304,-2.64258 -0.41558,-0.71496 -1.00068,-1.25328 -1.75586,-1.61523 -0.75518,-0.36642 -1.64607,-0.54883 -2.67383,-0.54883 z m 10.16015,0 v 9.79883 h 5.64453 v -1.71485 h -3.5664 v -2.52734 h 3.31836 v -1.70312 h -3.31836 v -2.1504 h 3.5664 v -1.70312 z m -27.9707,1.57422 c 0.8803,0 1.51219,0.29492 1.89648,0.88476 0.3843,0.58985 0.57813,1.39998 0.57813,2.42774 0,1.02776 -0.19523,1.83593 -0.58399,2.42578 -0.38429,0.58538 -1.01953,0.87891 -1.90429,0.87891 -0.87136,0 -1.50325,-0.29353 -1.89649,-0.87891 -0.39322,-0.58985 -0.58984,-1.39802 -0.58984,-2.42578 0,-1.02776 0.19662,-1.83789 0.58984,-2.42774 0.3977,-0.58984 1.03433,-0.88476 1.91016,-0.88476 z m -33.43945,0.1289 h 0.6289 c 0.67028,0 1.16516,0.0983 1.48242,0.29493 0.32174,0.19661 0.48243,0.52746 0.48243,0.99218 0,0.44686 -0.14983,0.78522 -0.44922,1.01758 -0.29492,0.2279 -0.78646,0.3418 -1.47461,0.3418 h -0.66992 z m 53.32617,0 h 1.10742 c 0.90711,0 1.59665,0.25427 2.07031,0.76368 0.47814,0.50941 0.7168,1.30672 0.7168,2.39257 0,2.14936 -1.00005,3.22461 -3.00195,3.22461 h -0.89258 z m 4.16406,12.56055 c -0.0581,0.23683 -0.15362,0.41451 -0.2832,0.53516 -0.12512,0.11618 -0.25462,0.17578 -0.38867,0.17578 -0.21449,0 -0.43422,-0.0596 -0.66211,-0.17578 -0.22343,-0.11618 -0.45123,-0.23148 -0.6836,-0.34766 -0.23236,-0.11618 -0.47297,-0.17383 -0.71875,-0.17383 -0.47366,0 -0.88248,0.16682 -1.22656,0.50196 -0.34409,0.33067 -0.5421,0.85339 -0.5957,1.56836 h 0.99804 c 0.0581,-0.2413 0.15027,-0.41898 0.27539,-0.53516 0.12959,-0.12065 0.26383,-0.18164 0.40235,-0.18164 0.21449,0 0.43282,0.0577 0.65625,0.17383 0.22342,0.11618 0.45123,0.23482 0.68359,0.35547 0.23684,0.11618 0.4755,0.17382 0.7168,0.17382 0.46473,0 0.87216,-0.16681 1.2207,-0.50195 0.34857,-0.33961 0.54992,-0.86233 0.60352,-1.56836 z m 8.4375,2.74024 c -1.06797,0 -1.948,0.20942 -2.64062,0.625 -0.69263,0.41557 -1.20589,1.00068 -1.54102,1.75586 -0.33067,0.75071 -0.49609,1.63213 -0.49609,2.64648 0,1.01435 0.16542,1.90246 0.49609,2.66211 0.33513,0.75965 0.847,1.34949 1.53516,1.76953 0.69262,0.42004 1.5693,0.62891 2.63281,0.62891 1.06797,0 1.94661,-0.20887 2.63476,-0.62891 0.68816,-0.42004 1.19863,-1.00849 1.5293,-1.76367 0.33514,-0.75965 0.50195,-1.64441 0.50195,-2.6543 0,-1.01882 -0.16681,-1.90497 -0.50195,-2.66015 -0.33067,-0.75518 -0.84114,-1.34029 -1.5293,-1.75586 -0.68368,-0.41558 -1.55758,-0.625 -2.62109,-0.625 z m -18.29883,0.0137 c -0.98754,0 -1.82552,0.21694 -2.51367,0.65039 -0.68368,0.42898 -1.20167,1.02355 -1.55469,1.7832 -0.35301,0.75965 -0.52929,1.63355 -0.52929,2.62109 0,1.00542 0.15595,1.88545 0.46875,2.64063 0.3128,0.75071 0.79347,1.33582 1.4414,1.75586 0.47862,0.30487 1.05556,0.49496 1.72656,0.57617 l -0.47851,0.94531 c 0.4111,0.0581 0.69794,0.15167 0.86328,0.28125 0.16533,0.12959 0.24805,0.27803 0.24805,0.44336 0,0.1564 -0.0482,0.26417 -0.14649,0.32227 -0.0938,0.0626 -0.20635,0.0937 -0.33593,0.0937 -0.13406,0 -0.29475,-0.0156 -0.48243,-0.0469 -0.18768,-0.0313 -0.34697,-0.0625 -0.47656,-0.0937 v 1.125 c 0.12959,0.0402 0.27468,0.0747 0.43555,0.10156 0.16086,0.0268 0.34188,0.0391 0.54297,0.0391 0.78198,0 1.32365,-0.14175 1.62304,-0.42773 0.2994,-0.28152 0.44922,-0.67948 0.44922,-1.19336 0,-0.33514 -0.11251,-0.60834 -0.33593,-0.81836 -0.22343,-0.21002 -0.47296,-0.35985 -0.75,-0.44922 l 0.13085,-0.29492 c 0.31748,-0.0183 0.62073,-0.0472 0.89454,-0.0996 0.42004,-0.076 0.84585,-0.20408 1.27929,-0.38282 v -1.74218 c -0.46919,0.16533 -0.90447,0.29148 -1.30664,0.38086 -0.3977,0.0894 -0.79566,0.13476 -1.19336,0.13476 -0.85796,0 -1.48372,-0.28545 -1.87695,-0.85742 -0.38877,-0.57197 -0.58203,-1.37876 -0.58203,-2.41992 0,-1.02776 0.20886,-1.84067 0.6289,-2.43946 0.42451,-0.59878 1.03468,-0.89843 1.83008,-0.89843 0.35748,0 0.72287,0.0638 1.09375,0.19336 0.37089,0.12958 0.73905,0.28276 1.10547,0.45703 l 0.66992,-1.68946 c -0.44685,-0.21448 -0.91471,-0.38325 -1.40625,-0.5039 -0.48706,-0.12512 -0.97582,-0.1875 -1.46289,-0.1875 z m -11.4082,0.10156 -3.45703,9.83984 h 2.23828 l 0.71094,-2.33398 h 3.57226 l 0.71094,2.33398 h 2.23828 l -3.47265,-9.83984 z m 18.21875,0 -3.45899,9.83984 h 2.24024 l 0.70898,-2.33398 h 3.57227 l 0.71094,2.33398 h 2.23828 l -3.47071,-9.83984 z m -71.76563,0.0391 v 9.80078 h 2.07618 v -9.80078 z m 4.54297,0 v 9.80078 h 6.05274 v -1.7168 h -3.97461 v -8.08398 z m 7.68946,0 v 6.31445 c 0,1.09032 0.33835,1.96561 1.01757,2.62696 0.67922,0.66134 1.66702,0.99218 2.9629,0.99218 0.91157,0 1.66683,-0.15734 2.26562,-0.47461 0.60325,-0.31726 1.05273,-0.74641 1.34766,-1.28711 0.29938,-0.54515 0.44922,-1.15533 0.44922,-1.83007 v -6.3418 h -2.07227 v 5.98633 c 0,0.75965 -0.15261,1.3183 -0.46094,1.67578 -0.30386,0.35301 -0.79539,0.5293 -1.47461,0.5293 -0.64794,0 -1.13808,-0.16208 -1.46875,-0.48829 -0.33067,-0.3262 -0.49609,-0.89432 -0.49609,-1.70312 v -6 z m 10.4414,0 v 9.80078 h 1.85742 v -4.55859 c 0,-0.33514 -0.009,-0.70943 -0.0273,-1.125 -0.0179,-0.41558 -0.0382,-0.80741 -0.0605,-1.17383 -0.0179,-0.37089 -0.0301,-0.64882 -0.0391,-0.83203 h 0.0606 l 2.35937,7.68945 h 1.90235 l 2.52734,-7.67578 h 0.0606 l -0.041,0.82422 c -0.0179,0.36195 -0.0335,0.74432 -0.0469,1.14648 -0.009,0.40217 -0.0117,0.75808 -0.0117,1.06641 v 4.63867 h 1.93555 v -9.80078 h -2.82813 l -2.45898,7.49414 h -0.041 l -2.31836,-7.49414 z m 12.94336,0 v 9.80078 h 2.07813 v -9.80078 z m 4.54492,0 v 9.80078 h 1.85743 v -4.61133 c -0.0179,-0.46472 -0.0382,-0.93315 -0.0606,-1.40234 -0.0223,-0.4692 -0.046,-0.93567 -0.0684,-1.40039 h 0.0605 l 4.26367,7.41406 h 2.64062 v -9.80078 h -1.86914 v 4.63867 c 0.0134,0.45132 0.029,0.9022 0.0469,1.35352 0.0179,0.44685 0.0349,0.89633 0.0527,1.34765 h -0.0469 l -4.25586,-7.33984 z m 14.66602,1.48242 c 0.0447,0.18321 0.10233,0.40016 0.17383,0.65039 0.076,0.24577 0.14921,0.48917 0.2207,0.73047 0.076,0.23683 0.13697,0.4301 0.18164,0.58203 l 0.71094,2.2793 h -2.55469 l 0.70508,-2.2793 c 0.0313,-0.10277 0.0828,-0.27432 0.1543,-0.51562 0.0715,-0.2413 0.14473,-0.49556 0.2207,-0.76367 0.0805,-0.27258 0.14283,-0.50039 0.1875,-0.6836 z m 18.21875,0 c 0.0447,0.18321 0.10233,0.40016 0.17383,0.65039 0.076,0.24577 0.1492,0.48917 0.2207,0.73047 0.076,0.23683 0.13697,0.4301 0.18164,0.58203 l 0.70899,2.2793 h -2.55274 l 0.70313,-2.2793 c 0.0313,-0.10277 0.0828,-0.27432 0.15429,-0.51562 0.0715,-0.2413 0.14474,-0.49556 0.22071,-0.76367 0.0804,-0.27258 0.14478,-0.50039 0.18945,-0.6836 z m 10.20703,0.0937 c 0.8803,0 1.51219,0.29492 1.89649,0.88477 0.38429,0.58984 0.57812,1.39802 0.57812,2.42578 0,1.02776 -0.19522,1.83594 -0.58398,2.42578 -0.3843,0.58538 -1.01953,0.87891 -1.9043,0.87891 -0.87137,0 -1.50326,-0.29353 -1.89649,-0.87891 -0.39323,-0.58984 -0.58984,-1.39802 -0.58984,-2.42578 0,-1.02776 0.19661,-1.83594 0.58984,-2.42578 0.3977,-0.58985 1.03433,-0.88477 1.91016,-0.88477 z" />
    </g>
  </g>
</svg>
