<?xml version="1.0" encoding="UTF-8" standalone="no"?>
<svg
   version="1.1"
   id="Layer_1"
   x="0px"
   y="0px"
   width="300"
   viewBox="0 0 300 150"
   enable-background="new 0 0 960 720"
   xml:space="preserve"
   sodipodi:docname="projeto_logos2.svg"
   height="150"
   inkscape:version="1.4 (e7c3feb100, 2024-10-09)"
   inkscape:export-filename="../../LUANOVA2.svg"
   inkscape:export-xdpi="96"
   inkscape:export-ydpi="96"
   xmlns:inkscape="http://www.inkscape.org/namespaces/inkscape"
   xmlns:sodipodi="http://sodipodi.sourceforge.net/DTD/sodipodi-0.dtd"
   xmlns="http://www.w3.org/2000/svg"
   xmlns:svg="http://www.w3.org/2000/svg"><defs
   id="defs37" /><sodipodi:namedview
   id="namedview37"
   pagecolor="#ffffff"
   bordercolor="#000000"
   borderopacity="0.25"
   inkscape:showpageshadow="2"
   inkscape:pageopacity="0.0"
   inkscape:pagecheckerboard="0"
   inkscape:deskcolor="#d1d1d1"
   showgrid="false"
   inkscape:zoom="2"
   inkscape:cx="135"
   inkscape:cy="58.25"
   inkscape:window-width="1920"
   inkscape:window-height="992"
   inkscape:window-x="1920"
   inkscape:window-y="0"
   inkscape:window-maximized="1"
   inkscape:current-layer="g4"
   showguides="true"><sodipodi:guide
     position="196.625,119"
     orientation="1,0"
     id="guide13"
     inkscape:locked="false" /><sodipodi:guide
     position="126.16504,117.58348"
     orientation="0,-1"
     id="guide15"
     inkscape:locked="false" /><sodipodi:guide
     position="146,83"
     orientation="0,-1"
     id="guide16"
     inkscape:locked="false" /><sodipodi:guide
     position="109.67535,43.551208"
     orientation="1,0"
     id="guide5"
     inkscape:locked="false" /><inkscape:page
     x="0"
     y="0"
     width="300"
     height="150"
     id="page2"
     margin="0"
     bleed="0" /></sodipodi:namedview>





































<g
   id="g1"
   transform="matrix(0.16666667,0,0,0.16666667,74.833332,-0.16666817)"><path
     fill="#b39571"
     opacity="1"
     stroke="none"
     d="M 418,901 H 1 V 1 H 901 V 901 H 418 m 14.85779,-515.37518 c 19.12445,11.04471 38.24893,22.08941 58.44189,33.75122 0,-2.94135 9e-5,-4.69348 0,-6.44562 -0.002,-35.9848 -0.006,-71.96957 -0.003,-107.95438 1.8e-4,-2.33184 -0.0983,-4.67639 0.10171,-6.99319 0.58917,-6.82486 3.67947,-8.68738 9.62207,-5.49436 6.30384,3.38718 12.68512,6.7688 18.45459,10.95026 2.66449,1.93103 4.62744,5.54071 5.67743,8.78738 1.0365,3.2049 0.6568,6.91202 0.66235,10.39918 0.0525,32.98571 0.14734,65.97186 0.023,98.95712 -0.0466,12.35733 4.93427,21.06503 15.95765,27.13266 19.9848,11.00021 39.58545,22.69809 59.35693,34.08649 1.36877,0.78842 2.82446,1.42584 5.00098,2.51412 0,-2.83926 2.4e-4,-4.80014 0,-6.76098 -0.008,-62.97339 -0.0124,-125.94678 -0.0302,-188.92017 -10e-4,-5.16382 -0.004,-10.33035 -0.16137,-15.4909 -0.27881,-9.16321 -4.06195,-16.28122 -12.20661,-20.96257 -29.31042,-16.84697 -58.58038,-33.76407 -87.8652,-50.65548 -9.65881,-5.57119 -19.38318,-5.4821 -28.96726,0.0127 -18.05746,10.35294 -36.07369,20.77947 -54.02004,31.32354 -6.55042,3.84857 -10.47825,9.65269 -11.15476,17.3818 -0.31897,3.64412 -0.72623,7.29856 -0.73383,10.94904 -0.0632,30.32037 0.0812,60.64166 -0.1029,90.96106 -0.0824,13.5603 4.5274,24.03161 17.39764,29.8959 1.35916,0.61926 2.61985,1.45456 4.5492,2.57514 m -11.23252,33.29107 c -7.92627,-4.58969 -15.50091,-9.99435 -23.85275,-13.59771 -16.86987,-7.27838 -22.06341,-19.7125 -21.48743,-37.45783 0.96674,-29.78259 0.0539,-59.62402 0.075,-89.44055 0.009,-13.16977 -5.89453,-22.15604 -17.43799,-28.50473 -19.54914,-10.75165 -38.70935,-22.21019 -58.04654,-33.34816 -1.33472,-0.76877 -2.78119,-1.34346 -4.84097,-2.32564 0,3.24513 -1.3e-4,5.56066 0,7.87616 0.002,46.14423 9e-5,92.28848 0.009,138.43271 0.004,18.65753 -0.18375,37.31857 0.12128,55.9714 0.21777,13.31995 4.45254,25.18055 16.54437,32.29026 26.70029,15.69922 53.77408,30.76446 80.43472,46.52936 12.58798,7.44351 24.22626,7.03027 36.59979,-0.43738 18.81714,-11.35657 38.02039,-22.07321 57.05002,-33.07828 1.23661,-0.71515 2.39099,-1.57248 4.2721,-2.8204 -23.32767,-13.47257 -46.06409,-26.6037 -69.44062,-40.08921"
     id="path1"
     sodipodi:nodetypes="ccccccccssssssssssccccssssssssccsscsscccssssscc" /><path
     fill="#fffffe"
     opacity="1"
     stroke="none"
     d="m 432.54633,385.43207 c -1.61789,-0.92783 -2.87858,-1.76313 -4.23774,-2.38239 -12.87024,-5.86429 -17.48001,-16.3356 -17.39764,-29.8959 0.18414,-30.3194 0.0397,-60.64069 0.1029,-90.96106 0.008,-3.65048 0.41486,-7.30492 0.73383,-10.94904 0.67651,-7.72911 4.60434,-13.53323 11.15476,-17.3818 17.94635,-10.54407 35.96258,-20.9706 54.02004,-31.32354 9.58408,-5.49484 19.30845,-5.58393 28.96726,-0.0127 29.28482,16.89141 58.55478,33.80851 87.8652,50.65548 8.14466,4.68135 11.9278,11.79936 12.20661,20.96257 0.1571,5.16055 0.15991,10.32708 0.16137,15.4909 0.0178,62.97339 0.0223,125.94678 0.0302,188.92017 2.4e-4,1.96084 0,3.92172 0,6.76098 -2.17652,-1.08828 -3.63221,-1.7257 -5.00098,-2.51412 -19.77148,-11.3884 -39.37213,-23.08628 -59.35693,-34.08649 -11.02338,-6.06763 -16.00428,-14.77533 -15.95765,-27.13266 0.12433,-32.98526 0.0295,-65.97141 -0.023,-98.95712 -0.006,-3.48716 0.37415,-7.19428 -0.66235,-10.39918 -1.04999,-3.24667 -3.01294,-6.85635 -5.67743,-8.78738 -5.76947,-4.18146 -12.15075,-7.56308 -18.45459,-10.95026 -5.9426,-3.19302 -9.0329,-1.3305 -9.62207,5.49436 -0.20001,2.3168 -0.10153,4.66135 -0.10171,6.99319 -0.003,35.98481 0.001,71.96958 0.003,107.95438 9e-5,1.75214 0,3.50427 0,6.44562 -20.19296,-11.66181 -39.31744,-22.70651 -58.75335,-33.94397 z"
     id="path2-6" /><path
     fill="#fffefe"
     opacity="1"
     stroke="none"
     d="m 421.94531,419.09308 c 23.05649,13.30832 45.79291,26.43945 69.12058,39.91202 -1.88111,1.24792 -3.03549,2.10525 -4.2721,2.8204 -19.02963,11.00507 -38.23288,21.72171 -57.05002,33.07828 -12.37353,7.46765 -24.01181,7.88089 -36.59979,0.43738 -26.66064,-15.7649 -53.73443,-30.83014 -80.43472,-46.52936 -12.09183,-7.10971 -16.3266,-18.97031 -16.54437,-32.29026 -0.30503,-18.65283 -0.11765,-37.31387 -0.12128,-55.9714 -0.009,-46.14423 -0.007,-92.28848 -0.009,-138.43271 -1.3e-4,-2.3155 0,-4.63103 0,-7.87616 2.05978,0.98218 3.50625,1.55687 4.84097,2.32564 19.33719,11.13797 38.4974,22.59651 58.04654,33.34816 11.54346,6.34869 17.44732,15.33496 17.43799,28.50473 -0.0211,29.81653 0.89175,59.65796 -0.075,89.44055 -0.57598,17.74533 4.61756,30.17945 21.48743,37.45783 8.35184,3.60336 15.92648,9.00802 24.17279,13.7749 z"
     id="path3-7" /><path
     fill="#b39674"
     opacity="1"
     stroke="none"
     d="m 522.58227,682.99939 c -7.65759,0.55878 -13.36483,-2.10577 -16.22171,-8.87042 -2.88946,-6.84186 -2.69241,-13.82453 2.40079,-19.74366 4.48395,-5.21112 10.39258,-6.34631 16.84308,-4.30816 6.87085,2.17102 10.83807,8.7005 10.50366,16.92511 -0.34387,8.45788 -4.64966,13.69867 -13.52582,15.99713 z"
     id="path22" /><path
     fill="#b2997c"
     opacity="1"
     stroke="none"
     d="m 658.35333,667.42401 c 1.64551,-4.36713 3.14246,-8.36737 5.22931,-13.94397 2.50043,6.93482 4.49603,12.46936 6.6817,18.53119 -4.68304,0 -8.5841,0 -13.11505,0 0.39404,-1.57562 0.72479,-2.89801 1.20404,-4.58722 z"
     id="path23" /><text
     xml:space="preserve"
     style="font-style:normal;font-variant:normal;font-weight:normal;font-stretch:normal;font-size:46.1401px;font-family:'Open Sans';-inkscape-font-specification:'Open Sans, Normal';font-variant-ligatures:normal;font-variant-caps:normal;font-variant-numeric:normal;font-variant-east-asian:normal;text-align:start;writing-mode:lr-tb;direction:ltr;text-anchor:start;fill:#ffffff;stroke-width:0.998689"
     x="172.07643"
     y="791.52679"
     id="text4"
     transform="scale(1.3296025,0.75210449)"><tspan
       sodipodi:role="line"
       id="tspan4"
       style="font-style:normal;font-variant:normal;font-weight:normal;font-stretch:normal;font-size:46.1401px;font-family:'Open Sans';-inkscape-font-specification:'Open Sans, Normal';font-variant-ligatures:normal;font-variant-caps:normal;font-variant-numeric:normal;font-variant-east-asian:normal;fill:#ffffff;stroke-width:0.998689"
       x="172.07643"
       y="791.52679">CONSTRUTORA</tspan></text><text
     xml:space="preserve"
     style="font-style:normal;font-variant:normal;font-weight:800;font-stretch:normal;font-size:98.5246px;font-family:'Open Sans';-inkscape-font-specification:'Open Sans, Ultra-Bold';font-variant-ligatures:normal;font-variant-caps:normal;font-variant-numeric:normal;font-variant-east-asian:normal;text-align:start;writing-mode:lr-tb;direction:ltr;text-anchor:start;fill:#ffffff;stroke-width:2.13254"
     x="140.76862"
     y="775.07916"
     id="text5"
     transform="scale(1.1016712,0.90771184)"><tspan
       sodipodi:role="line"
       id="tspan5"
       style="font-style:normal;font-variant:normal;font-weight:800;font-stretch:normal;font-size:98.5246px;font-family:'Open Sans';-inkscape-font-specification:'Open Sans, Ultra-Bold';font-variant-ligatures:normal;font-variant-caps:normal;font-variant-numeric:normal;font-variant-east-asian:normal;stroke-width:2.13254"
       x="140.76862"
       y="775.07916">LUA NOVA</tspan></text></g></svg>
