<svg version="1.1" id="Layer_1" xmlns="http://www.w3.org/2000/svg" xmlns:xlink="http://www.w3.org/1999/xlink" x="0px" y="0px"
	 width="100%" viewBox="0 0 354 80" enable-background="new 0 0 354 80" xml:space="preserve">
<path fill="#FFFFFF" opacity="1.000000" stroke="none" 
	d="
M238.000000,81.000000 
	C158.666672,81.000000 79.833351,81.000000 1.000021,81.000000 
	C1.000014,54.333347 1.000014,27.666693 1.000007,1.000028 
	C118.999969,1.000019 236.999939,1.000019 354.999939,1.000009 
	C354.999939,27.666636 354.999939,54.333271 354.999969,80.999954 
	C316.166656,81.000000 277.333344,81.000000 238.000000,81.000000 
M19.983276,47.356899 
	C20.026491,46.919212 20.069706,46.481525 20.783848,45.688007 
	C23.537844,37.828899 26.291840,29.969788 29.702869,22.203802 
	C30.524134,23.469263 31.345398,24.734726 32.027744,26.770164 
	C34.355675,34.063881 36.539742,41.407600 39.052292,48.637154 
	C41.528706,55.762722 44.337807,62.772667 47.899166,69.982056 
	C50.933285,69.932480 53.967400,69.882912 57.594608,69.857819 
	C57.597618,69.358521 57.600632,68.859215 57.861629,67.718651 
	C57.518864,67.145699 57.176098,66.572754 56.972260,65.230125 
	C55.228966,60.558304 53.485672,55.886478 51.850803,50.577839 
	C51.511646,50.051830 51.172489,49.525822 50.972260,48.229839 
	C48.562290,41.558109 46.152325,34.886379 43.850788,27.577835 
	C43.511635,27.051828 43.172485,26.525822 42.972286,25.230486 
	C41.351440,20.804764 39.730591,16.379044 37.992435,11.139321 
	C36.740150,10.426358 35.541786,9.250241 34.224354,9.096868 
	C31.483290,8.777754 28.669109,9.148293 25.903667,8.960384 
	C22.875624,8.754633 21.764172,10.162286 21.222536,13.297836 
	C15.042415,31.107376 8.932586,48.941929 2.612529,66.701675 
	C1.567236,69.639015 2.085453,70.396240 5.865831,69.982063 
	C7.910239,69.932487 9.954647,69.882912 12.732565,69.719604 
	C15.099488,62.479897 17.466410,55.240192 19.983276,47.356899 
M229.019867,21.661283 
	C229.068787,22.107353 229.117722,22.553423 229.017548,23.926300 
	C229.067245,38.955433 229.116959,53.984562 229.085892,69.536751 
	C229.384842,69.635612 229.683807,69.734482 230.876099,69.982086 
	C233.588623,69.932503 236.301147,69.882919 239.536728,69.914116 
	C239.635605,69.615158 239.734482,69.316200 239.982468,68.088303 
	C239.932755,49.054298 239.883057,30.020292 239.914093,10.463251 
	C239.615143,10.364391 239.316193,10.265532 238.090286,10.017615 
	C233.691788,10.011827 229.273407,9.769507 224.906235,10.136489 
	C223.495453,10.255040 222.219162,11.974224 220.224136,13.295761 
	C217.811600,19.762144 215.480759,26.260527 212.963715,32.685978 
	C210.405304,39.216976 207.663345,45.676079 204.463226,51.948627 
	C204.253265,51.632355 204.043304,51.316086 203.974991,50.266701 
	C203.234467,48.583103 202.493942,46.899509 201.856323,44.577366 
	C201.515320,44.051514 201.174332,43.525665 200.972900,42.239613 
	C199.896667,39.564766 198.820435,36.889923 197.851898,33.577911 
	C197.512375,33.051876 197.172852,32.525845 196.972900,31.239603 
	C195.896667,28.564760 194.820435,25.889917 193.851898,22.577904 
	C193.512375,22.051872 193.172867,21.525841 192.973907,20.248230 
	C192.019196,17.816595 191.064468,15.384957 189.992264,12.138224 
	C188.734650,11.425622 187.497955,10.147449 186.215759,10.100068 
	C181.147018,9.912764 176.064026,10.111248 170.463287,10.085896 
	C170.364410,10.384845 170.265533,10.683793 170.017548,11.911676 
	C170.067261,30.945683 170.116959,49.979687 170.085892,69.536751 
	C170.384842,69.635620 170.683807,69.734482 171.876099,69.982086 
	C174.588623,69.932510 177.301147,69.882927 180.536728,69.914116 
	C180.635605,69.615158 180.734467,69.316200 180.982452,68.088303 
	C181.023743,52.075459 181.065018,36.062614 181.652390,20.145674 
	C182.087448,20.468618 182.522507,20.791563 183.013504,21.568825 
	C183.013504,21.568825 183.166656,22.000189 183.027740,22.770163 
	C186.315247,32.195671 189.602753,41.621178 192.993073,51.706516 
	C193.384262,52.471073 193.775467,53.235634 194.027740,54.769787 
	C196.004349,59.551357 197.980957,64.332932 200.398331,69.838730 
	C202.655975,69.892395 204.923157,69.834763 207.168945,70.027039 
	C210.185394,70.285278 211.228699,68.786964 211.781235,65.691765 
	C211.936035,64.890709 211.992477,64.055069 212.260223,63.293743 
	C217.102768,49.523987 221.970764,35.763191 227.066040,21.439230 
	C227.766251,21.292896 228.466446,21.146563 229.019867,21.661283 
M346.525574,70.000000 
	C348.279785,70.000000 350.033966,70.000000 352.249969,70.000000 
	C350.773376,59.252853 355.105133,48.362644 347.329163,39.279675 
	C353.050293,34.034904 354.049622,27.763113 352.192474,20.517622 
	C350.467163,13.786493 345.258057,10.811895 339.527405,10.250174 
	C330.525940,9.367851 321.374481,10.015895 312.259918,10.015895 
	C312.259918,30.262665 312.259918,49.970318 312.259918,69.724106 
	C316.253723,69.724106 319.982056,69.724106 324.131104,69.724106 
	C324.131104,61.390465 324.131104,53.324085 324.131104,45.000137 
	C327.360809,45.000137 330.173828,44.844101 332.962769,45.036430 
	C337.227478,45.330532 340.612610,46.945621 341.011383,51.841961 
	C341.409729,56.733337 341.915009,61.635715 341.909943,66.532791 
	C341.906952,69.435577 342.845734,70.438080 346.525574,70.000000 
M143.820389,52.652218 
	C139.892273,59.919773 134.439926,62.603920 127.456734,60.810368 
	C121.805397,59.358894 118.622803,53.467987 118.871712,46.632294 
	C119.323883,34.214275 119.000000,21.767992 119.000000,9.271997 
	C114.759880,9.271997 111.029083,9.271997 107.002121,9.271997 
	C107.002121,23.999788 106.394638,38.493652 107.249237,52.900791 
	C107.700790,60.513275 112.167908,66.530960 120.307327,69.170349 
	C127.094589,71.371269 133.775330,71.525497 140.483765,69.736382 
	C148.096527,67.706093 154.254395,62.761299 154.728867,54.964928 
	C155.649567,39.836617 154.998215,24.612640 154.998215,9.231274 
	C151.843689,9.231274 148.113937,9.231274 143.982361,9.231274 
	C143.982361,23.573851 143.982361,37.688324 143.820389,52.652218 
M249.006119,69.962158 
	C250.338272,69.974777 251.717239,69.767456 252.994171,70.039383 
	C257.661438,71.033302 259.701050,68.781380 260.867279,64.546005 
	C262.705688,57.869583 264.860107,51.276707 267.006592,44.689480 
	C269.488647,37.072464 272.107086,29.499886 275.152496,20.465624 
	C276.571411,23.545206 277.444244,25.050293 277.980927,26.666971 
	C281.686127,37.828129 285.337952,49.007126 288.973846,60.191135 
	C292.246552,70.257782 292.227997,70.266243 302.839081,69.953957 
	C303.092285,69.946503 303.339111,69.722824 303.688690,69.550957 
	C302.977386,66.724327 302.466583,63.825554 301.519501,61.077110 
	C296.743561,47.217464 291.918304,33.374001 286.985596,19.569433 
	C282.328644,6.536544 286.131683,9.280316 271.884583,9.140548 
	C270.587677,9.127824 268.577515,10.823676 268.073486,12.166964 
	C263.885101,23.329557 259.898438,34.570053 256.002960,45.839600 
	C253.277267,53.725002 250.790283,61.692921 249.006119,69.962158 
M66.000000,58.482170 
	C66.000000,62.245079 66.000000,66.007988 66.000000,69.706276 
	C77.320107,69.706276 88.041313,69.706276 98.687744,69.706276 
	C98.687744,66.341484 98.687744,63.277603 98.687744,59.795120 
	C91.651558,59.795120 84.920235,59.795120 77.800232,59.795120 
	C77.800232,42.648560 77.800232,25.935581 77.800232,9.321218 
	C73.654129,9.321218 69.927353,9.321218 66.000000,9.321218 
	C66.000000,25.590544 66.000000,41.539562 66.000000,58.482170 
z"/>
<path fill="#00397F" opacity="1.000000" stroke="none" 
	d="
M203.833344,50.999813 
	C204.043304,51.316086 204.253265,51.632355 204.799957,52.391777 
	C207.584427,55.305740 208.165344,52.792000 208.731384,51.309570 
	C213.261307,39.446148 217.723236,27.556196 222.066589,15.623629 
	C222.305603,14.966956 221.304977,13.859063 220.881348,12.961203 
	C222.219162,11.974224 223.495453,10.255040 224.906235,10.136489 
	C229.273407,9.769507 233.691788,10.011827 238.645660,10.268449 
	C239.364670,10.738752 239.575455,10.894421 239.833344,10.986287 
	C239.883057,30.020292 239.932755,49.054298 239.731598,68.644669 
	C239.261246,69.364685 239.105576,69.575455 239.013672,69.833344 
	C236.301147,69.882919 233.588623,69.932503 230.337540,69.731400 
	C229.635300,69.261261 229.424530,69.105591 229.166656,69.013695 
	C229.116959,53.984562 229.067245,38.955433 229.372879,23.419220 
	C230.022324,22.593845 230.316452,22.275553 230.610565,21.957258 
	C230.129257,21.638247 229.647964,21.319239 229.166656,21.000229 
	C228.466446,21.146563 227.766251,21.292896 226.604187,21.794071 
	C224.724594,25.344740 223.175125,28.489607 221.914993,31.746414 
	C218.746964,39.934189 215.545471,48.116398 212.706146,56.420086 
	C211.668457,59.454773 211.615265,62.826084 211.112946,66.043823 
	C211.228699,68.786964 210.185394,70.285278 207.168945,70.027039 
	C204.923157,69.834763 202.655975,69.892395 200.184280,69.078011 
	C198.035706,63.544926 196.101181,58.772560 194.166656,54.000191 
	C193.775467,53.235634 193.384262,52.471073 193.212372,51.169907 
	C190.461197,41.271778 187.500580,31.907064 184.475266,22.563293 
	C184.378891,22.265562 183.617859,22.183033 183.166656,22.000187 
	C183.166656,22.000189 183.013504,21.568825 182.991638,20.980408 
	C182.335556,19.660570 181.701355,18.929150 181.067139,18.197725 
	C181.080200,18.815073 181.093246,19.432423 181.106293,20.049772 
	C181.065018,36.062614 181.023743,52.075459 180.731583,68.644669 
	C180.261246,69.364685 180.105576,69.575455 180.013672,69.833344 
	C177.301147,69.882927 174.588623,69.932510 171.337540,69.731400 
	C170.635300,69.261261 170.424530,69.105591 170.166656,69.013695 
	C170.116959,49.979687 170.067261,30.945683 170.268417,11.355326 
	C170.738770,10.635336 170.894455,10.424566 170.986328,10.166666 
	C176.064026,10.111248 181.147018,9.912764 186.215759,10.100068 
	C187.497955,10.147449 188.734650,11.425622 189.782562,12.748582 
	C190.659683,15.905897 191.746506,18.452854 192.833344,20.999809 
	C193.172867,21.525841 193.512375,22.051872 193.583374,23.283375 
	C194.487686,26.659168 195.660507,29.329489 196.833344,31.999809 
	C197.172852,32.525845 197.512375,33.051876 197.583374,34.283379 
	C198.487686,37.659164 199.660522,40.329487 200.833344,42.999809 
	C201.174332,43.525665 201.515320,44.051514 201.588684,45.264778 
	C202.158478,47.634727 202.995911,49.317268 203.833344,50.999813 
z"/>
<path fill="#00397F" opacity="1.000000" stroke="none" 
	d="
M346.053986,69.999954 
	C342.845734,70.438080 341.906952,69.435577 341.909943,66.532791 
	C341.915009,61.635715 341.409729,56.733337 341.011383,51.841961 
	C340.612610,46.945621 337.227478,45.330532 332.962769,45.036430 
	C330.173828,44.844101 327.360809,45.000137 324.131104,45.000137 
	C324.131104,53.324085 324.131104,61.390465 324.131104,69.724106 
	C319.982056,69.724106 316.253723,69.724106 312.259918,69.724106 
	C312.259918,49.970318 312.259918,30.262665 312.259918,10.015895 
	C321.374481,10.015895 330.525940,9.367851 339.527405,10.250174 
	C345.258057,10.811895 350.467163,13.786493 352.192474,20.517622 
	C354.049622,27.763113 353.050293,34.034904 347.329163,39.279675 
	C355.105133,48.362644 350.773376,59.252853 352.249969,70.000000 
	C350.033966,70.000000 348.279785,70.000000 346.053986,69.999954 
M335.242737,35.236065 
	C340.248810,32.268360 342.073273,28.666067 340.821259,24.490446 
	C339.649048,20.580952 333.983948,17.036411 324.357178,18.381708 
	C324.357178,24.219418 324.357178,30.064701 324.357178,35.826817 
	C328.025818,35.826817 331.336548,35.826817 335.242737,35.236065 
z"/>
<path fill="#00397F" opacity="1.000000" stroke="none" 
	d="
M143.901367,52.227509 
	C143.982361,37.688324 143.982361,23.573851 143.982361,9.231274 
	C148.113937,9.231274 151.843689,9.231274 154.998215,9.231274 
	C154.998215,24.612640 155.649567,39.836617 154.728867,54.964928 
	C154.254395,62.761299 148.096527,67.706093 140.483765,69.736382 
	C133.775330,71.525497 127.094589,71.371269 120.307327,69.170349 
	C112.167908,66.530960 107.700790,60.513275 107.249237,52.900791 
	C106.394638,38.493652 107.002121,23.999788 107.002121,9.271997 
	C111.029083,9.271997 114.759880,9.271997 119.000000,9.271997 
	C119.000000,21.767992 119.323883,34.214275 118.871712,46.632294 
	C118.622803,53.467987 121.805397,59.358894 127.456734,60.810368 
	C134.439926,62.603920 139.892273,59.919773 143.901367,52.227509 
z"/>
<path fill="#00397F" opacity="1.000000" stroke="none" 
	d="
M248.601410,69.793076 
	C250.790283,61.692921 253.277267,53.725002 256.002960,45.839600 
	C259.898438,34.570053 263.885101,23.329557 268.073486,12.166964 
	C268.577515,10.823676 270.587677,9.127824 271.884583,9.140548 
	C286.131683,9.280316 282.328644,6.536544 286.985596,19.569433 
	C291.918304,33.374001 296.743561,47.217464 301.519501,61.077110 
	C302.466583,63.825554 302.977386,66.724327 303.688690,69.550957 
	C303.339111,69.722824 303.092285,69.946503 302.839081,69.953957 
	C292.227997,70.266243 292.246552,70.257782 288.973846,60.191135 
	C285.337952,49.007126 281.686127,37.828129 277.980927,26.666971 
	C277.444244,25.050293 276.571411,23.545206 275.152496,20.465624 
	C272.107086,29.499886 269.488647,37.072464 267.006592,44.689480 
	C264.860107,51.276707 262.705688,57.869583 260.867279,64.546005 
	C259.701050,68.781380 257.661438,71.033302 252.994171,70.039383 
	C251.717239,69.767456 250.338272,69.974777 248.601410,69.793076 
z"/>
<path fill="#00397F" opacity="1.000000" stroke="none" 
	d="
M66.000000,57.985374 
	C66.000000,41.539562 66.000000,25.590544 66.000000,9.321218 
	C69.927353,9.321218 73.654129,9.321218 77.800232,9.321218 
	C77.800232,25.935581 77.800232,42.648560 77.800232,59.795120 
	C84.920235,59.795120 91.651558,59.795120 98.687744,59.795120 
	C98.687744,63.277603 98.687744,66.341484 98.687744,69.706276 
	C88.041313,69.706276 77.320107,69.706276 66.000000,69.706276 
	C66.000000,66.007988 66.000000,62.245079 66.000000,57.985374 
z"/>
<path fill="#00397F" opacity="1.000000" stroke="none" 
	d="
M50.833336,48.999809 
	C51.172489,49.525822 51.511646,50.051830 51.581367,51.290726 
	C53.152405,56.669010 54.992870,61.334404 56.833336,65.999802 
	C57.176098,66.572754 57.518864,67.145699 57.518341,68.384033 
	C57.117207,69.310722 57.059361,69.572029 57.001518,69.833344 
	C53.967400,69.882912 50.933285,69.932480 47.448730,69.514313 
	C42.597572,55.020767 38.208073,40.991402 33.745472,26.985321 
	C33.601986,26.534981 32.709820,26.323185 32.166664,26.000187 
	C31.345398,24.734726 30.524134,23.469263 29.225039,21.846672 
	C26.746609,19.238625 25.661421,20.265505 25.072443,22.580973 
	C23.503988,28.747080 21.933598,34.913902 20.491772,41.110180 
	C20.122267,42.698135 20.226391,44.396305 20.112921,46.043839 
	C20.069706,46.481525 20.026491,46.919212 19.563251,47.752808 
	C16.761835,55.376926 14.380445,62.605137 11.999056,69.833344 
	C9.954647,69.882912 7.910239,69.932487 5.433835,69.519402 
	C5.047291,68.397232 4.949957,67.688202 5.158990,67.085419 
	C11.001405,50.238026 16.906631,33.412224 22.662287,16.535387 
	C22.999140,15.547658 22.168598,14.161801 21.881321,12.961219 
	C21.764172,10.162286 22.875624,8.754633 25.903667,8.960384 
	C28.669109,9.148293 31.483290,8.777754 34.224354,9.096868 
	C35.541786,9.250241 36.740150,10.426358 37.780426,11.752966 
	C39.323391,16.911011 41.078365,21.455412 42.833336,25.999813 
	C43.172485,26.525822 43.511635,27.051828 43.581310,28.290928 
	C44.947258,34.438492 46.492535,39.902901 48.280624,45.286663 
	C48.735401,46.655945 49.961594,47.769016 50.833336,48.999809 
z"/>
<path fill="#00397F" opacity="1.000000" stroke="none" 
	d="
M21.551929,13.129528 
	C22.168598,14.161801 22.999140,15.547658 22.662287,16.535387 
	C16.906631,33.412224 11.001405,50.238026 5.158990,67.085419 
	C4.949957,67.688202 5.047291,68.397232 5.001163,69.445038 
	C2.085453,70.396240 1.567236,69.639015 2.612529,66.701675 
	C8.932586,48.941929 15.042415,31.107376 21.551929,13.129528 
z"/>
<path fill="#00397F" opacity="1.000000" stroke="none" 
	d="
M220.552734,13.128480 
	C221.304977,13.859063 222.305603,14.966956 222.066589,15.623629 
	C217.723236,27.556196 213.261307,39.446148 208.731384,51.309570 
	C208.165344,52.792000 207.584427,55.305740 205.069244,52.500793 
	C207.663345,45.676079 210.405304,39.216976 212.963715,32.685978 
	C215.480759,26.260527 217.811600,19.762144 220.552734,13.128480 
z"/>
<path fill="#00397F" opacity="1.000000" stroke="none" 
	d="
M211.447083,65.867798 
	C211.615265,62.826084 211.668457,59.454773 212.706146,56.420086 
	C215.545471,48.116398 218.746964,39.934189 221.914993,31.746414 
	C223.175125,28.489607 224.724594,25.344740 226.487839,22.074699 
	C221.970764,35.763191 217.102768,49.523987 212.260223,63.293743 
	C211.992477,64.055069 211.936035,64.890709 211.447083,65.867798 
z"/>
<path fill="#00397F" opacity="1.000000" stroke="none" 
	d="
M32.097206,26.385176 
	C32.709820,26.323185 33.601986,26.534981 33.745472,26.985321 
	C38.208073,40.991402 42.597572,55.020767 46.999619,69.439957 
	C44.337807,62.772667 41.528706,55.762722 39.052292,48.637154 
	C36.539742,41.407600 34.355675,34.063881 32.097206,26.385176 
z"/>
<path fill="#00397F" opacity="1.000000" stroke="none" 
	d="
M20.448383,45.865921 
	C20.226391,44.396305 20.122267,42.698135 20.491772,41.110180 
	C21.933598,34.913902 23.503988,28.747080 25.072443,22.580973 
	C25.661421,20.265505 26.746609,19.238625 28.896523,21.800110 
	C26.291840,29.969788 23.537844,37.828899 20.448383,45.865921 
z"/>
<path fill="#00397F" opacity="1.000000" stroke="none" 
	d="
M183.097198,22.385174 
	C183.617859,22.183033 184.378891,22.265562 184.475266,22.563293 
	C187.500580,31.907064 190.461197,41.271778 193.160980,50.839993 
	C189.602753,41.621178 186.315247,32.195671 183.097198,22.385174 
z"/>
<path fill="#00397F" opacity="1.000000" stroke="none" 
	d="
M12.365810,69.776474 
	C14.380445,62.605137 16.761835,55.376926 19.488277,48.074600 
	C17.466410,55.240192 15.099488,62.479897 12.365810,69.776474 
z"/>
<path fill="#00397F" opacity="1.000000" stroke="none" 
	d="
M50.902798,48.614822 
	C49.961594,47.769016 48.735401,46.655945 48.280624,45.286663 
	C46.492535,39.902901 44.947258,34.438492 43.527096,28.609333 
	C46.152325,34.886379 48.562290,41.558109 50.902798,48.614822 
z"/>
<path fill="#00397F" opacity="1.000000" stroke="none" 
	d="
M194.097198,54.384991 
	C196.101181,58.772560 198.035706,63.544926 199.963898,68.715897 
	C197.980957,64.332932 196.004349,59.551357 194.097198,54.384991 
z"/>
<path fill="#00397F" opacity="1.000000" stroke="none" 
	d="
M42.902809,25.615150 
	C41.078365,21.455412 39.323391,16.911011 37.839081,12.159966 
	C39.730591,16.379044 41.351440,20.804764 42.902809,25.615150 
z"/>
<path fill="#00397F" opacity="1.000000" stroke="none" 
	d="
M56.902798,65.614960 
	C54.992870,61.334404 53.152405,56.669010 51.527153,51.609135 
	C53.485672,55.886478 55.228966,60.558304 56.902798,65.614960 
z"/>
<path fill="#00397F" opacity="1.000000" stroke="none" 
	d="
M192.903625,20.624020 
	C191.746506,18.452854 190.659683,15.905897 189.841293,13.156131 
	C191.064468,15.384957 192.019196,17.816595 192.903625,20.624020 
z"/>
<path fill="#00397F" opacity="1.000000" stroke="none" 
	d="
M196.903122,31.619705 
	C195.660507,29.329489 194.487686,26.659168 193.529526,23.601959 
	C194.820435,25.889917 195.896667,28.564760 196.903122,31.619705 
z"/>
<path fill="#00397F" opacity="1.000000" stroke="none" 
	d="
M200.903122,42.619709 
	C199.660522,40.329487 198.487686,37.659164 197.529526,34.601959 
	C198.820435,36.889923 199.896667,39.564766 200.903122,42.619709 
z"/>
<path fill="#00397F" opacity="1.000000" stroke="none" 
	d="
M203.904175,50.633255 
	C202.995911,49.317268 202.158478,47.634727 201.537231,45.584053 
	C202.493942,46.899509 203.234467,48.583103 203.904175,50.633255 
z"/>
<path fill="#00397F" opacity="1.000000" stroke="none" 
	d="
M181.379333,20.097723 
	C181.093246,19.432423 181.080200,18.815073 181.067139,18.197725 
	C181.701355,18.929150 182.335556,19.660570 182.963654,20.753250 
	C182.522507,20.791563 182.087448,20.468618 181.379333,20.097723 
z"/>
<path fill="#00397F" opacity="1.000000" stroke="none" 
	d="
M229.093262,21.330757 
	C229.647964,21.319239 230.129257,21.638247 230.610565,21.957258 
	C230.316452,22.275553 230.022324,22.593845 229.447433,22.955816 
	C229.117722,22.553423 229.068787,22.107353 229.093262,21.330757 
z"/>
<path fill="#00397F" opacity="1.000000" stroke="none" 
	d="
M239.873718,10.724770 
	C239.575455,10.894421 239.364670,10.738752 239.109131,10.342977 
	C239.316193,10.265532 239.615143,10.364391 239.873718,10.724770 
z"/>
<path fill="#00397F" opacity="1.000000" stroke="none" 
	d="
M170.724808,10.126282 
	C170.894455,10.424566 170.738770,10.635336 170.342972,10.890858 
	C170.265533,10.683793 170.364410,10.384845 170.724808,10.126282 
z"/>
<path fill="#00397F" opacity="1.000000" stroke="none" 
	d="
M57.298065,69.845581 
	C57.059361,69.572029 57.117207,69.310722 57.389343,68.704666 
	C57.600632,68.859215 57.597618,69.358521 57.298065,69.845581 
z"/>
<path fill="#00397F" opacity="1.000000" stroke="none" 
	d="
M170.126282,69.275223 
	C170.424530,69.105591 170.635300,69.261261 170.890869,69.657028 
	C170.683807,69.734482 170.384842,69.635620 170.126282,69.275223 
z"/>
<path fill="#00397F" opacity="1.000000" stroke="none" 
	d="
M180.275208,69.873734 
	C180.105576,69.575455 180.261246,69.364685 180.657028,69.109138 
	C180.734467,69.316200 180.635605,69.615158 180.275208,69.873734 
z"/>
<path fill="#00397F" opacity="1.000000" stroke="none" 
	d="
M229.126282,69.275223 
	C229.424530,69.105591 229.635300,69.261261 229.890869,69.657028 
	C229.683807,69.734482 229.384842,69.635612 229.126282,69.275223 
z"/>
<path fill="#00397F" opacity="1.000000" stroke="none" 
	d="
M239.275208,69.873734 
	C239.105576,69.575455 239.261246,69.364685 239.657028,69.109138 
	C239.734482,69.316200 239.635605,69.615158 239.275208,69.873734 
z"/>
<path fill="#FFFFFF" opacity="1.000000" stroke="none" 
	d="
M334.945007,35.531441 
	C331.336548,35.826817 328.025818,35.826817 324.357178,35.826817 
	C324.357178,30.064701 324.357178,24.219418 324.357178,18.381708 
	C333.983948,17.036411 339.649048,20.580952 340.821259,24.490446 
	C342.073273,28.666067 340.248810,32.268360 334.945007,35.531441 
z"/>
</svg>