<svg version="1.1" id="Layer_1" xmlns="http://www.w3.org/2000/svg" xmlns:xlink="http://www.w3.org/1999/xlink" x="0px" y="0px"
	 width="100%" viewBox="0 0 848 275" enable-background="new 0 0 848 275" xml:space="preserve">
<path fill="#FFFFFF" opacity="1.000000" stroke="none" 
	d="
M568.000000,276.000000 
	C378.708679,276.000000 189.917343,276.000000 1.063007,276.000000 
	C1.063007,184.395767 1.063007,92.791473 1.063007,1.093594 
	C283.666656,1.093594 566.333313,1.093594 848.968567,1.093594 
	C848.968567,92.749382 848.968567,184.374695 848.968567,276.000000 
	C755.458069,276.000000 661.979065,276.000000 568.000000,276.000000 
M177.023407,220.240997 
	C177.676544,221.160675 178.329697,222.080353 179.426727,223.744446 
	C188.252838,223.798813 197.083420,223.709610 205.902725,223.983414 
	C209.101212,224.082687 211.082336,223.037109 212.951981,220.486465 
	C232.238602,194.174637 251.571152,167.895645 271.083466,141.751251 
	C273.240570,138.860962 272.855408,137.129395 271.042755,134.430176 
	C254.350662,109.574051 237.813919,84.613670 221.200943,59.704327 
	C217.978195,54.872169 215.601959,48.287498 211.050018,45.863121 
	C206.477173,43.427608 199.673096,45.037670 193.851151,45.134571 
	C188.790817,45.218796 183.736526,45.665764 178.046509,46.023651 
	C177.689240,46.734261 177.331955,47.444870 176.300583,47.812458 
	C174.526627,46.907463 172.770737,45.264565 170.975723,45.220646 
	C161.373260,44.985710 151.761032,45.149815 141.502060,45.176765 
	C140.666870,46.162228 139.831665,47.147686 138.292923,47.794617 
	C136.609680,46.896027 134.954849,45.290710 133.238266,45.221725 
	C125.978546,44.929981 118.699272,45.020111 111.429726,45.134583 
	C108.902496,45.174374 106.382744,45.687927 103.221611,46.196095 
	C102.875328,46.554909 102.453461,46.866169 102.193542,47.279312 
	C83.583862,76.858887 64.955246,106.426788 46.506886,136.106720 
	C45.777027,137.280899 46.177608,139.939438 47.055798,141.214798 
	C61.400799,162.047516 75.852936,182.807312 90.411453,203.491669 
	C94.862190,209.815140 99.705406,215.862350 104.299736,222.868668 
	C105.557556,223.214584 106.811638,223.843018 108.073822,223.859741 
	C115.316132,223.955643 122.571884,223.662140 129.799377,224.003082 
	C133.783646,224.191025 136.818497,223.345322 139.440567,220.170044 
	C140.254959,220.790024 141.069366,221.410004 141.912918,222.902542 
	C143.232620,223.237534 144.548431,223.843018 145.872681,223.862106 
	C152.675873,223.960129 159.496490,223.630783 166.280441,224.005112 
	C170.761459,224.252396 174.337509,223.346909 177.023407,220.240997 
M454.156952,215.408218 
	C454.156952,216.574600 454.294647,217.760483 454.132660,218.903900 
	C453.494934,223.405045 455.094574,225.374130 459.890961,224.919724 
	C463.854004,224.544250 467.883209,224.759033 471.878693,224.870071 
	C474.732391,224.949387 476.074921,224.087143 476.060028,220.892746 
	C475.954376,198.234528 475.957031,175.575363 476.058136,152.917114 
	C476.072083,149.790024 474.919464,148.879379 471.948792,148.946884 
	C465.121399,149.102036 458.264252,149.344559 451.464966,148.880707 
	C446.410370,148.535873 444.199310,150.122070 442.932220,155.169724 
	C439.181732,170.110031 434.831757,184.899857 430.457458,200.682297 
	C429.738739,198.590164 429.258667,197.391281 428.912445,196.154892 
	C424.925446,181.916397 421.037201,167.649231 416.883331,153.459747 
	C416.386536,151.762573 414.523438,149.254120 413.210449,149.201614 
	C403.947052,148.831116 394.661896,149.004837 385.855988,149.004837 
	C385.293213,149.696640 385.102112,149.821808 385.101593,149.947739 
	C385.003235,173.928986 384.876770,197.910477 384.981079,221.890945 
	C384.985382,222.879135 387.094818,224.598450 388.333557,224.705704 
	C392.467804,225.063629 396.669128,224.609161 400.812653,224.909302 
	C404.872009,225.203323 406.338501,223.944153 406.265259,219.657181 
	C406.018188,205.200302 406.171143,190.736603 406.171143,176.275513 
	C407.194672,177.619431 407.759644,179.091156 408.188354,180.601547 
	C411.046631,190.671249 413.893494,200.744247 416.710236,210.825638 
	C420.820190,225.535553 420.814911,225.648224 436.138153,224.688141 
	C437.837585,224.581650 440.303101,222.665726 440.871094,221.047592 
	C442.957062,215.105453 444.374939,208.930023 446.076904,202.851532 
	C448.463043,194.329391 450.878387,185.815445 453.281281,177.297989 
	C453.573181,177.361526 453.865051,177.425049 454.156952,177.488571 
	C454.156952,189.802444 454.156952,202.116302 454.156952,215.408218 
M565.052734,182.945740 
	C565.911316,184.402206 566.970215,185.777771 567.596313,187.328140 
	C572.010254,198.257629 576.480286,209.168884 580.605103,220.208237 
	C581.940735,223.782684 583.850159,225.085419 587.599731,224.922180 
	C593.752136,224.654358 599.941711,224.569901 606.083252,224.941803 
	C610.662231,225.219101 611.662415,223.434464 611.626160,219.186905 
	C611.441467,197.530869 611.547791,175.872391 611.526733,154.214783 
	C611.525146,152.608078 611.323181,151.001572 611.209717,149.327026 
	C603.967407,149.327026 597.228455,149.327026 590.064575,149.327026 
	C590.064575,163.523788 590.064575,177.393250 590.064575,191.262695 
	C588.606018,189.820740 587.861267,188.246887 587.220215,186.631851 
	C582.809875,175.520660 578.488342,164.373352 573.952393,153.313904 
	C573.282166,151.679840 571.677063,149.269669 570.424927,149.219833 
	C561.515564,148.865097 552.585510,149.030762 543.986938,149.030762 
	C543.538452,150.027390 543.288086,150.324524 543.287354,150.622269 
	C543.230042,174.274872 543.142029,197.927872 543.312439,221.579010 
	C543.320312,222.677368 545.577454,224.571991 546.918762,224.698349 
	C551.212219,225.102768 555.585327,224.605865 559.894104,224.919495 
	C564.031677,225.220673 564.981506,223.470932 564.921387,219.663956 
	C564.732117,207.672089 564.860657,195.675201 565.052734,182.945740 
M402.222778,125.920547 
	C403.608490,127.207512 404.906708,129.470749 406.395844,129.604233 
	C411.518585,130.063446 416.708221,129.791412 421.872223,129.770828 
	C424.736877,129.759415 426.036224,128.425064 425.951965,125.423912 
	C425.802460,120.097382 425.746490,114.757141 425.955170,109.434547 
	C426.196869,103.270668 425.626068,97.430252 421.518311,93.216614 
	C422.982574,89.337143 424.924408,86.061523 425.409851,82.582664 
	C427.511200,67.524651 422.992981,57.781109 407.919861,56.248627 
	C394.727417,54.907356 381.294739,55.964287 367.968842,55.871387 
	C365.166962,55.851856 364.077728,57.064693 364.080811,59.756542 
	C364.105835,81.579239 364.111633,103.402008 364.073517,125.224670 
	C364.068024,128.367310 365.461029,129.821823 368.587494,129.795685 
	C373.418121,129.755295 378.250916,129.713531 383.079742,129.815170 
	C386.091644,129.878555 387.197113,128.574402 387.139801,125.602798 
	C387.011292,118.941872 387.318542,112.267151 387.025665,105.616669 
	C386.831604,101.210426 388.413361,99.411514 392.778961,99.983459 
	C393.925751,100.133705 395.109619,100.049355 396.274078,100.007538 
	C400.456146,99.857368 402.348053,101.765961 402.245636,106.031960 
	C402.093750,112.358543 402.208771,118.691528 402.222778,125.920547 
M636.100159,76.584236 
	C636.096680,64.375923 629.737671,56.545452 618.712585,56.051800 
	C609.572083,55.642529 600.384155,55.663143 591.242798,56.069462 
	C580.880920,56.530037 573.941345,64.286171 573.908875,74.724236 
	C573.871521,86.715530 573.866943,98.707161 573.911804,110.698410 
	C573.946472,119.965111 579.345154,127.722870 588.493347,128.627716 
	C599.326111,129.699219 610.417297,129.693375 621.258545,128.679489 
	C630.586121,127.807175 636.091919,119.963638 636.098389,110.538673 
	C636.105835,99.546555 636.100281,88.554413 636.100159,76.584236 
M291.829742,196.499954 
	C291.830048,204.660065 291.902466,212.821182 291.789917,220.979736 
	C291.752563,223.686752 292.550018,224.908691 295.462463,224.882690 
	C307.451874,224.775696 319.449158,225.071793 331.431030,224.751343 
	C341.860748,224.472397 351.866852,217.658554 351.131531,203.902008 
	C350.510223,192.277893 351.013306,180.594177 351.000854,168.936874 
	C350.987854,156.784760 343.403687,149.123444 331.089569,149.018463 
	C319.266571,148.917679 307.442017,148.987213 295.618225,149.012207 
	C294.508759,149.014542 293.399719,149.234253 291.829712,149.402390 
	C291.829712,164.933716 291.829712,180.216827 291.829742,196.499954 
M809.006897,184.500061 
	C809.006897,179.175735 808.701355,173.830231 809.068359,168.531326 
	C809.922424,156.202225 799.543945,149.384384 790.719604,149.074432 
	C783.242249,148.811798 775.732788,148.728622 768.264832,149.105774 
	C757.423889,149.653275 750.168945,157.551895 750.156555,168.238495 
	C750.142151,180.717331 750.137878,193.196213 750.158203,205.675018 
	C750.173889,215.323074 755.512329,222.709473 765.055176,223.893387 
	C773.893005,224.989853 783.009521,225.137024 791.881165,224.341080 
	C803.324585,223.314377 809.000305,216.016449 809.006287,204.467880 
	C809.009583,198.145264 809.006897,191.822647 809.006897,184.500061 
M457.688416,129.788818 
	C463.017548,129.788208 468.349091,129.891556 473.675323,129.766830 
	C487.777985,129.436646 495.003693,122.074364 495.003723,108.174583 
	C495.003754,92.686905 495.011261,77.199211 494.993439,61.711552 
	C494.991425,59.941246 494.847382,58.171108 494.768097,56.376575 
	C487.234222,56.376575 480.210449,56.376575 472.899567,56.376575 
	C472.899567,72.829208 472.901031,88.806435 472.899078,104.783653 
	C472.897919,114.110855 472.720642,114.283157 463.334595,114.210899 
	C457.157196,114.163345 456.804047,113.846924 456.795959,107.709122 
	C456.775330,92.054932 456.712189,76.400055 456.845245,60.746971 
	C456.876190,57.103024 455.711395,55.620819 451.946899,55.838863 
	C447.465515,56.098438 442.946930,56.090824 438.464569,55.839497 
	C434.913940,55.640400 433.901703,56.980217 433.930908,60.437740 
	C434.075775,77.589539 434.022247,94.743279 433.984772,111.896217 
	C433.971558,117.935738 436.464478,122.991997 441.648407,125.536774 
	C446.264160,127.802650 451.681854,128.435028 457.688416,129.788818 
M314.797241,76.608017 
	C314.891693,74.847931 314.986145,73.087837 315.102661,70.915855 
	C324.089691,70.915855 332.560120,70.933365 341.030487,70.911476 
	C351.894196,70.883400 350.800323,72.212761 350.963837,60.455677 
	C351.012512,56.957191 349.675659,55.800640 346.246765,55.841843 
	C334.249695,55.985992 322.247101,55.746655 310.251953,55.957222 
	C299.166626,56.151817 291.258545,64.375931 291.212952,75.388611 
	C291.166718,86.553963 291.199860,97.719666 291.203369,108.885216 
	C291.207062,120.606705 296.037537,127.702057 307.731506,128.810287 
	C322.094482,130.171432 336.647461,129.601547 351.117920,129.584229 
	C352.050964,129.583115 353.764893,127.177986 353.789581,125.866211 
	C354.002869,114.538048 353.881622,103.204002 353.932922,91.872047 
	C353.945251,89.149811 352.847870,87.920326 350.065125,87.969925 
	C344.900604,88.061966 339.715332,87.767899 334.579956,88.166321 
	C333.305450,88.265205 331.340637,90.285713 331.163055,91.618759 
	C330.683075,95.221458 330.992126,98.929550 330.991821,102.595833 
	C330.990845,114.524277 330.992554,114.375893 319.136230,114.289948 
	C315.474457,114.263412 314.689758,112.884697 314.738861,109.577858 
	C314.897125,98.914619 314.797180,88.247536 314.797241,76.608017 
M686.704102,224.845703 
	C690.203369,224.845596 693.707397,224.733459 697.200562,224.879349 
	C700.218811,225.005371 701.740479,223.979950 702.171875,220.767731 
	C702.787537,216.184326 703.916687,211.669861 704.882629,206.845703 
	C707.640808,206.845703 710.122131,206.845703 712.603516,206.845703 
	C715.208252,206.845703 717.813049,206.845703 720.422607,206.845703 
	C721.017639,209.751144 721.474670,212.016907 721.946228,214.279633 
	C724.462036,226.351196 721.589783,224.722366 734.473083,224.840286 
	C738.300842,224.875320 742.129211,224.845703 746.335083,224.845703 
	C740.686096,199.875214 735.310242,176.376419 730.116455,152.837463 
	C729.424561,149.701706 727.960266,148.880829 724.981628,148.938919 
	C716.819702,149.098053 708.646729,149.176315 700.490295,148.911087 
	C696.818848,148.791687 695.656189,150.343353 694.937805,153.627151 
	C691.171936,170.842224 687.178345,188.007355 683.308655,205.199905 
	C681.901917,211.449783 680.619080,217.727554 679.097290,224.845673 
	C681.907043,224.845673 683.842834,224.845673 686.704102,224.845703 
M528.983643,105.111328 
	C534.639160,105.074684 540.296204,105.109329 545.949890,104.986916 
	C558.632080,104.712334 565.996948,97.219269 566.003113,84.686516 
	C566.004761,81.358902 566.011353,78.031265 566.001892,74.703682 
	C565.971802,64.156883 558.734253,56.288174 548.102966,56.033012 
	C534.800171,55.713737 521.484253,55.972496 508.175018,55.865723 
	C505.149139,55.841442 504.054718,57.057369 504.062592,60.014118 
	C504.120605,81.809822 504.138062,103.605934 504.045776,125.401405 
	C504.031555,128.762589 505.596741,129.816132 508.589539,129.789597 
	C512.582336,129.754181 516.575684,129.792572 520.568787,129.786682 
	C527.091064,129.777023 526.961853,129.769302 527.138916,123.118584 
	C527.296021,117.219246 527.783264,111.328705 528.983643,105.111328 
M493.605011,223.122284 
	C497.025421,223.697968 500.432648,224.651459 503.868958,224.771286 
	C511.191040,225.026657 518.528198,224.849350 525.859192,224.849350 
	C537.284729,224.849350 537.139465,224.849884 537.098145,213.500198 
	C537.085876,210.136597 535.910889,209.079971 532.787537,209.122803 
	C525.957764,209.216492 519.125610,209.169556 512.294556,209.145538 
	C504.929321,209.119644 503.861786,207.539520 503.430481,199.793167 
	C503.036041,192.708466 507.836121,194.712006 511.413300,194.580246 
	C515.905762,194.414795 520.409607,194.586075 524.907166,194.518738 
	C526.809753,194.490234 528.708801,194.224014 530.848816,194.045914 
	C530.848816,189.994217 530.683655,186.499084 530.897339,183.027283 
	C531.093628,179.837082 529.688416,178.998474 526.760681,179.105484 
	C522.101746,179.275787 517.431641,179.189545 512.766907,179.142746 
	C502.319336,179.037933 503.815033,180.589767 503.458252,169.791916 
	C503.312408,165.378464 504.790619,163.948013 509.171051,164.093430 
	C517.771545,164.378983 526.388184,164.177444 535.153687,164.177444 
	C535.153687,158.835587 535.153687,154.097580 535.153687,148.995483 
	C518.127441,148.995483 501.485046,149.018997 484.842865,148.976761 
	C481.266907,148.967682 482.010406,151.498886 482.007050,153.533035 
	C481.978912,170.527512 482.254700,187.527847 481.882019,204.514191 
	C481.689758,213.277878 485.192932,219.161469 493.605011,223.122284 
M638.838928,192.646484 
	C642.578125,193.421692 646.438232,193.839966 650.028137,195.055969 
	C655.381775,196.869415 653.197449,201.695633 653.315857,205.371948 
	C653.421265,208.647079 650.947754,209.228455 648.116394,209.181992 
	C641.959045,209.080933 635.797241,209.057724 629.640320,209.170654 
	C616.565063,209.410446 618.699463,206.677429 618.433411,221.083710 
	C618.381714,223.883469 619.490479,224.908020 622.271118,224.884811 
	C633.423157,224.791718 644.585999,225.131210 655.726318,224.756714 
	C666.673523,224.388687 676.421509,216.783447 675.055969,204.225494 
	C674.733948,201.264236 675.016541,198.238113 675.006775,195.241882 
	C674.980835,187.295670 671.114197,182.633621 663.255249,181.032288 
	C656.745178,179.705811 650.248169,178.312469 643.726440,177.046494 
	C640.648438,176.449020 639.208130,174.854858 639.128418,171.611984 
	C638.975159,165.375076 639.865845,164.230759 646.074646,164.190765 
	C654.660522,164.135452 663.246948,164.176880 671.764954,164.176880 
	C671.764954,158.742691 671.764954,154.029068 671.764954,149.071945 
	C659.228943,149.071945 647.085022,148.671600 634.981079,149.194778 
	C624.741333,149.637390 617.792419,157.382782 617.463013,167.345703 
	C616.823181,186.696060 618.858398,189.169113 638.838928,192.646484 
M378.545898,169.500885 
	C378.545898,162.756531 378.545898,156.012177 378.545898,148.988251 
	C372.292114,148.988251 366.961975,149.218948 361.663208,148.910446 
	C357.875519,148.689896 356.868896,149.977264 356.906097,153.696503 
	C357.087677,171.855026 356.947662,190.016495 357.013641,208.176590 
	C357.032837,213.459137 357.356689,218.740601 357.540894,224.022552 
	C362.971375,224.299332 368.413208,224.441818 373.828522,224.898407 
	C377.673798,225.222610 378.643463,223.592819 378.610992,219.982727 
	C378.462677,203.489807 378.545776,186.994812 378.545898,169.500885 
M715.620605,134.120621 
	C714.108398,133.456924 712.596619,132.792343 711.083984,132.129669 
	C701.208435,127.803215 692.277222,132.145538 688.883362,143.873337 
	C692.209656,144.399643 697.189087,146.460266 698.342041,145.151001 
	C703.503662,139.289993 708.138733,141.635620 713.424133,144.276779 
	C722.904297,149.014084 733.496338,143.663223 735.874146,133.150940 
	C729.726990,129.995941 728.664001,130.354797 723.724365,133.534286 
	C721.831787,134.752487 718.822876,134.236374 715.620605,134.120621 
z"/>
<path fill="#103A61" opacity="1.000000" stroke="none" 
	d="
M178.679565,45.952431 
	C183.736526,45.665764 188.790817,45.218796 193.851151,45.134571 
	C199.673096,45.037670 206.477173,43.427608 211.050018,45.863121 
	C215.601959,48.287498 217.978195,54.872169 221.200943,59.704327 
	C237.813919,84.613670 254.350662,109.574051 271.042755,134.430176 
	C272.855408,137.129395 273.240570,138.860962 271.083466,141.751251 
	C251.571152,167.895645 232.238602,194.174637 212.951981,220.486465 
	C211.082336,223.037109 209.101212,224.082687 205.902725,223.983414 
	C197.083420,223.709610 188.252838,223.798813 179.445709,223.143890 
	C184.322861,215.777496 189.181030,209.011673 194.354340,202.101746 
	C210.548859,180.706940 226.428207,159.456223 242.234818,138.302856 
	C233.629578,125.735558 225.412094,113.648712 217.103119,101.625092 
	C209.469727,90.579109 201.737778,79.601250 194.020645,68.261955 
	C188.887878,60.604500 183.783722,53.278465 178.679565,45.952431 
z"/>
<path fill="#103A60" opacity="1.000000" stroke="none" 
	d="
M103.859573,45.985104 
	C106.382744,45.687927 108.902496,45.174374 111.429726,45.134583 
	C118.699272,45.020111 125.978546,44.929981 133.238266,45.221725 
	C134.954849,45.290710 136.609680,46.896027 138.759232,48.279427 
	C144.336624,56.196247 149.447708,63.628254 154.666229,71.403183 
	C156.169388,73.633621 157.565094,75.521133 158.947601,77.746658 
	C163.882553,85.440865 168.830688,92.797058 173.870743,100.492332 
	C182.199936,113.316284 190.437241,125.801155 198.642548,138.237579 
	C190.201218,149.888519 181.909943,161.332336 173.353363,172.969269 
	C168.037811,180.085205 162.987534,187.008026 157.667236,194.120193 
	C156.311798,196.195801 155.226379,198.082047 153.791946,200.013306 
	C148.589340,206.652557 143.735733,213.246796 138.882126,219.841034 
	C136.818497,223.345322 133.783646,224.191025 129.799377,224.003082 
	C122.571884,223.662140 115.316132,223.955643 108.073822,223.859741 
	C106.811638,223.843018 105.557556,223.214584 104.641579,222.353149 
	C109.673286,215.353516 114.363144,208.869431 119.370377,202.249252 
	C120.895248,200.474030 122.102730,198.834885 123.584244,197.008911 
	C128.919678,189.896881 133.981079,182.971695 139.329514,175.877762 
	C140.738174,173.815613 141.859802,171.922180 143.324432,169.978806 
	C148.514404,163.398972 153.361389,156.869110 158.487579,150.140198 
	C161.615723,146.126251 164.464661,142.311310 167.539337,138.194077 
	C164.326202,133.722351 161.179886,129.343643 157.939056,124.635040 
	C152.768021,117.136482 147.691513,109.967834 142.522034,102.444824 
	C140.959671,100.211021 139.490280,98.331566 138.084015,96.122665 
	C133.246368,88.844467 128.345581,81.895699 123.350418,74.605576 
	C122.154755,72.518852 121.053467,70.773483 119.857361,68.702438 
	C114.461548,60.912884 109.160561,53.448994 103.859573,45.985104 
z"/>
<path fill="#103A60" opacity="1.000000" stroke="none" 
	d="
M142.152191,45.175983 
	C151.761032,45.149815 161.373260,44.985710 170.975723,45.220646 
	C172.770737,45.264565 174.526627,46.907463 176.633179,48.332649 
	C182.010971,56.236752 187.056198,63.620663 192.149994,71.345970 
	C206.133377,92.721786 220.019424,113.788887 234.065216,134.748932 
	C235.805710,137.346237 235.951538,139.035751 233.984589,141.632339 
	C224.157578,154.605057 214.517029,167.720306 204.911102,180.858673 
	C200.318466,187.140152 195.947937,193.584000 191.173157,200.037613 
	C186.222763,206.599838 181.576035,213.078751 176.929291,219.557648 
	C174.337509,223.346909 170.761459,224.252396 166.280441,224.005112 
	C159.496490,223.630783 152.675873,223.960129 145.872681,223.862106 
	C144.548431,223.843018 143.232620,223.237534 142.238800,222.391541 
	C147.415359,215.299515 152.266037,208.718491 157.405426,201.985550 
	C158.774124,200.220184 159.854065,198.606766 161.219070,196.816254 
	C166.649963,189.751984 171.795822,182.864807 177.135040,175.702728 
	C186.559586,163.067108 195.790741,150.706406 205.145065,138.180817 
	C195.404709,124.179192 185.827530,110.412132 176.166092,96.317703 
	C170.772141,88.285500 165.462448,80.580658 160.028168,72.577034 
	C158.993835,71.093529 158.084122,69.908806 157.089630,68.395599 
	C152.053955,60.436741 147.103073,52.806362 142.152191,45.175983 
z"/>
<path fill="#113A61" opacity="1.000000" stroke="none" 
	d="
M454.156952,214.919189 
	C454.156952,202.116302 454.156952,189.802444 454.156952,177.488571 
	C453.865051,177.425049 453.573181,177.361526 453.281281,177.297989 
	C450.878387,185.815445 448.463043,194.329391 446.076904,202.851532 
	C444.374939,208.930023 442.957062,215.105453 440.871094,221.047592 
	C440.303101,222.665726 437.837585,224.581650 436.138153,224.688141 
	C420.814911,225.648224 420.820190,225.535553 416.710236,210.825638 
	C413.893494,200.744247 411.046631,190.671249 408.188354,180.601547 
	C407.759644,179.091156 407.194672,177.619431 406.171143,176.275513 
	C406.171143,190.736603 406.018188,205.200302 406.265259,219.657181 
	C406.338501,223.944153 404.872009,225.203323 400.812653,224.909302 
	C396.669128,224.609161 392.467804,225.063629 388.333557,224.705704 
	C387.094818,224.598450 384.985382,222.879135 384.981079,221.890945 
	C384.876770,197.910477 385.003235,173.928986 385.101593,149.947739 
	C385.102112,149.821808 385.293213,149.696640 385.855988,149.004837 
	C394.661896,149.004837 403.947052,148.831116 413.210449,149.201614 
	C414.523438,149.254120 416.386536,151.762573 416.883331,153.459747 
	C421.037201,167.649231 424.925446,181.916397 428.912445,196.154892 
	C429.258667,197.391281 429.738739,198.590164 430.457458,200.682297 
	C434.831757,184.899857 439.181732,170.110031 442.932220,155.169724 
	C444.199310,150.122070 446.410370,148.535873 451.464966,148.880707 
	C458.264252,149.344559 465.121399,149.102036 471.948792,148.946884 
	C474.919464,148.879379 476.072083,149.790024 476.058136,152.917114 
	C475.957031,175.575363 475.954376,198.234528 476.060028,220.892746 
	C476.074921,224.087143 474.732391,224.949387 471.878693,224.870071 
	C467.883209,224.759033 463.854004,224.544250 459.890961,224.919724 
	C455.094574,225.374130 453.494934,223.405045 454.132660,218.903900 
	C454.294647,217.760483 454.156952,216.574600 454.156952,214.919189 
z"/>
<path fill="#A7A9AC" opacity="1.000000" stroke="none" 
	d="
M103.540588,46.090599 
	C109.160561,53.448994 114.461548,60.912884 119.551804,68.838562 
	C104.952866,91.444656 90.515251,113.557419 76.307404,135.816833 
	C75.510887,137.064743 75.971420,139.958008 76.923424,141.348267 
	C86.213921,154.915588 95.777817,168.295212 105.169876,181.793686 
	C109.897377,188.588150 114.431458,195.517166 119.053009,202.385345 
	C114.363144,208.869431 109.673286,215.353516 104.676155,221.936859 
	C99.705406,215.862350 94.862190,209.815140 90.411453,203.491669 
	C75.852936,182.807312 61.400799,162.047516 47.055798,141.214798 
	C46.177608,139.939438 45.777027,137.280899 46.506886,136.106720 
	C64.955246,106.426788 83.583862,76.858887 102.193542,47.279312 
	C102.453461,46.866169 102.875328,46.554909 103.540588,46.090599 
z"/>
<path fill="#133C62" opacity="1.000000" stroke="none" 
	d="
M564.959473,183.313004 
	C564.860657,195.675201 564.732117,207.672089 564.921387,219.663956 
	C564.981506,223.470932 564.031677,225.220673 559.894104,224.919495 
	C555.585327,224.605865 551.212219,225.102768 546.918762,224.698349 
	C545.577454,224.571991 543.320312,222.677368 543.312439,221.579010 
	C543.142029,197.927872 543.230042,174.274872 543.287354,150.622269 
	C543.288086,150.324524 543.538452,150.027390 543.986938,149.030762 
	C552.585510,149.030762 561.515564,148.865097 570.424927,149.219833 
	C571.677063,149.269669 573.282166,151.679840 573.952393,153.313904 
	C578.488342,164.373352 582.809875,175.520660 587.220215,186.631851 
	C587.861267,188.246887 588.606018,189.820740 590.064575,191.262695 
	C590.064575,177.393250 590.064575,163.523788 590.064575,149.327026 
	C597.228455,149.327026 603.967407,149.327026 611.209717,149.327026 
	C611.323181,151.001572 611.525146,152.608078 611.526733,154.214783 
	C611.547791,175.872391 611.441467,197.530869 611.626160,219.186905 
	C611.662415,223.434464 610.662231,225.219101 606.083252,224.941803 
	C599.941711,224.569901 593.752136,224.654358 587.599731,224.922180 
	C583.850159,225.085419 581.940735,223.782684 580.605103,220.208237 
	C576.480286,209.168884 572.010254,198.257629 567.596313,187.328140 
	C566.970215,185.777771 565.911316,184.402206 564.959473,183.313004 
z"/>
<path fill="#A8AAAD" opacity="1.000000" stroke="none" 
	d="
M402.216492,125.471169 
	C402.208771,118.691528 402.093750,112.358543 402.245636,106.031960 
	C402.348053,101.765961 400.456146,99.857368 396.274078,100.007538 
	C395.109619,100.049355 393.925751,100.133705 392.778961,99.983459 
	C388.413361,99.411514 386.831604,101.210426 387.025665,105.616669 
	C387.318542,112.267151 387.011292,118.941872 387.139801,125.602798 
	C387.197113,128.574402 386.091644,129.878555 383.079742,129.815170 
	C378.250916,129.713531 373.418121,129.755295 368.587494,129.795685 
	C365.461029,129.821823 364.068024,128.367310 364.073517,125.224670 
	C364.111633,103.402008 364.105835,81.579239 364.080811,59.756542 
	C364.077728,57.064693 365.166962,55.851856 367.968842,55.871387 
	C381.294739,55.964287 394.727417,54.907356 407.919861,56.248627 
	C422.992981,57.781109 427.511200,67.524651 425.409851,82.582664 
	C424.924408,86.061523 422.982574,89.337143 421.518311,93.216614 
	C425.626068,97.430252 426.196869,103.270668 425.955170,109.434547 
	C425.746490,114.757141 425.802460,120.097382 425.951965,125.423912 
	C426.036224,128.425064 424.736877,129.759415 421.872223,129.770828 
	C416.708221,129.791412 411.518585,130.063446 406.395844,129.604233 
	C404.906708,129.470749 403.608490,127.207512 402.216492,125.471169 
M388.957520,84.940025 
	C391.266388,84.990654 393.588440,84.902954 395.881378,85.120987 
	C400.517609,85.561806 402.788422,83.796417 402.234833,78.936462 
	C402.067596,77.468063 402.656342,75.717796 402.041992,74.545830 
	C401.281311,73.094795 399.630859,71.116333 398.361176,71.113678 
	C394.656128,71.105904 390.948944,71.965958 387.245911,72.508156 
	C387.191345,72.516151 387.139648,72.815041 387.152557,72.972778 
	C387.468597,76.842377 387.793549,80.711250 388.957520,84.940025 
z"/>
<path fill="#A7A9AC" opacity="1.000000" stroke="none" 
	d="
M636.100220,77.073257 
	C636.100281,88.554413 636.105835,99.546555 636.098389,110.538673 
	C636.091919,119.963638 630.586121,127.807175 621.258545,128.679489 
	C610.417297,129.693375 599.326111,129.699219 588.493347,128.627716 
	C579.345154,127.722870 573.946472,119.965111 573.911804,110.698410 
	C573.866943,98.707161 573.871521,86.715530 573.908875,74.724236 
	C573.941345,64.286171 580.880920,56.530037 591.242798,56.069462 
	C600.384155,55.663143 609.572083,55.642529 618.712585,56.051800 
	C629.737671,56.545452 636.096680,64.375923 636.100220,77.073257 
M607.239624,70.910545 
	C606.239746,70.910110 605.239807,70.903572 604.239990,70.910240 
	C597.737976,70.953613 596.936340,71.700058 596.917480,78.039719 
	C596.887695,88.038490 596.996582,98.038490 596.871887,108.035789 
	C596.816101,112.514389 598.727539,114.527977 603.187256,114.226204 
	C604.680359,114.125175 606.189880,114.136696 607.684875,114.220711 
	C611.518616,114.436165 613.130859,112.604187 613.109314,108.842857 
	C613.047302,98.011116 613.061584,87.178703 613.100952,76.346756 
	C613.113403,72.936256 611.741760,70.946259 607.239624,70.910545 
z"/>
<path fill="#103A60" opacity="1.000000" stroke="none" 
	d="
M291.829712,195.999939 
	C291.829712,180.216827 291.829712,164.933716 291.829712,149.402390 
	C293.399719,149.234253 294.508759,149.014542 295.618225,149.012207 
	C307.442017,148.987213 319.266571,148.917679 331.089569,149.018463 
	C343.403687,149.123444 350.987854,156.784760 351.000854,168.936874 
	C351.013306,180.594177 350.510223,192.277893 351.131531,203.902008 
	C351.866852,217.658554 341.860748,224.472397 331.431030,224.751343 
	C319.449158,225.071793 307.451874,224.775696 295.462463,224.882690 
	C292.550018,224.908691 291.752563,223.686752 291.789917,220.979736 
	C291.902466,212.821182 291.830048,204.660065 291.829712,195.999939 
M329.169800,178.514343 
	C329.169800,177.348343 329.169800,176.182358 329.169769,175.016357 
	C329.169739,163.862991 329.170776,163.995392 317.958313,164.083786 
	C314.220490,164.113251 313.024902,165.434036 313.095215,169.088974 
	C313.280975,178.746460 313.023590,188.412231 313.191010,198.070389 
	C313.417358,211.131973 310.542023,208.867142 324.560028,209.208832 
	C328.041229,209.293671 329.280914,207.926529 329.218384,204.493393 
	C329.066772,196.167648 329.169586,187.837296 329.169800,178.514343 
z"/>
<path fill="#123B62" opacity="1.000000" stroke="none" 
	d="
M809.006897,185.000046 
	C809.006897,191.822647 809.009583,198.145264 809.006287,204.467880 
	C809.000305,216.016449 803.324585,223.314377 791.881165,224.341080 
	C783.009521,225.137024 773.893005,224.989853 765.055176,223.893387 
	C755.512329,222.709473 750.173889,215.323074 750.158203,205.675018 
	C750.137878,193.196213 750.142151,180.717331 750.156555,168.238495 
	C750.168945,157.551895 757.423889,149.653275 768.264832,149.105774 
	C775.732788,148.728622 783.242249,148.811798 790.719604,149.074432 
	C799.543945,149.384384 809.922424,156.202225 809.068359,168.531326 
	C808.701355,173.830231 809.006897,179.175735 809.006897,185.000046 
M771.844299,188.499100 
	C771.845642,193.655151 771.899109,198.811905 771.830139,203.967010 
	C771.783447,207.459030 773.255310,209.287521 776.876099,209.163574 
	C778.537415,209.106705 780.206543,209.077713 781.864685,209.170273 
	C785.649292,209.381531 787.254944,207.769821 787.205750,203.871399 
	C787.062866,192.563141 786.997803,181.248779 787.223206,169.943222 
	C787.332520,164.461945 783.915588,164.226639 780.033325,164.174179 
	C773.528381,164.086273 771.950195,165.155487 771.868164,170.035858 
	C771.770386,175.855576 771.844604,181.678192 771.844299,188.499100 
z"/>
<path fill="#A7A9AC" opacity="1.000000" stroke="none" 
	d="
M457.217010,129.788574 
	C451.681854,128.435028 446.264160,127.802650 441.648407,125.536774 
	C436.464478,122.991997 433.971558,117.935738 433.984772,111.896217 
	C434.022247,94.743279 434.075775,77.589539 433.930908,60.437740 
	C433.901703,56.980217 434.913940,55.640400 438.464569,55.839497 
	C442.946930,56.090824 447.465515,56.098438 451.946899,55.838863 
	C455.711395,55.620819 456.876190,57.103024 456.845245,60.746971 
	C456.712189,76.400055 456.775330,92.054932 456.795959,107.709122 
	C456.804047,113.846924 457.157196,114.163345 463.334595,114.210899 
	C472.720642,114.283157 472.897919,114.110855 472.899078,104.783653 
	C472.901031,88.806435 472.899567,72.829208 472.899567,56.376575 
	C480.210449,56.376575 487.234222,56.376575 494.768097,56.376575 
	C494.847382,58.171108 494.991425,59.941246 494.993439,61.711552 
	C495.011261,77.199211 495.003754,92.686905 495.003723,108.174583 
	C495.003693,122.074364 487.777985,129.436646 473.675323,129.766830 
	C468.349091,129.891556 463.017548,129.788208 457.217010,129.788574 
z"/>
<path fill="#A9ABAD" opacity="1.000000" stroke="none" 
	d="
M314.796997,77.094978 
	C314.797180,88.247536 314.897125,98.914619 314.738861,109.577858 
	C314.689758,112.884697 315.474457,114.263412 319.136230,114.289948 
	C330.992554,114.375893 330.990845,114.524277 330.991821,102.595833 
	C330.992126,98.929550 330.683075,95.221458 331.163055,91.618759 
	C331.340637,90.285713 333.305450,88.265205 334.579956,88.166321 
	C339.715332,87.767899 344.900604,88.061966 350.065125,87.969925 
	C352.847870,87.920326 353.945251,89.149811 353.932922,91.872047 
	C353.881622,103.204002 354.002869,114.538048 353.789581,125.866211 
	C353.764893,127.177986 352.050964,129.583115 351.117920,129.584229 
	C336.647461,129.601547 322.094482,130.171432 307.731506,128.810287 
	C296.037537,127.702057 291.207062,120.606705 291.203369,108.885216 
	C291.199860,97.719666 291.166718,86.553963 291.212952,75.388611 
	C291.258545,64.375931 299.166626,56.151817 310.251953,55.957222 
	C322.247101,55.746655 334.249695,55.985992 346.246765,55.841843 
	C349.675659,55.800640 351.012512,56.957191 350.963837,60.455677 
	C350.800323,72.212761 351.894196,70.883400 341.030487,70.911476 
	C332.560120,70.933365 324.089691,70.915855 315.102661,70.915855 
	C314.986145,73.087837 314.891693,74.847931 314.796997,77.094978 
z"/>
<path fill="#113B61" opacity="1.000000" stroke="none" 
	d="
M686.241333,224.845688 
	C683.842834,224.845673 681.907043,224.845673 679.097290,224.845673 
	C680.619080,217.727554 681.901917,211.449783 683.308655,205.199905 
	C687.178345,188.007355 691.171936,170.842224 694.937805,153.627151 
	C695.656189,150.343353 696.818848,148.791687 700.490295,148.911087 
	C708.646729,149.176315 716.819702,149.098053 724.981628,148.938919 
	C727.960266,148.880829 729.424561,149.701706 730.116455,152.837463 
	C735.310242,176.376419 740.686096,199.875214 746.335083,224.845703 
	C742.129211,224.845703 738.300842,224.875320 734.473083,224.840286 
	C721.589783,224.722366 724.462036,226.351196 721.946228,214.279633 
	C721.474670,212.016907 721.017639,209.751144 720.422607,206.845703 
	C717.813049,206.845703 715.208252,206.845703 712.603516,206.845703 
	C710.122131,206.845703 707.640808,206.845703 704.882629,206.845703 
	C703.916687,211.669861 702.787537,216.184326 702.171875,220.767731 
	C701.740479,223.979950 700.218811,225.005371 697.200562,224.879349 
	C693.707397,224.733459 690.203369,224.845596 686.241333,224.845688 
M710.112061,178.618011 
	C709.294678,183.176117 708.477295,187.734222 707.602234,192.613708 
	C711.130249,192.613708 714.221375,192.613708 717.790039,192.613708 
	C716.138916,184.202316 714.540955,176.061859 712.942993,167.921387 
	C712.716003,167.955765 712.488953,167.990158 712.261963,168.024536 
	C711.600708,171.276474 710.939453,174.528397 710.112061,178.618011 
z"/>
<path fill="#A7A9AC" opacity="1.000000" stroke="none" 
	d="
M528.554199,105.272804 
	C527.783264,111.328705 527.296021,117.219246 527.138916,123.118584 
	C526.961853,129.769302 527.091064,129.777023 520.568787,129.786682 
	C516.575684,129.792572 512.582336,129.754181 508.589539,129.789597 
	C505.596741,129.816132 504.031555,128.762589 504.045776,125.401405 
	C504.138062,103.605934 504.120605,81.809822 504.062592,60.014118 
	C504.054718,57.057369 505.149139,55.841442 508.175018,55.865723 
	C521.484253,55.972496 534.800171,55.713737 548.102966,56.033012 
	C558.734253,56.288174 565.971802,64.156883 566.001892,74.703682 
	C566.011353,78.031265 566.004761,81.358902 566.003113,84.686516 
	C565.996948,97.219269 558.632080,104.712334 545.949890,104.986916 
	C540.296204,105.109329 534.639160,105.074684 528.554199,105.272804 
M542.979431,74.026321 
	C541.751831,72.701454 540.655151,70.424049 539.271667,70.234024 
	C535.440247,69.707748 531.489319,70.051704 527.496460,70.051704 
	C527.496460,77.090744 527.496460,83.432564 527.496460,90.198280 
	C531.512146,90.198280 535.210449,90.641174 538.710876,90.001656 
	C540.333801,89.705154 542.499329,87.466782 542.793030,85.819000 
	C543.422119,82.289398 542.993835,78.571350 542.979431,74.026321 
z"/>
<path fill="#133C62" opacity="1.000000" stroke="none" 
	d="
M493.233704,223.008148 
	C485.192932,219.161469 481.689758,213.277878 481.882019,204.514191 
	C482.254700,187.527847 481.978912,170.527512 482.007050,153.533035 
	C482.010406,151.498886 481.266907,148.967682 484.842865,148.976761 
	C501.485046,149.018997 518.127441,148.995483 535.153687,148.995483 
	C535.153687,154.097580 535.153687,158.835587 535.153687,164.177444 
	C526.388184,164.177444 517.771545,164.378983 509.171051,164.093430 
	C504.790619,163.948013 503.312408,165.378464 503.458252,169.791916 
	C503.815033,180.589767 502.319336,179.037933 512.766907,179.142746 
	C517.431641,179.189545 522.101746,179.275787 526.760681,179.105484 
	C529.688416,178.998474 531.093628,179.837082 530.897339,183.027283 
	C530.683655,186.499084 530.848816,189.994217 530.848816,194.045914 
	C528.708801,194.224014 526.809753,194.490234 524.907166,194.518738 
	C520.409607,194.586075 515.905762,194.414795 511.413300,194.580246 
	C507.836121,194.712006 503.036041,192.708466 503.430481,199.793167 
	C503.861786,207.539520 504.929321,209.119644 512.294556,209.145538 
	C519.125610,209.169556 525.957764,209.216492 532.787537,209.122803 
	C535.910889,209.079971 537.085876,210.136597 537.098145,213.500198 
	C537.139465,224.849884 537.284729,224.849350 525.859192,224.849350 
	C518.528198,224.849350 511.191040,225.026657 503.868958,224.771286 
	C500.432648,224.651459 497.025421,223.697968 493.233704,223.008148 
z"/>
<path fill="#133C62" opacity="1.000000" stroke="none" 
	d="
M638.440430,192.499146 
	C618.858398,189.169113 616.823181,186.696060 617.463013,167.345703 
	C617.792419,157.382782 624.741333,149.637390 634.981079,149.194778 
	C647.085022,148.671600 659.228943,149.071945 671.764954,149.071945 
	C671.764954,154.029068 671.764954,158.742691 671.764954,164.176880 
	C663.246948,164.176880 654.660522,164.135452 646.074646,164.190765 
	C639.865845,164.230759 638.975159,165.375076 639.128418,171.611984 
	C639.208130,174.854858 640.648438,176.449020 643.726440,177.046494 
	C650.248169,178.312469 656.745178,179.705811 663.255249,181.032288 
	C671.114197,182.633621 674.980835,187.295670 675.006775,195.241882 
	C675.016541,198.238113 674.733948,201.264236 675.055969,204.225494 
	C676.421509,216.783447 666.673523,224.388687 655.726318,224.756714 
	C644.585999,225.131210 633.423157,224.791718 622.271118,224.884811 
	C619.490479,224.908020 618.381714,223.883469 618.433411,221.083710 
	C618.699463,206.677429 616.565063,209.410446 629.640320,209.170654 
	C635.797241,209.057724 641.959045,209.080933 648.116394,209.181992 
	C650.947754,209.228455 653.421265,208.647079 653.315857,205.371948 
	C653.197449,201.695633 655.381775,196.869415 650.028137,195.055969 
	C646.438232,193.839966 642.578125,193.421692 638.440430,192.499146 
z"/>
<path fill="#143D63" opacity="1.000000" stroke="none" 
	d="
M378.545837,170.000732 
	C378.545776,186.994812 378.462677,203.489807 378.610992,219.982727 
	C378.643463,223.592819 377.673798,225.222610 373.828522,224.898407 
	C368.413208,224.441818 362.971375,224.299332 357.540894,224.022552 
	C357.356689,218.740601 357.032837,213.459137 357.013641,208.176590 
	C356.947662,190.016495 357.087677,171.855026 356.906097,153.696503 
	C356.868896,149.977264 357.875519,148.689896 361.663208,148.910446 
	C366.961975,149.218948 372.292114,148.988251 378.545898,148.988251 
	C378.545898,156.012177 378.545898,162.756531 378.545837,170.000732 
z"/>
<path fill="#143D63" opacity="1.000000" stroke="none" 
	d="
M715.971680,134.315582 
	C718.822876,134.236374 721.831787,134.752487 723.724365,133.534286 
	C728.664001,130.354797 729.726990,129.995941 735.874146,133.150940 
	C733.496338,143.663223 722.904297,149.014084 713.424133,144.276779 
	C708.138733,141.635620 703.503662,139.289993 698.342041,145.151001 
	C697.189087,146.460266 692.209656,144.399643 688.883362,143.873337 
	C692.277222,132.145538 701.208435,127.803215 711.083984,132.129669 
	C712.596619,132.792343 714.108398,133.456924 715.971680,134.315582 
z"/>
<path fill="#9FA3A8" opacity="1.000000" stroke="none" 
	d="
M157.116699,202.137482 
	C152.266037,208.718491 147.415359,215.299515 142.224228,221.955261 
	C141.069366,221.410004 140.254959,220.790024 139.161346,220.005539 
	C143.735733,213.246796 148.589340,206.652557 154.116333,199.989899 
	C155.565399,200.660141 156.341049,201.398819 157.116699,202.137482 
z"/>
<path fill="#9BA0A6" opacity="1.000000" stroke="none" 
	d="
M141.827118,45.176376 
	C147.103073,52.806362 152.053955,60.436741 156.825256,68.640137 
	C155.950043,69.828857 155.254410,70.444565 154.558777,71.060257 
	C149.447708,63.628254 144.336624,56.196247 139.111008,48.448692 
	C139.831665,47.147686 140.666870,46.162228 141.827118,45.176376 
z"/>
<path fill="#9EA2A7" opacity="1.000000" stroke="none" 
	d="
M176.976349,219.899323 
	C181.576035,213.078751 186.222763,206.599838 191.539185,200.080246 
	C192.818985,200.775009 193.429092,201.510437 194.039185,202.245850 
	C189.181030,209.011673 184.322861,215.777496 179.223770,222.771667 
	C178.329697,222.080353 177.676544,221.160675 176.976349,219.899323 
z"/>
<path fill="#9EA2A7" opacity="1.000000" stroke="none" 
	d="
M192.101410,71.004578 
	C187.056198,63.620663 182.010971,56.236752 176.970215,48.504158 
	C177.331955,47.444870 177.689240,46.734261 178.363037,45.988041 
	C183.783722,53.278465 188.887878,60.604500 193.931442,68.572266 
	C193.281036,69.810852 192.691223,70.407715 192.101410,71.004578 
z"/>
<path fill="#F4F6F8" opacity="1.000000" stroke="none" 
	d="
M192.149994,71.345963 
	C192.691223,70.407715 193.281036,69.810852 193.960052,68.903687 
	C201.737778,79.601250 209.469727,90.579109 217.103119,101.625092 
	C225.412094,113.648712 233.629578,125.735558 242.234818,138.302856 
	C226.428207,159.456223 210.548859,180.706940 194.354355,202.101761 
	C193.429092,201.510437 192.818985,200.775009 191.842865,199.996933 
	C195.947937,193.584000 200.318466,187.140152 204.911102,180.858673 
	C214.517029,167.720306 224.157578,154.605057 233.984589,141.632339 
	C235.951538,139.035751 235.805710,137.346237 234.065216,134.748932 
	C220.019424,113.788887 206.133377,92.721786 192.149994,71.345963 
z"/>
<path fill="#A7A9AC" opacity="1.000000" stroke="none" 
	d="
M123.444794,74.946930 
	C128.345581,81.895699 133.246368,88.844467 138.137909,96.521194 
	C137.689590,98.129417 137.327072,99.058655 136.799942,99.882576 
	C129.296051,111.611191 121.668571,123.263237 114.374496,135.120514 
	C113.439697,136.640106 113.360992,139.791855 114.326149,141.200623 
	C122.373688,152.946930 130.759064,164.461777 139.042480,176.046494 
	C133.981079,182.971695 128.919678,189.896881 123.414764,196.686462 
	C110.728325,178.922211 98.569221,161.234253 86.173637,143.713608 
	C83.613297,140.094681 82.805389,137.503479 85.569771,133.279602 
	C97.139961,115.600739 108.190132,97.581963 119.493294,79.727280 
	C120.590286,77.994446 122.117363,76.533882 123.444794,74.946930 
z"/>
<path fill="#A6A8AC" opacity="1.000000" stroke="none" 
	d="
M142.614990,102.799179 
	C147.691513,109.967834 152.768021,117.136482 157.687561,124.861282 
	C155.377594,128.766739 153.030777,132.013168 151.170502,135.517853 
	C150.462387,136.851913 150.192001,139.190018 150.898880,140.358856 
	C153.024490,143.873657 155.729431,147.038116 158.208374,150.339233 
	C153.361389,156.869110 148.514404,163.398972 142.977783,169.985046 
	C135.202927,160.074829 128.079941,150.134689 121.100723,140.094604 
	C120.510666,139.245773 120.362778,137.399216 120.886559,136.570648 
	C128.038956,125.256325 135.346008,114.039787 142.614990,102.799179 
z"/>
<path fill="#FCFCFC" opacity="1.000000" stroke="none" 
	d="
M123.350418,74.605576 
	C122.117363,76.533882 120.590286,77.994446 119.493294,79.727280 
	C108.190132,97.581963 97.139961,115.600739 85.569771,133.279602 
	C82.805389,137.503479 83.613297,140.094681 86.173637,143.713608 
	C98.569221,161.234253 110.728325,178.922211 123.140732,196.873306 
	C122.102730,198.834885 120.895248,200.474030 119.370384,202.249252 
	C114.431458,195.517166 109.897377,188.588150 105.169876,181.793686 
	C95.777817,168.295212 86.213921,154.915588 76.923424,141.348267 
	C75.971420,139.958008 75.510887,137.064743 76.307404,135.816833 
	C90.515251,113.557419 104.952866,91.444656 119.646622,69.164230 
	C121.053467,70.773483 122.154755,72.518852 123.350418,74.605576 
z"/>
<path fill="#FCFCFC" opacity="1.000000" stroke="none" 
	d="
M142.522034,102.444824 
	C135.346008,114.039787 128.038956,125.256325 120.886559,136.570648 
	C120.362778,137.399216 120.510666,139.245773 121.100723,140.094604 
	C128.079941,150.134689 135.202927,160.074829 142.634781,170.035004 
	C141.859802,171.922180 140.738174,173.815613 139.329514,175.877762 
	C130.759064,164.461777 122.373688,152.946930 114.326149,141.200623 
	C113.360992,139.791855 113.439697,136.640106 114.374496,135.120514 
	C121.668571,123.263237 129.296051,111.611191 136.799942,99.882576 
	C137.327072,99.058655 137.689590,98.129417 138.074768,96.850632 
	C139.490280,98.331566 140.959671,100.211021 142.522034,102.444824 
z"/>
<path fill="#F3F5F7" opacity="1.000000" stroke="none" 
	d="
M176.250351,96.645073 
	C185.827530,110.412132 195.404709,124.179192 205.145065,138.180817 
	C195.790741,150.706406 186.559586,163.067108 176.792908,175.663879 
	C175.377808,174.858673 174.498230,173.817413 173.618652,172.776154 
	C181.909943,161.332336 190.201218,149.888519 198.642548,138.237579 
	C190.437241,125.801155 182.199936,113.316284 174.054840,100.183411 
	C174.848160,98.571968 175.549255,97.608521 176.250351,96.645073 
z"/>
<path fill="#FAFBFC" opacity="1.000000" stroke="none" 
	d="
M158.487579,150.140198 
	C155.729431,147.038116 153.024490,143.873657 150.898880,140.358856 
	C150.192001,139.190018 150.462387,136.851913 151.170502,135.517853 
	C153.030777,132.013168 155.377594,128.766739 157.782074,125.191177 
	C161.179886,129.343643 164.326202,133.722351 167.539337,138.194077 
	C164.464661,142.311310 161.615723,146.126251 158.487579,150.140198 
z"/>
<path fill="#9EA2A7" opacity="1.000000" stroke="none" 
	d="
M173.353363,172.969269 
	C174.498230,173.817413 175.377808,174.858673 176.599533,175.938782 
	C171.795822,182.864807 166.649963,189.751984 160.967560,196.633026 
	C159.599747,195.728210 158.768509,194.829529 157.937256,193.930847 
	C162.987534,187.008026 168.037811,180.085205 173.353363,172.969269 
z"/>
<path fill="#9EA2A7" opacity="1.000000" stroke="none" 
	d="
M176.166092,96.317703 
	C175.549255,97.608521 174.848160,98.571968 173.962952,99.844330 
	C168.830688,92.797058 163.882553,85.440865 158.943741,77.347939 
	C159.352966,75.366074 159.752869,74.120941 160.152771,72.875809 
	C165.462448,80.580658 170.772141,88.285500 176.166092,96.317703 
z"/>
<path fill="#F3F5F7" opacity="1.000000" stroke="none" 
	d="
M157.667236,194.120193 
	C158.768509,194.829529 159.599747,195.728210 160.682495,196.810120 
	C159.854065,198.606766 158.774124,200.220184 157.405426,201.985550 
	C156.341049,201.398819 155.565399,200.660141 154.465363,199.944885 
	C155.226379,198.082047 156.311798,196.195801 157.667236,194.120193 
z"/>
<path fill="#EFF1F4" opacity="1.000000" stroke="none" 
	d="
M160.028168,72.577026 
	C159.752869,74.120941 159.352966,75.366074 158.956924,77.009918 
	C157.565094,75.521133 156.169388,73.633621 154.666229,71.403191 
	C155.254410,70.444565 155.950043,69.828857 156.910049,68.968620 
	C158.084122,69.908806 158.993835,71.093529 160.028168,72.577026 
z"/>
<path fill="#FDFDFD" opacity="1.000000" stroke="none" 
	d="
M388.537231,84.760132 
	C387.793549,80.711250 387.468597,76.842377 387.152557,72.972778 
	C387.139648,72.815041 387.191345,72.516151 387.245911,72.508156 
	C390.948944,71.965958 394.656128,71.105904 398.361176,71.113678 
	C399.630859,71.116333 401.281311,73.094795 402.041992,74.545830 
	C402.656342,75.717796 402.067596,77.468063 402.234833,78.936462 
	C402.788422,83.796417 400.517609,85.561806 395.881378,85.120987 
	C393.588440,84.902954 391.266388,84.990654 388.537231,84.760132 
z"/>
<path fill="#FFFFFF" opacity="1.000000" stroke="none" 
	d="
M607.689087,70.913712 
	C611.741760,70.946259 613.113403,72.936256 613.100952,76.346756 
	C613.061584,87.178703 613.047302,98.011116 613.109314,108.842857 
	C613.130859,112.604187 611.518616,114.436165 607.684875,114.220711 
	C606.189880,114.136696 604.680359,114.125175 603.187256,114.226204 
	C598.727539,114.527977 596.816101,112.514389 596.871887,108.035789 
	C596.996582,98.038490 596.887695,88.038490 596.917480,78.039719 
	C596.936340,71.700058 597.737976,70.953613 604.239990,70.910240 
	C605.239807,70.903572 606.239746,70.910110 607.689087,70.913712 
z"/>
<path fill="#FAFBFC" opacity="1.000000" stroke="none" 
	d="
M329.169800,179.011566 
	C329.169586,187.837296 329.066772,196.167648 329.218384,204.493393 
	C329.280914,207.926529 328.041229,209.293671 324.560028,209.208832 
	C310.542023,208.867142 313.417358,211.131973 313.191010,198.070389 
	C313.023590,188.412231 313.280975,178.746460 313.095215,169.088974 
	C313.024902,165.434036 314.220490,164.113251 317.958313,164.083786 
	C329.170776,163.995392 329.169739,163.862991 329.169769,175.016357 
	C329.169800,176.182358 329.169800,177.348343 329.169800,179.011566 
z"/>
<path fill="#FEFEFE" opacity="1.000000" stroke="none" 
	d="
M771.844299,187.999329 
	C771.844604,181.678192 771.770386,175.855576 771.868164,170.035858 
	C771.950195,165.155487 773.528381,164.086273 780.033325,164.174179 
	C783.915588,164.226639 787.332520,164.461945 787.223206,169.943222 
	C786.997803,181.248779 787.062866,192.563141 787.205750,203.871399 
	C787.254944,207.769821 785.649292,209.381531 781.864685,209.170273 
	C780.206543,209.077713 778.537415,209.106705 776.876099,209.163574 
	C773.255310,209.287521 771.783447,207.459030 771.830139,203.967010 
	C771.899109,198.811905 771.845642,193.655151 771.844299,187.999329 
z"/>
<path fill="#EFF1F4" opacity="1.000000" stroke="none" 
	d="
M710.195129,178.199173 
	C710.939453,174.528397 711.600708,171.276474 712.261963,168.024536 
	C712.488953,167.990158 712.716003,167.955765 712.942993,167.921387 
	C714.540955,176.061859 716.138916,184.202316 717.790039,192.613708 
	C714.221375,192.613708 711.130249,192.613708 707.602234,192.613708 
	C708.477295,187.734222 709.294678,183.176117 710.195129,178.199173 
z"/>
<path fill="#FDFDFD" opacity="1.000000" stroke="none" 
	d="
M542.989014,74.478394 
	C542.993835,78.571350 543.422119,82.289398 542.793030,85.819000 
	C542.499329,87.466782 540.333801,89.705154 538.710876,90.001656 
	C535.210449,90.641174 531.512146,90.198280 527.496460,90.198280 
	C527.496460,83.432564 527.496460,77.090744 527.496460,70.051704 
	C531.489319,70.051704 535.440247,69.707748 539.271667,70.234024 
	C540.655151,70.424049 541.751831,72.701454 542.989014,74.478394 
z"/>
</svg>