<svg version="1.1" id="Layer_1" xmlns="http://www.w3.org/2000/svg" xmlns:xlink="http://www.w3.org/1999/xlink" x="0px" y="0px"
	 width="100%" viewBox="0 0 340 112" enable-background="new 0 0 340 112" xml:space="preserve">
<path fill="#47704C" opacity="1.000000" stroke="none" 
	d="
M341.000000,58.000000 
	C341.000000,74.687561 341.000000,91.375122 340.531342,108.531342 
	C253.253860,109.000000 166.445038,109.000000 79.636215,109.000000 
	C79.520088,108.393997 79.403961,107.787994 79.287834,107.181999 
	C80.391006,106.304131 81.441528,105.348541 82.605309,104.560135 
	C98.792961,93.593681 107.206520,78.465858 105.796967,58.822350 
	C105.162231,49.976650 103.519058,40.994694 96.890488,33.673515 
	C95.345169,32.097038 93.909370,30.847038 92.419281,29.556391 
	C92.365005,29.515741 92.446289,29.407169 92.419495,29.054121 
	C91.223503,27.481411 90.054306,26.261749 88.682678,24.941055 
	C88.227600,24.655035 88.053581,24.413427 87.889275,23.753380 
	C87.260574,20.428371 85.555779,19.113949 82.443893,19.697475 
	C82.365234,19.682491 82.366226,19.522356 82.358788,19.149721 
	C80.854858,16.916779 79.718575,14.082852 77.796860,13.371860 
	C71.011330,10.861367 64.076302,8.186707 56.975330,7.234443 
	C47.099010,5.909993 38.180218,8.835553 29.140734,13.985568 
	C20.274704,19.036760 13.676764,25.178328 9.159463,33.917366 
	C8.251670,35.673557 8.429406,37.990871 8.076467,40.412270 
	C8.068503,41.502098 8.090714,42.229130 8.063787,43.232128 
	C8.184207,47.233200 10.608862,46.637608 13.010568,46.131596 
	C14.886496,45.736359 16.770973,45.381699 18.651653,45.009014 
	C18.807762,45.547798 18.963869,46.086582 19.119978,46.625370 
	C16.685955,47.897530 14.264643,49.194756 11.815336,50.436771 
	C6.273499,53.246967 5.101617,52.633072 5.045321,46.503769 
	C4.944325,35.507793 4.983896,24.510242 5.010848,13.513465 
	C5.030155,5.635817 5.645184,5.057480 13.592657,5.004103 
	C15.425394,4.991793 17.258274,5.000104 19.091089,5.000102 
	C126.394058,4.999989 233.697037,5.000000 341.000000,5.000000 
	C341.000000,16.354227 341.000000,27.708456 340.645325,39.439751 
	C337.024658,39.042698 333.790588,38.050766 330.482208,37.566448 
	C328.032043,37.207771 325.452606,37.767548 322.989197,37.455933 
	C319.333771,36.993515 316.630157,37.367210 316.855560,41.991074 
	C316.879669,42.018932 316.831543,42.074722 316.482849,41.836971 
	C312.900909,38.885620 309.795624,36.908157 304.949158,38.075764 
	C300.776123,39.081120 296.129547,38.900829 291.808685,38.343231 
	C283.922455,37.325527 276.271332,36.652843 269.344849,41.719040 
	C269.295532,41.683640 269.338104,41.569904 269.345764,41.223633 
	C268.326630,39.869236 267.343658,38.042828 266.266022,37.985134 
	C259.003967,37.596378 251.721024,37.462406 244.446609,37.510872 
	C241.803558,37.528477 239.403427,38.495811 240.067856,42.450302 
	C239.968063,43.899227 239.900711,44.953140 239.661224,46.180511 
	C239.359314,47.254581 239.229523,48.155197 239.076660,49.374619 
	C239.078094,50.118435 239.102585,50.543449 239.044128,51.238571 
	C239.345398,54.020138 239.729599,56.531590 240.078735,59.499184 
	C240.067032,63.622524 240.090393,67.289719 240.068817,71.244339 
	C240.216599,75.319603 243.216248,74.942932 245.538239,74.905495 
	C253.790726,74.772423 262.038391,74.189743 270.289398,74.156693 
	C279.390198,74.120224 288.500397,74.349976 297.588715,74.812981 
	C299.728119,74.921982 301.730621,76.720215 303.915314,77.216354 
	C306.137360,77.720970 309.420258,78.610741 310.643982,77.528595 
	C314.689087,73.951431 318.820801,73.737610 323.593079,75.065529 
	C325.321564,75.546494 327.225891,75.719406 329.016571,75.585670 
	C332.750549,75.306793 335.985748,73.861443 336.604187,69.718300 
	C337.184662,65.829399 336.282471,62.384327 331.676453,60.935871 
	C331.226593,60.654606 331.055511,60.415852 331.253204,59.881653 
	C334.695557,59.095024 337.847778,58.547512 341.000000,58.000000 
M174.818253,19.367870 
	C174.085236,15.742474 171.946548,13.647235 168.231033,14.656348 
	C164.743546,15.603531 161.840683,17.533325 163.041458,22.874037 
	C163.706406,25.542194 164.371338,28.210352 164.936371,31.590979 
	C164.995529,33.408325 165.054672,35.225670 165.042526,37.867931 
	C164.972809,39.245281 164.903076,40.622631 164.009155,42.003227 
	C162.634705,42.016373 161.260239,42.029522 159.360535,41.755463 
	C158.559738,40.875370 157.758957,39.995277 156.828781,38.394730 
	C154.200928,35.901581 151.996719,32.321644 148.871841,31.103464 
	C135.362747,25.837166 118.997574,33.958210 114.410011,47.754276 
	C113.871483,49.373802 114.187164,51.277378 114.041023,53.960781 
	C114.062225,57.623428 114.083435,61.286076 113.903419,65.595146 
	C113.521309,70.723450 114.665230,75.017555 120.639977,77.244995 
	C121.440437,78.124756 122.240898,79.004524 123.202675,80.576958 
	C125.084221,85.494484 129.354904,87.674042 133.921890,88.412766 
	C142.174683,89.747681 150.433441,89.863396 157.776657,84.514359 
	C159.870956,82.988815 162.467255,82.152428 164.941589,81.735092 
	C164.998978,82.475708 165.056381,83.216316 165.023880,84.531380 
	C166.507187,85.660126 167.866776,87.474297 169.500580,87.769173 
	C172.526855,88.315361 175.713501,87.973038 178.935974,88.915291 
	C178.990692,92.591721 179.045410,96.268150 179.012924,100.521706 
	C179.272934,101.275246 179.475418,102.656029 179.801773,102.685966 
	C183.334229,103.009964 187.022720,103.730820 190.363281,102.981651 
	C191.640274,102.695267 192.734222,98.950554 192.876373,96.715973 
	C193.412247,88.292542 193.284821,88.002541 201.573822,88.951210 
	C226.300781,91.781189 240.779129,68.894913 230.867310,49.186901 
	C229.642563,46.751720 226.915848,45.071930 224.331131,42.727028 
	C222.873474,41.189739 221.415817,39.652451 219.830276,37.391212 
	C218.037399,35.406162 216.615738,32.579689 214.381912,31.594202 
	C207.744110,28.665850 201.160187,28.693645 194.262711,32.216942 
	C191.187363,33.787853 186.603622,33.053791 182.895523,32.353806 
	C181.742828,32.136215 181.503555,28.407148 180.334595,26.620291 
	C178.794617,24.266302 176.749985,22.242464 174.967789,20.047585 
	C174.967789,20.047585 174.945450,20.093941 174.818253,19.367870 
z"/>
<path fill="#47704C" opacity="1.000000" stroke="none" 
	d="
M97.000000,34.000000 
	C103.519058,40.994694 105.162231,49.976650 105.796967,58.822350 
	C107.206520,78.465858 98.792961,93.593681 82.605309,104.560135 
	C81.441528,105.348541 80.391006,106.304131 79.287834,107.181999 
	C79.403961,107.787994 79.520088,108.393997 79.636215,109.000000 
	C166.445038,109.000000 253.253860,109.000000 340.531342,109.000000 
	C341.000000,110.332497 341.000000,111.665001 341.000000,112.998123 
	C227.738373,112.998749 114.476738,112.998749 1.107554,112.998749 
	C1.107554,75.761993 1.107554,38.523567 1.107554,1.142571 
	C114.333176,1.142571 227.666580,1.142571 341.000000,1.142571 
	C341.000000,2.001293 341.000000,3.000647 341.000000,4.500000 
	C233.697037,5.000000 126.394058,4.999989 19.091089,5.000102 
	C17.258274,5.000104 15.425394,4.991793 13.592657,5.004103 
	C5.645184,5.057480 5.030155,5.635817 5.010848,13.513465 
	C4.983896,24.510242 4.944325,35.507793 5.045321,46.503769 
	C5.101617,52.633072 6.273499,53.246967 11.815336,50.436771 
	C14.264643,49.194756 16.685955,47.897530 19.119978,46.625370 
	C18.963869,46.086582 18.807762,45.547798 18.651653,45.009014 
	C16.770973,45.381699 14.886496,45.736359 13.010568,46.131596 
	C10.608862,46.637608 8.184207,47.233200 8.426911,43.202515 
	C26.769999,35.547218 45.458633,32.010658 64.759171,31.443092 
	C63.375000,32.599285 61.891205,33.312828 60.329319,33.742573 
	C42.164032,38.740669 24.957464,46.025021 8.851225,55.768379 
	C7.005686,56.884823 5.091972,59.903481 5.229638,61.900951 
	C5.623448,67.614922 7.057422,73.257202 7.754149,79.101196 
	C6.672731,80.492325 5.302476,81.692635 5.267775,82.930374 
	C5.063099,90.230888 5.064900,97.542297 5.218926,104.845367 
	C5.285882,108.020073 7.675850,108.905304 10.440351,108.932976 
	C15.091841,108.979523 19.744530,109.037216 24.395269,108.977531 
	C27.078995,108.943092 29.759884,108.687668 32.793636,108.511261 
	C28.759354,104.148636 25.397512,100.513184 22.386715,96.942200 
	C26.289972,99.037758 29.853100,101.050064 33.390812,103.106110 
	C36.051098,104.652206 37.657310,104.125946 39.394337,101.333931 
	C53.698429,78.342209 72.056648,59.086586 94.209419,43.577320 
	C98.205696,40.779510 98.824646,38.451527 96.515152,34.539200 
	C96.676765,34.359467 97.000000,34.000000 97.000000,34.000000 
M53.998844,107.980225 
	C73.471733,108.176170 87.614220,98.909187 96.612274,82.316750 
	C103.084618,70.381714 104.229439,57.425201 99.202423,43.583801 
	C96.381020,45.895966 93.953194,47.415092 92.122047,49.466751 
	C83.681679,58.923553 75.407585,68.528755 66.873947,77.589806 
	C64.936119,74.833580 63.790771,77.123589 62.772499,78.382370 
	C57.239990,85.221603 51.628113,92.009346 46.421406,99.092560 
	C44.587704,101.587128 43.824184,104.868355 42.572025,107.790398 
	C46.082829,107.843109 49.593636,107.895821 53.998844,107.980225 
z"/>
<path fill="#47704C" opacity="1.000000" stroke="none" 
	d="
M331.876648,61.034698 
	C336.282471,62.384327 337.184662,65.829399 336.604187,69.718300 
	C335.985748,73.861443 332.750549,75.306793 329.016571,75.585670 
	C327.225891,75.719406 325.321564,75.546494 323.593079,75.065529 
	C318.820801,73.737610 314.689087,73.951431 310.643982,77.528595 
	C309.420258,78.610741 306.137360,77.720970 303.915314,77.216354 
	C301.730621,76.720215 299.728119,74.921982 297.588715,74.812981 
	C288.500397,74.349976 279.390198,74.120224 270.289398,74.156693 
	C262.038391,74.189743 253.790726,74.772423 245.538239,74.905495 
	C243.216248,74.942932 240.216599,75.319603 240.417847,71.249756 
	C242.874359,70.922943 244.936905,70.878143 247.384735,70.882446 
	C249.190918,70.282791 250.611847,69.634018 252.323166,69.178764 
	C255.272095,72.495369 259.340668,72.655319 260.875366,69.803726 
	C262.289276,67.176628 260.858795,63.018719 260.681244,59.535126 
	C260.397644,59.679050 260.114014,59.822975 259.711578,59.881622 
	C259.473816,59.726650 259.354919,59.656956 259.235992,59.587265 
	C259.433594,59.745064 259.631195,59.902863 259.881165,60.428497 
	C259.948395,61.125599 260.067627,61.493755 259.961670,61.777985 
	C259.114502,64.050766 258.224670,66.307663 257.347900,68.569412 
	C256.560486,66.559486 255.539215,64.604080 255.054138,62.523659 
	C254.606781,60.604984 255.092453,58.113754 251.711563,59.881638 
	C251.473801,59.726646 251.354874,59.656948 251.235962,59.587250 
	C251.433594,59.745045 251.631210,59.902851 251.881500,60.452126 
	C251.996292,63.588573 252.058411,66.333542 251.693207,69.053085 
	C249.857773,68.979958 248.449692,68.932266 247.028809,68.445663 
	C247.016022,65.212799 247.016022,62.418846 247.016022,59.473053 
	C244.332138,59.305847 242.222961,59.174446 240.113800,59.043045 
	C239.729599,56.531590 239.345398,54.020138 239.320007,51.461189 
	C241.191559,52.258049 242.652222,53.692802 244.227127,53.831635 
	C248.298676,54.190556 252.445099,54.247292 256.512085,53.878506 
	C258.526031,53.695885 260.430817,52.309551 262.683136,51.339409 
	C263.647644,51.928215 265.334473,52.957966 267.428345,54.236191 
	C267.016571,51.356571 266.768036,49.618504 266.519501,47.880436 
	C266.906433,47.818630 267.293365,47.756821 267.680267,47.695015 
	C269.174408,49.712547 270.668518,51.730083 272.162659,53.747612 
	C273.745087,51.964550 275.327545,50.181484 277.261902,48.001877 
	C277.857147,50.333385 278.309357,52.104595 278.564789,53.105083 
	C280.899139,53.105083 282.949158,52.499065 284.003601,53.264496 
	C285.215027,54.143856 285.544922,56.237633 286.582367,58.517258 
	C288.586334,55.954269 290.378693,53.661934 292.341125,51.152069 
	C296.296936,55.008118 300.122528,53.584175 304.263885,52.486275 
	C306.679291,51.845936 309.911591,53.813465 312.110596,52.937122 
	C315.744263,51.489052 312.747406,48.305267 312.749908,45.831089 
	C312.753906,41.928528 310.986023,40.400650 307.187347,41.419415 
	C305.682220,41.823067 304.111603,42.132595 302.560699,42.184631 
	C299.171295,42.298359 295.775452,42.219822 292.951324,42.219822 
	C287.069885,41.865070 281.721130,41.477081 276.365662,41.323345 
	C275.846039,41.308426 275.226074,42.707870 274.756042,43.511246 
	C273.971802,44.851765 273.271118,46.241173 272.090820,48.436722 
	C270.967560,45.653294 270.180878,43.703869 269.394196,41.754440 
	C276.271332,36.652843 283.922455,37.325527 291.808685,38.343231 
	C296.129547,38.900829 300.776123,39.081120 304.949158,38.075764 
	C309.795624,36.908157 312.900909,38.885620 316.534546,42.151627 
	C316.934967,46.294395 316.934967,49.884758 316.934967,54.940144 
	C321.621674,53.542648 325.062134,52.516769 328.623596,51.454803 
	C330.206238,54.716572 333.037354,55.243225 336.933380,51.956810 
	C335.048004,51.318958 333.387909,50.757324 331.287628,50.046768 
	C333.226837,49.144367 334.570282,48.519188 336.749390,47.505150 
	C334.492035,46.358437 333.130249,45.666676 331.336151,44.755295 
	C333.602600,44.086548 335.198822,43.615574 337.294250,42.997284 
	C332.641724,39.916008 330.193115,40.407162 328.029816,44.316563 
	C324.770599,41.281349 321.186310,39.733372 316.831451,41.963219 
	C316.630157,37.367210 319.333771,36.993515 322.989197,37.455933 
	C325.452606,37.767548 328.032043,37.207771 330.482208,37.566448 
	C333.790588,38.050766 337.024658,39.042698 340.645325,39.908409 
	C341.000000,45.688042 341.000000,51.376080 341.000000,57.532063 
	C337.847778,58.547512 334.695557,59.095024 330.906982,59.700726 
	C325.398956,57.931164 321.880005,59.198269 319.099976,64.243011 
	C319.099976,61.783955 319.099976,59.324902 319.099976,56.760464 
	C314.279083,55.321648 312.702698,55.804386 313.288177,58.806240 
	C314.257935,63.778538 311.976776,67.423027 307.049774,68.289322 
	C306.048859,68.465294 304.525299,67.779716 303.835266,66.979988 
	C303.225220,66.272957 302.948700,64.519783 303.415009,63.831951 
	C304.015564,62.946171 305.470673,62.318707 306.617920,62.208828 
	C307.944427,62.081783 309.336456,62.638649 311.075928,62.970234 
	C308.736511,57.709103 306.046661,57.760254 299.787994,62.130268 
	C297.570526,61.251053 294.797241,59.443687 294.134369,60.028481 
	C292.497772,61.472301 291.828827,64.012993 290.477753,66.694611 
	C289.997650,63.640480 289.648102,61.416969 289.298584,59.193459 
	C288.830444,59.202168 288.362305,59.210876 287.894165,59.219585 
	C287.395111,60.774387 286.896057,62.329189 286.307312,64.163460 
	C284.228577,62.253410 282.358154,60.534771 280.487732,58.816132 
	C279.990753,59.067299 279.493774,59.318466 278.996796,59.569637 
	C279.175323,63.239861 279.353851,66.910080 279.532379,70.580307 
	C280.203613,70.598396 280.874847,70.616486 281.546082,70.634575 
	C281.752838,69.089371 281.959595,67.544167 282.403076,65.988586 
	C282.639771,65.978218 283.113159,65.956978 283.380005,66.178574 
	C285.193848,69.614807 287.974182,72.816162 291.146973,70.644928 
	C295.500824,67.665436 298.753510,70.927399 302.445801,71.071846 
	C303.751221,71.122910 305.100739,74.676285 306.188904,74.550133 
	C307.757690,74.368263 309.013885,72.159561 310.566711,71.042740 
	C314.891968,67.931915 319.331573,70.420578 323.782593,70.752655 
	C326.451691,70.951797 330.342224,70.815346 331.623291,69.197823 
	C332.980194,67.484550 331.895142,63.837276 331.876648,61.034698 
M270.148743,68.473877 
	C271.925018,68.879517 273.701324,69.285156 275.477570,69.690796 
	C275.172516,66.355827 274.867462,63.020863 274.562439,59.685886 
	C272.571228,60.548809 270.580017,61.411732 268.588776,62.274654 
	C268.279053,62.915081 267.969299,63.555508 267.659576,64.195930 
	C266.819763,62.234974 265.979950,60.274017 265.140167,58.313061 
	C264.680084,58.681877 264.220001,59.050697 263.759918,59.419514 
	C263.759918,63.172668 263.759918,66.925827 263.759918,70.678986 
	C264.150665,70.735062 264.541443,70.791138 264.932190,70.847214 
	C265.445404,69.782730 265.958588,68.718246 266.470520,67.656425 
	C267.470215,68.004890 268.518555,68.370323 270.148743,68.473877 
z"/>
<path fill="#0072B5" opacity="1.000000" stroke="none" 
	d="
M8.082349,78.927673 
	C7.057422,73.257202 5.623448,67.614922 5.229638,61.900951 
	C5.091972,59.903481 7.005686,56.884823 8.851225,55.768379 
	C24.957464,46.025021 42.164032,38.740669 60.329319,33.742573 
	C61.891205,33.312828 63.375000,32.599285 64.759171,31.443092 
	C45.458633,32.010658 26.769999,35.547218 8.476049,42.926548 
	C8.090714,42.229130 8.068503,41.502098 8.340032,40.192673 
	C9.238671,38.432266 9.794084,37.225643 10.455937,36.080544 
	C19.560038,20.329203 32.654480,11.396972 51.368378,10.874611 
	C62.774361,10.556236 72.869217,13.646862 82.366226,19.522356 
	C82.366226,19.522356 82.365234,19.682491 82.621635,19.950289 
	C84.571419,21.517122 86.264801,22.816160 87.958183,24.115196 
	C88.053581,24.413427 88.227600,24.655035 88.835022,25.230118 
	C90.275307,26.882534 91.360802,28.144852 92.446289,29.407169 
	C92.446289,29.407169 92.365005,29.515741 92.533157,29.811844 
	C92.800064,31.349995 92.898819,32.592041 92.616638,33.912880 
	C85.824509,36.382904 79.413307,38.774136 72.659111,41.147926 
	C70.878967,41.809208 69.441811,42.487938 67.642082,43.152771 
	C48.575367,51.120758 31.437094,61.555496 16.185995,75.108231 
	C14.067327,76.990967 12.247720,80.907387 8.044748,78.930878 
	C8.035130,78.956398 8.082349,78.927673 8.082349,78.927673 
z"/>
<path fill="#0072B5" opacity="1.000000" stroke="none" 
	d="
M179.100128,99.944580 
	C179.045410,96.268150 178.990692,92.591721 178.936096,87.991730 
	C178.957809,72.587662 178.973938,58.107147 179.003403,43.626663 
	C179.017120,36.884617 179.787338,36.170937 186.481613,37.084396 
	C187.845001,37.270439 189.131683,38.018585 190.493042,38.522148 
	C200.188095,30.692289 210.047974,32.495049 219.958160,38.115166 
	C221.415817,39.652451 222.873474,41.189739 224.775665,43.195850 
	C225.629013,44.383610 226.040237,45.101189 226.446304,45.821674 
	C231.600174,54.966209 231.662491,64.219040 226.300156,73.170914 
	C221.508331,81.170372 214.125809,85.474556 204.746124,84.855652 
	C199.573044,84.514320 194.496155,82.715034 188.999985,81.489189 
	C188.999985,84.011444 189.054932,87.150215 188.990005,90.286514 
	C188.766830,101.065193 190.799072,99.985748 179.100128,99.944580 
M208.306839,74.024399 
	C217.069214,71.787598 223.085892,60.523041 217.302185,51.531334 
	C213.288574,45.291531 205.350388,42.114021 198.943634,45.038315 
	C191.040894,48.645424 186.960953,56.903873 189.574799,64.023842 
	C191.769012,70.000778 198.727005,76.704605 208.306839,74.024399 
z"/>
<path fill="#0072B5" opacity="1.000000" stroke="none" 
	d="
M123.041359,79.884285 
	C122.240898,79.004524 121.440437,78.124756 120.213036,76.794693 
	C117.892273,72.545837 115.998451,68.747284 114.104637,64.948723 
	C114.083435,61.286076 114.062225,57.623428 114.332596,53.265125 
	C118.025696,42.596134 124.285118,35.947781 135.059708,33.756729 
	C143.373199,32.066151 150.280914,34.799419 156.958176,39.115189 
	C157.758957,39.995277 158.559738,40.875370 159.766296,42.195396 
	C159.573990,44.128944 159.353195,45.988163 158.317108,47.057327 
	C151.138702,54.465015 143.779129,61.696854 136.508514,69.015747 
	C135.302155,70.230110 134.246445,71.594147 132.941956,73.095192 
	C139.761368,75.333763 144.901169,74.839638 148.554703,71.892914 
	C155.076523,66.632797 155.139282,66.629509 162.915176,71.292686 
	C160.119110,77.756569 155.102386,81.828117 148.597336,83.900177 
	C139.508957,86.795082 130.980728,84.917824 123.041359,79.884285 
M129.009491,48.516850 
	C124.644035,52.960785 124.228867,58.166107 125.204056,62.210506 
	C131.128159,56.407154 137.415985,50.247471 143.532806,44.255329 
	C138.758270,43.125439 133.905991,44.463566 129.009491,48.516850 
z"/>
<path fill="#0072B5" opacity="1.000000" stroke="none" 
	d="
M269.344849,41.719040 
	C270.180878,43.703869 270.967560,45.653294 272.090820,48.436722 
	C273.271118,46.241173 273.971802,44.851765 274.756042,43.511246 
	C275.226074,42.707870 275.846039,41.308426 276.365662,41.323345 
	C281.721130,41.477081 287.069885,41.865070 292.951324,42.219822 
	C295.775452,42.219822 299.171295,42.298359 302.560699,42.184631 
	C304.111603,42.132595 305.682220,41.823067 307.187347,41.419415 
	C310.986023,40.400650 312.753906,41.928528 312.749908,45.831089 
	C312.747406,48.305267 315.744263,51.489052 312.110596,52.937122 
	C309.911591,53.813465 306.679291,51.845936 304.263885,52.486275 
	C300.122528,53.584175 296.296936,55.008118 292.341125,51.152069 
	C290.378693,53.661934 288.586334,55.954269 286.582367,58.517258 
	C285.544922,56.237633 285.215027,54.143856 284.003601,53.264496 
	C282.949158,52.499065 280.899139,53.105083 278.564789,53.105083 
	C278.309357,52.104595 277.857147,50.333385 277.261902,48.001877 
	C275.327545,50.181484 273.745087,51.964550 272.162659,53.747612 
	C270.668518,51.730083 269.174408,49.712547 267.680267,47.695015 
	C267.293365,47.756821 266.906433,47.818630 266.519501,47.880436 
	C266.768036,49.618504 267.016571,51.356571 267.428345,54.236191 
	C265.334473,52.957966 263.647644,51.928215 262.683136,51.339409 
	C260.430817,52.309551 258.526031,53.695885 256.512085,53.878506 
	C252.445099,54.247292 248.298676,54.190556 244.227127,53.831635 
	C242.652222,53.692802 241.191559,52.258049 239.402954,51.191074 
	C239.102585,50.543449 239.078094,50.118435 239.423035,49.367340 
	C240.666000,49.282368 241.539536,49.523476 242.602234,49.953941 
	C243.346603,50.209721 243.901764,50.276138 244.456940,50.342560 
	C243.997406,49.869587 243.537872,49.396614 242.885895,48.670921 
	C241.740097,47.614483 240.786713,46.810768 239.833344,46.007050 
	C239.900711,44.953140 239.968063,43.899227 240.429550,42.393288 
	C243.318527,42.107971 245.818497,42.469612 248.307251,42.404247 
	C255.320007,42.220078 262.328156,41.860401 269.338104,41.569904 
	C269.338104,41.569904 269.295532,41.683640 269.344849,41.719040 
M291.504669,45.886337 
	C290.344482,45.320480 289.204071,44.361080 288.018494,44.301628 
	C286.877563,44.244419 285.239899,44.809261 284.649780,45.669601 
	C284.062683,46.525604 284.052246,48.390907 284.627167,49.257652 
	C285.202698,50.125340 287.296661,51.032341 287.879578,50.646111 
	C289.427582,49.620403 290.519623,47.906494 291.504669,45.886337 
M301.828979,47.497700 
	C300.309326,46.502464 298.841248,45.390816 297.202240,44.665146 
	C297.006073,44.578297 295.304504,46.614357 295.347076,47.622234 
	C295.390289,48.645061 296.890533,50.528526 297.470917,50.426857 
	C298.977997,50.162857 300.330322,49.015491 301.828979,47.497700 
M252.825668,49.795666 
	C254.259140,50.050529 255.692627,50.305393 257.126068,50.560249 
	C257.427795,48.570076 257.729523,46.579906 258.118530,44.014145 
	C255.706680,44.203568 254.243134,44.318512 252.238037,44.475990 
	C253.946884,46.403217 259.191467,47.301010 252.825668,49.795666 
z"/>
<path fill="#47704C" opacity="1.000000" stroke="none" 
	d="
M123.122017,80.230621 
	C130.980728,84.917824 139.508957,86.795082 148.597336,83.900177 
	C155.102386,81.828117 160.119110,77.756569 162.915176,71.292686 
	C155.139282,66.629509 155.076523,66.632797 148.554703,71.892914 
	C144.901169,74.839638 139.761368,75.333763 132.941956,73.095192 
	C134.246445,71.594147 135.302155,70.230110 136.508514,69.015747 
	C143.779129,61.696854 151.138702,54.465015 158.317108,47.057327 
	C159.353195,45.988163 159.573990,44.128944 160.028931,42.339005 
	C161.260239,42.029522 162.634705,42.016373 164.472687,42.467850 
	C164.901917,55.621655 164.867645,68.310837 164.833359,81.000031 
	C162.467255,82.152428 159.870956,82.988815 157.776657,84.514359 
	C150.433441,89.863396 142.174683,89.747681 133.921890,88.412766 
	C129.354904,87.674042 125.084221,85.494484 123.122017,80.230621 
z"/>
<path fill="#47704C" opacity="1.000000" stroke="none" 
	d="
M219.894226,37.753189 
	C210.047974,32.495049 200.188095,30.692289 190.493042,38.522148 
	C189.131683,38.018585 187.845001,37.270439 186.481613,37.084396 
	C179.787338,36.170937 179.017120,36.884617 179.003403,43.626663 
	C178.973938,58.107147 178.957809,72.587662 178.884781,87.534454 
	C175.713501,87.973038 172.526855,88.315361 169.500580,87.769173 
	C167.866776,87.474297 166.507187,85.660126 165.513855,84.257401 
	C166.832108,83.988228 167.660416,83.999725 168.488647,83.996780 
	C174.969894,83.973770 174.986023,83.972939 174.995132,77.448792 
	C175.009476,67.178024 175.091476,56.906178 174.974777,46.636723 
	C174.852142,35.844971 176.708328,37.053761 165.113831,37.043015 
	C165.054672,35.225670 164.995529,33.408325 165.338104,31.419106 
	C169.346176,32.558620 172.925598,32.681908 175.550735,29.526327 
	C178.157669,26.392653 176.932236,23.113844 174.922318,20.076679 
	C176.749985,22.242464 178.794617,24.266302 180.334595,26.620291 
	C181.503555,28.407148 181.742828,32.136215 182.895523,32.353806 
	C186.603622,33.053791 191.187363,33.787853 194.262711,32.216942 
	C201.160187,28.693645 207.744110,28.665850 214.381912,31.594202 
	C216.615738,32.579689 218.037399,35.406162 219.894226,37.753189 
z"/>
<path fill="#0072B5" opacity="1.000000" stroke="none" 
	d="
M165.078186,37.455475 
	C176.708328,37.053761 174.852142,35.844971 174.974777,46.636723 
	C175.091476,56.906178 175.009476,67.178024 174.995132,77.448792 
	C174.986023,83.972939 174.969894,83.973770 168.488647,83.996780 
	C167.660416,83.999725 166.832108,83.988228 165.558807,83.970177 
	C165.056381,83.216316 164.998978,82.475708 164.887482,81.367554 
	C164.867645,68.310837 164.901917,55.621655 164.884781,42.466225 
	C164.903076,40.622631 164.972809,39.245281 165.078186,37.455475 
z"/>
<path fill="#0072B5" opacity="1.000000" stroke="none" 
	d="
M282.166351,65.998962 
	C281.959595,67.544167 281.752838,69.089371 281.546082,70.634575 
	C280.874847,70.616486 280.203613,70.598396 279.532379,70.580307 
	C279.353851,66.910080 279.175323,63.239861 278.996796,59.569637 
	C279.493774,59.318466 279.990753,59.067299 280.487732,58.816132 
	C282.358154,60.534771 284.228577,62.253410 286.307312,64.163460 
	C286.896057,62.329189 287.395111,60.774387 287.894165,59.219585 
	C288.362305,59.210876 288.830444,59.202168 289.298584,59.193459 
	C289.648102,61.416969 289.997650,63.640480 290.477753,66.694611 
	C291.828827,64.012993 292.497772,61.472301 294.134369,60.028481 
	C294.797241,59.443687 297.570526,61.251053 299.787994,62.130268 
	C306.046661,57.760254 308.736511,57.709103 311.075928,62.970234 
	C309.336456,62.638649 307.944427,62.081783 306.617920,62.208828 
	C305.470673,62.318707 304.015564,62.946171 303.415009,63.831951 
	C302.948700,64.519783 303.225220,66.272957 303.835266,66.979988 
	C304.525299,67.779716 306.048859,68.465294 307.049774,68.289322 
	C311.976776,67.423027 314.257935,63.778538 313.288177,58.806240 
	C312.702698,55.804386 314.279083,55.321648 319.099976,56.760464 
	C319.099976,59.324902 319.099976,61.783955 319.099976,64.243011 
	C321.880005,59.198269 325.398956,57.931164 330.616882,59.939842 
	C331.055511,60.415852 331.226593,60.654606 331.676453,60.935871 
	C331.895142,63.837276 332.980194,67.484550 331.623291,69.197823 
	C330.342224,70.815346 326.451691,70.951797 323.782593,70.752655 
	C319.331573,70.420578 314.891968,67.931915 310.566711,71.042740 
	C309.013885,72.159561 307.757690,74.368263 306.188904,74.550133 
	C305.100739,74.676285 303.751221,71.122910 302.445801,71.071846 
	C298.753510,70.927399 295.500824,67.665436 291.146973,70.644928 
	C287.974182,72.816162 285.193848,69.614807 283.275269,66.024414 
	C282.657898,65.765419 282.412140,65.882187 282.166351,65.998962 
M329.554230,66.712944 
	C329.011902,65.212402 328.469574,63.711864 327.927246,62.211327 
	C326.668304,62.740505 325.011414,62.959885 324.279846,63.899616 
	C323.722656,64.615341 324.104248,67.207504 324.476105,67.298538 
	C325.925568,67.653381 327.537506,67.344536 329.554230,66.712944 
z"/>
<path fill="#47704C" opacity="1.000000" stroke="none" 
	d="
M179.056519,100.233139 
	C190.799072,99.985748 188.766830,101.065193 188.990005,90.286514 
	C189.054932,87.150215 188.999985,84.011444 188.999985,81.489189 
	C194.496155,82.715034 199.573044,84.514320 204.746124,84.855652 
	C214.125809,85.474556 221.508331,81.170372 226.300156,73.170914 
	C231.662491,64.219040 231.600174,54.966209 226.446304,45.821674 
	C226.040237,45.101189 225.629013,44.383610 225.052673,43.353386 
	C226.915848,45.071930 229.642563,46.751720 230.867310,49.186901 
	C240.779129,68.894913 226.300781,91.781189 201.573822,88.951210 
	C193.284821,88.002541 193.412247,88.292542 192.876373,96.715973 
	C192.734222,98.950554 191.640274,102.695267 190.363281,102.981651 
	C187.022720,103.730820 183.334229,103.009964 179.801773,102.685966 
	C179.475418,102.656029 179.272934,101.275246 179.056519,100.233139 
z"/>
<path fill="#47704C" opacity="1.000000" stroke="none" 
	d="
M82.358788,19.149721 
	C72.869217,13.646862 62.774361,10.556236 51.368378,10.874611 
	C32.654480,11.396972 19.560038,20.329203 10.455937,36.080544 
	C9.794084,37.225643 9.238671,38.432266 8.370206,39.829876 
	C8.429406,37.990871 8.251670,35.673557 9.159463,33.917366 
	C13.676764,25.178328 20.274704,19.036760 29.140734,13.985568 
	C38.180218,8.835553 47.099010,5.909993 56.975330,7.234443 
	C64.076302,8.186707 71.011330,10.861367 77.796860,13.371860 
	C79.718575,14.082852 80.854858,16.916779 82.358788,19.149721 
z"/>
<path fill="#47704C" opacity="1.000000" stroke="none" 
	d="
M156.893478,38.754959 
	C150.280914,34.799419 143.373199,32.066151 135.059708,33.756729 
	C124.285118,35.947781 118.025696,42.596134 114.365509,52.809372 
	C114.187164,51.277378 113.871483,49.373802 114.410011,47.754276 
	C118.997574,33.958210 135.362747,25.837166 148.871841,31.103464 
	C151.996719,32.321644 154.200928,35.901581 156.893478,38.754959 
z"/>
<path fill="#0072B5" opacity="1.000000" stroke="none" 
	d="
M174.945053,20.062134 
	C176.932236,23.113844 178.157669,26.392653 175.550735,29.526327 
	C172.925598,32.681908 169.346176,32.558620 165.388062,31.062872 
	C164.371338,28.210352 163.706406,25.542194 163.343475,22.239738 
	C167.166626,17.279388 169.167892,17.011694 174.945450,20.093941 
	C174.945450,20.093941 174.967789,20.047585 174.945053,20.062134 
z"/>
<path fill="#47704C" opacity="1.000000" stroke="none" 
	d="
M269.345764,41.223633 
	C262.328156,41.860401 255.320007,42.220078 248.307251,42.404247 
	C245.818497,42.469612 243.318527,42.107971 240.461975,41.998276 
	C239.403427,38.495811 241.803558,37.528477 244.446609,37.510872 
	C251.721024,37.462406 259.003967,37.596378 266.266022,37.985134 
	C267.343658,38.042828 268.326630,39.869236 269.345764,41.223633 
z"/>
<path fill="#0072B5" opacity="1.000000" stroke="none" 
	d="
M240.078735,59.499184 
	C242.222961,59.174446 244.332138,59.305847 247.016022,59.473053 
	C247.016022,62.418846 247.016022,65.212799 247.021698,68.770454 
	C247.018066,69.967216 247.008759,70.400284 246.999466,70.833344 
	C244.936905,70.878143 242.874359,70.922943 240.462769,70.962326 
	C240.090393,67.289719 240.067032,63.622524 240.078735,59.499184 
z"/>
<path fill="#47704C" opacity="1.000000" stroke="none" 
	d="
M174.881851,19.730906 
	C169.167892,17.011694 167.166626,17.279388 163.376038,21.827469 
	C161.840683,17.533325 164.743546,15.603531 168.231033,14.656348 
	C171.946548,13.647235 174.085236,15.742474 174.881851,19.730906 
z"/>
<path fill="#47704C" opacity="1.000000" stroke="none" 
	d="
M114.004028,65.271935 
	C115.998451,68.747284 117.892273,72.545837 119.950493,76.651154 
	C114.665230,75.017555 113.521309,70.723450 114.004028,65.271935 
z"/>
<path fill="#47704C" opacity="1.000000" stroke="none" 
	d="
M87.889275,23.753380 
	C86.264801,22.816160 84.571419,21.517122 82.700287,19.965271 
	C85.555779,19.113949 87.260574,20.428371 87.889275,23.753380 
z"/>
<path fill="#47704C" opacity="1.000000" stroke="none" 
	d="
M92.997566,33.834087 
	C92.898819,32.592041 92.800064,31.349995 92.587440,29.852493 
	C93.909370,30.847038 95.345169,32.097038 96.890488,33.673515 
	C97.000000,34.000000 96.676765,34.359467 96.224640,34.336586 
	C94.847534,34.153835 93.922546,33.993961 92.997566,33.834087 
z"/>
<path fill="#47704C" opacity="1.000000" stroke="none" 
	d="
M239.661224,46.180511 
	C240.786713,46.810768 241.740097,47.614483 242.719055,48.880737 
	C242.634109,49.483711 242.523575,49.624146 242.413055,49.764584 
	C241.539536,49.523476 240.666000,49.282368 239.446106,49.048534 
	C239.229523,48.155197 239.359314,47.254581 239.661224,46.180511 
z"/>
<path fill="#47704C" opacity="1.000000" stroke="none" 
	d="
M92.419495,29.054119 
	C91.360802,28.144852 90.275307,26.882534 89.037460,25.331154 
	C90.054306,26.261749 91.223503,27.481411 92.419495,29.054119 
z"/>
<path fill="#F99F3F" opacity="1.000000" stroke="none" 
	d="
M92.616638,33.912880 
	C93.922546,33.993961 94.847534,34.153835 96.063019,34.516319 
	C98.824646,38.451527 98.205696,40.779510 94.209419,43.577320 
	C72.056648,59.086586 53.698429,78.342209 39.394337,101.333931 
	C37.657310,104.125946 36.051098,104.652206 33.390812,103.106110 
	C29.853100,101.050064 26.289972,99.037758 22.242882,96.652084 
	C19.870188,94.517540 17.992374,92.737572 15.982166,90.676552 
	C15.267819,89.579681 14.685870,88.763863 14.066449,87.585953 
	C14.056688,86.497429 14.084399,85.770996 14.407448,84.896065 
	C20.536423,79.144753 25.855536,72.841972 32.316555,68.092651 
	C43.861984,59.605907 56.096138,52.056107 68.376923,44.056664 
	C70.141693,43.054276 71.571892,42.109821 73.002098,41.165367 
	C79.413307,38.774136 85.824509,36.382904 92.616638,33.912880 
z"/>
<path fill="#0072B5" opacity="1.000000" stroke="none" 
	d="
M67.073868,78.080742 
	C75.407585,68.528755 83.681679,58.923553 92.122047,49.466751 
	C93.953194,47.415092 96.381020,45.895966 99.202423,43.583801 
	C104.229439,57.425201 103.084618,70.381714 96.612274,82.316750 
	C87.614220,98.909187 73.471733,108.176170 53.521942,107.602814 
	C53.064865,106.500732 53.084686,105.776062 53.368877,104.830910 
	C57.128647,97.419647 60.624046,90.228867 64.344070,82.871437 
	C64.726349,82.174980 64.883995,81.645180 65.318420,80.948723 
	C66.099113,79.863914 66.603035,78.945763 67.076996,78.027359 
	C67.047020,78.027100 67.073860,78.080742 67.073868,78.080742 
z"/>
<path fill="#47704C" opacity="1.000000" stroke="none" 
	d="
M14.112110,85.044563 
	C14.084399,85.770996 14.056688,86.497429 14.014902,87.838707 
	C14.705406,89.288239 15.409986,90.122925 16.114563,90.957611 
	C17.992374,92.737572 19.870188,94.517540 21.891836,96.587616 
	C25.397512,100.513184 28.759354,104.148636 32.793636,108.511261 
	C29.759884,108.687668 27.078995,108.943092 24.395269,108.977531 
	C19.744530,109.037216 15.091841,108.979523 10.440351,108.932976 
	C7.675850,108.905304 5.285882,108.020073 5.218926,104.845367 
	C5.064900,97.542297 5.063099,90.230888 5.267775,82.930374 
	C5.302476,81.692635 6.672731,80.492325 7.754149,79.101196 
	C8.082349,78.927673 8.035130,78.956398 8.108912,79.287689 
	C10.159166,81.427513 12.135638,83.236038 14.112110,85.044563 
z"/>
<path fill="#47704C" opacity="1.000000" stroke="none" 
	d="
M53.104507,105.051399 
	C53.084686,105.776062 53.064865,106.500732 53.074741,107.586960 
	C49.593636,107.895821 46.082829,107.843109 42.572029,107.790398 
	C43.824184,104.868355 44.587704,101.587128 46.421406,99.092560 
	C51.628113,92.009346 57.239990,85.221603 62.772499,78.382370 
	C63.790771,77.123589 64.936119,74.833580 66.973907,77.835274 
	C67.073860,78.080742 67.047020,78.027100 66.834885,78.232101 
	C66.095718,79.329865 65.568687,80.222618 65.041649,81.115379 
	C64.883995,81.645180 64.726349,82.174980 64.056282,83.046707 
	C58.299187,89.759048 53.476383,96.332764 53.104507,105.051399 
z"/>
<path fill="#0072B5" opacity="1.000000" stroke="none" 
	d="
M316.855560,41.991074 
	C321.186310,39.733372 324.770599,41.281349 328.029816,44.316563 
	C330.193115,40.407162 332.641724,39.916008 337.294250,42.997284 
	C335.198822,43.615574 333.602600,44.086548 331.336151,44.755295 
	C333.130249,45.666676 334.492035,46.358437 336.749390,47.505150 
	C334.570282,48.519188 333.226837,49.144367 331.287628,50.046768 
	C333.387909,50.757324 335.048004,51.318958 336.933380,51.956810 
	C333.037354,55.243225 330.206238,54.716572 328.623596,51.454803 
	C325.062134,52.516769 321.621674,53.542648 316.934967,54.940144 
	C316.934967,49.884758 316.934967,46.294395 316.883240,42.389378 
	C316.831543,42.074722 316.879669,42.018932 316.855560,41.991074 
M322.215454,50.862324 
	C323.276428,49.577896 324.644714,48.416164 325.232910,46.942978 
	C325.440704,46.422482 323.884460,44.892078 322.857391,44.310886 
	C322.330231,44.012562 320.434662,44.854717 320.453247,45.069328 
	C320.619385,46.989059 321.074371,48.883797 322.215454,50.862324 
z"/>
<path fill="#0072B5" opacity="1.000000" stroke="none" 
	d="
M269.857849,68.604813 
	C268.518555,68.370323 267.470215,68.004890 266.470520,67.656425 
	C265.958588,68.718246 265.445404,69.782730 264.932190,70.847214 
	C264.541443,70.791138 264.150665,70.735062 263.759918,70.678986 
	C263.759918,66.925827 263.759918,63.172668 263.759918,59.419514 
	C264.220001,59.050697 264.680084,58.681877 265.140167,58.313061 
	C265.979950,60.274017 266.819763,62.234974 267.659576,64.195930 
	C267.969299,63.555508 268.279053,62.915081 268.588776,62.274654 
	C270.580017,61.411732 272.571228,60.548809 274.562439,59.685890 
	C274.867462,63.020863 275.172516,66.355827 275.477600,69.690796 
	C273.701324,69.285156 271.925018,68.879517 269.857849,68.604813 
z"/>
<path fill="#0072B5" opacity="1.000000" stroke="none" 
	d="
M259.830414,59.966904 
	C260.114014,59.822975 260.397644,59.679050 260.681244,59.535126 
	C260.858795,63.018719 262.289276,67.176628 260.875366,69.803726 
	C259.340668,72.655319 255.272095,72.495369 252.343079,69.202881 
	C252.072601,69.033478 252.120544,69.078514 252.120544,69.078514 
	C252.058411,66.333542 251.996292,63.588573 251.902298,60.429115 
	C251.870422,60.014626 251.830414,59.966927 251.830414,59.966927 
	C255.092453,58.113754 254.606781,60.604984 255.054138,62.523659 
	C255.539215,64.604080 256.560486,66.559486 257.347900,68.569412 
	C258.224670,66.307663 259.114502,64.050766 259.961670,61.777985 
	C260.067627,61.493755 259.948395,61.125599 259.901978,60.405472 
	C259.870422,60.014606 259.830414,59.966904 259.830414,59.966904 
z"/>
<path fill="#0072B5" opacity="1.000000" stroke="none" 
	d="
M247.384735,70.882446 
	C247.008759,70.400284 247.018066,69.967216 247.034485,69.209366 
	C248.449692,68.932266 249.857773,68.979958 251.693207,69.053085 
	C252.120544,69.078514 252.072601,69.033478 252.052689,69.009361 
	C250.611847,69.634018 249.190918,70.282791 247.384735,70.882446 
z"/>
<path fill="#47704C" opacity="1.000000" stroke="none" 
	d="
M259.711578,59.881622 
	C259.830414,59.966904 259.870422,60.014606 259.849609,60.037636 
	C259.631195,59.902863 259.433594,59.745064 259.235992,59.587265 
	C259.354919,59.656956 259.473816,59.726650 259.711578,59.881622 
z"/>
<path fill="#47704C" opacity="1.000000" stroke="none" 
	d="
M251.711563,59.881638 
	C251.830414,59.966927 251.870422,60.014626 251.849625,60.037640 
	C251.631210,59.902851 251.433594,59.745045 251.235962,59.587250 
	C251.354874,59.656948 251.473801,59.726646 251.711563,59.881638 
z"/>
<path fill="#47704C" opacity="1.000000" stroke="none" 
	d="
M282.403076,65.988586 
	C282.412140,65.882187 282.657898,65.765419 283.008423,65.802811 
	C283.113159,65.956978 282.639771,65.978218 282.403076,65.988586 
z"/>
<path fill="#47704C" opacity="1.000000" stroke="none" 
	d="
M14.407448,84.896065 
	C12.135638,83.236038 10.159166,81.427513 8.118531,79.262169 
	C12.247720,80.907387 14.067327,76.990967 16.185995,75.108231 
	C31.437094,61.555496 48.575367,51.120758 67.651505,43.389755 
	C68.023491,43.640633 68.042358,44.114597 68.042358,44.114597 
	C56.096138,52.056107 43.861984,59.605907 32.316555,68.092651 
	C25.855536,72.841972 20.536423,79.144753 14.407448,84.896065 
z"/>
<path fill="#47704C" opacity="1.000000" stroke="none" 
	d="
M68.376923,44.056664 
	C68.042358,44.114597 68.023491,43.640633 68.014069,43.403648 
	C69.441811,42.487938 70.878967,41.809208 72.659111,41.147926 
	C71.571892,42.109821 70.141693,43.054276 68.376923,44.056664 
z"/>
<path fill="#47704C" opacity="1.000000" stroke="none" 
	d="
M207.921127,74.114700 
	C198.727005,76.704605 191.769012,70.000778 189.574799,64.023842 
	C186.960953,56.903873 191.040894,48.645424 198.943634,45.038315 
	C205.350388,42.114021 213.288574,45.291531 217.302185,51.531334 
	C223.085892,60.523041 217.069214,71.787598 207.921127,74.114700 
z"/>
<path fill="#47704C" opacity="1.000000" stroke="none" 
	d="
M129.280182,48.260555 
	C133.905991,44.463566 138.758270,43.125439 143.532806,44.255329 
	C137.415985,50.247471 131.128159,56.407154 125.204056,62.210506 
	C124.228867,58.166107 124.644035,52.960785 129.280182,48.260555 
z"/>
<path fill="#47704C" opacity="1.000000" stroke="none" 
	d="
M291.648865,46.176334 
	C290.519623,47.906494 289.427582,49.620403 287.879578,50.646111 
	C287.296661,51.032341 285.202698,50.125340 284.627167,49.257652 
	C284.052246,48.390907 284.062683,46.525604 284.649780,45.669601 
	C285.239899,44.809261 286.877563,44.244419 288.018494,44.301628 
	C289.204071,44.361080 290.344482,45.320480 291.648865,46.176334 
z"/>
<path fill="#47704C" opacity="1.000000" stroke="none" 
	d="
M301.786682,47.859177 
	C300.330322,49.015491 298.977997,50.162857 297.470917,50.426857 
	C296.890533,50.528526 295.390289,48.645061 295.347076,47.622234 
	C295.304504,46.614357 297.006073,44.578297 297.202240,44.665146 
	C298.841248,45.390816 300.309326,46.502464 301.786682,47.859177 
z"/>
<path fill="#47704C" opacity="1.000000" stroke="none" 
	d="
M253.039520,49.546085 
	C259.191467,47.301010 253.946884,46.403217 252.238037,44.475990 
	C254.243134,44.318512 255.706680,44.203568 258.118530,44.014145 
	C257.729523,46.579906 257.427795,48.570076 257.126099,50.560249 
	C255.692627,50.305393 254.259140,50.050529 253.039520,49.546085 
z"/>
<path fill="#47704C" opacity="1.000000" stroke="none" 
	d="
M242.911484,49.133461 
	C243.537872,49.396614 243.997406,49.869587 244.456940,50.342560 
	C243.901764,50.276138 243.346603,50.209721 242.602234,49.953941 
	C242.523575,49.624146 242.634109,49.483711 242.911484,49.133461 
z"/>
<path fill="#47704C" opacity="1.000000" stroke="none" 
	d="
M329.321625,66.997734 
	C327.537506,67.344536 325.925568,67.653381 324.476105,67.298538 
	C324.104248,67.207504 323.722656,64.615341 324.279846,63.899616 
	C325.011414,62.959885 326.668304,62.740505 327.927246,62.211327 
	C328.469574,63.711864 329.011902,65.212402 329.321625,66.997734 
z"/>
<path fill="#47704C" opacity="1.000000" stroke="none" 
	d="
M15.982166,90.676552 
	C15.409986,90.122925 14.705406,89.288239 14.052374,88.200806 
	C14.685870,88.763863 15.267819,89.579681 15.982166,90.676552 
z"/>
<path fill="#47704C" opacity="1.000000" stroke="none" 
	d="
M53.368874,104.830910 
	C53.476383,96.332764 58.299187,89.759048 63.831654,83.213364 
	C60.624046,90.228867 57.128647,97.419647 53.368874,104.830910 
z"/>
<path fill="#47704C" opacity="1.000000" stroke="none" 
	d="
M65.318420,80.948723 
	C65.568687,80.222618 66.095718,79.329865 66.864861,78.232361 
	C66.603035,78.945763 66.099113,79.863914 65.318420,80.948723 
z"/>
<path fill="#47704C" opacity="1.000000" stroke="none" 
	d="
M321.829895,50.824104 
	C321.074371,48.883797 320.619385,46.989059 320.453247,45.069328 
	C320.434662,44.854717 322.330231,44.012562 322.857391,44.310886 
	C323.884460,44.892078 325.440704,46.422482 325.232910,46.942978 
	C324.644714,48.416164 323.276428,49.577896 321.829895,50.824104 
z"/>
</svg>