<svg version="1.1" id="Layer_1" xmlns="http://www.w3.org/2000/svg" xmlns:xlink="http://www.w3.org/1999/xlink" x="0px" y="0px"
	 width="100%" viewBox="0 0 900 900" enable-background="new 0 0 900 900" xml:space="preserve">
<path fill="#B39571" opacity="1.000000" stroke="none" 
	d="
M418.000000,901.000000 
	C278.666656,901.000000 139.833328,901.000000 1.000000,901.000000 
	C1.000000,601.000000 1.000000,301.000000 1.000000,1.000000 
	C301.000000,1.000000 601.000000,1.000000 901.000000,1.000000 
	C901.000000,301.000000 901.000000,601.000000 901.000000,901.000000 
	C740.166687,901.000000 579.333313,901.000000 418.000000,901.000000 
M432.857788,385.624817 
	C451.982239,396.669525 471.106720,407.714233 491.299683,419.376038 
	C491.299683,416.434692 491.299774,414.682556 491.299683,412.930420 
	C491.297485,376.945618 491.293793,340.960846 491.296356,304.976044 
	C491.296539,302.644196 491.198059,300.299652 491.398071,297.982849 
	C491.987244,291.157990 495.077545,289.295471 501.020142,292.488495 
	C507.323975,295.875671 513.705261,299.257294 519.474731,303.438751 
	C522.139221,305.369781 524.102173,308.979462 525.152161,312.226135 
	C526.188660,315.431030 525.808960,319.138153 525.814514,322.625305 
	C525.867004,355.611023 525.961853,388.597168 525.837524,421.582428 
	C525.790894,433.939758 530.771790,442.647461 541.795166,448.715088 
	C561.779968,459.715302 581.380615,471.413177 601.152100,482.801575 
	C602.520874,483.589996 603.976562,484.227417 606.153076,485.315704 
	C606.153076,482.476440 606.153320,480.515564 606.153076,478.554718 
	C606.145203,415.581329 606.140686,352.607941 606.122925,289.634552 
	C606.121460,284.470734 606.118652,279.304199 605.961548,274.143646 
	C605.682739,264.980438 601.899597,257.862427 593.754944,253.181076 
	C564.444519,236.334106 535.174561,219.417007 505.889740,202.525604 
	C496.230927,196.954407 486.506561,197.043503 476.922485,202.538345 
	C458.865021,212.891281 440.848785,223.317810 422.902435,233.861877 
	C416.352020,237.710449 412.424194,243.514572 411.747681,251.243683 
	C411.428711,254.887802 411.021454,258.542236 411.013855,262.192719 
	C410.950684,292.513092 411.095093,322.834381 410.910950,353.153778 
	C410.828583,366.714081 415.438354,377.185394 428.308594,383.049683 
	C429.667755,383.668945 430.928436,384.504242 432.857788,385.624817 
M421.625275,418.915894 
	C413.699005,414.326202 406.124359,408.921539 397.772522,405.318176 
	C380.902649,398.039795 375.709106,385.605682 376.285095,367.860352 
	C377.251831,338.077759 376.338989,308.236328 376.360077,278.419800 
	C376.369415,265.250031 370.465546,256.263763 358.922089,249.915070 
	C339.372955,239.163422 320.212738,227.704880 300.875549,216.566910 
	C299.540833,215.798141 298.094360,215.223450 296.034576,214.241272 
	C296.034576,217.486404 296.034454,219.801926 296.034576,222.117432 
	C296.036835,268.261658 296.034668,314.405914 296.043610,360.550140 
	C296.047241,379.207672 295.859863,397.868713 296.164886,416.521545 
	C296.382660,429.841492 300.617432,441.702087 312.709259,448.811798 
	C339.409546,464.511017 366.483337,479.576263 393.143982,495.341156 
	C405.731964,502.784668 417.370239,502.371429 429.743774,494.903778 
	C448.560913,483.547211 467.764160,472.830566 486.793793,461.825500 
	C488.030396,461.110352 489.184784,460.253021 491.065887,459.005096 
	C467.738220,445.532532 445.001801,432.401398 421.625275,418.915894 
M465.781128,663.500000 
	C465.777954,656.502136 465.906799,649.499512 465.655334,642.510620 
	C465.607574,641.182861 464.200317,638.947021 463.167511,638.789673 
	C459.959442,638.301025 456.629669,638.610840 452.824097,638.610840 
	C452.824097,650.245239 452.824097,661.277954 452.824097,672.310669 
	C450.963531,671.315735 450.023315,670.059937 449.200195,668.731506 
	C444.725616,661.510315 439.590332,654.593262 436.019287,646.947205 
	C432.486694,639.383362 427.253265,637.642822 419.731628,638.422119 
	C416.373688,638.770081 415.136322,639.562439 415.173615,643.091736 
	C415.337372,658.585083 415.227325,674.081238 415.251282,689.576416 
	C415.253265,690.862061 415.514862,692.147278 415.684723,693.695679 
	C419.873688,693.695679 423.786377,693.695679 428.296082,693.695679 
	C428.296082,682.276733 428.296082,671.104736 428.296082,659.932739 
	C430.346313,661.314697 431.421661,662.930603 432.440796,664.581116 
	C437.866364,673.367920 443.227783,682.194946 448.750153,690.920288 
	C449.541718,692.170959 451.023285,693.693909 452.295135,693.801941 
	C456.544281,694.163208 460.843231,693.938965 465.781036,693.938965 
	C465.781036,683.732239 465.781036,674.116150 465.781128,663.500000 
M521.406128,637.057068 
	C513.698181,636.936462 506.530304,638.677673 500.418396,643.572144 
	C488.178253,653.374329 486.681976,673.764343 497.248138,685.680603 
	C508.111877,697.932434 530.050781,698.894836 541.818237,687.372620 
	C550.806030,678.572205 552.657471,667.654236 548.916382,656.078125 
	C544.843628,643.475586 535.002563,638.085938 521.406128,637.057068 
M263.600830,675.798279 
	C265.786499,688.352783 273.400940,694.975037 286.138397,695.398926 
	C298.795929,695.820251 309.051147,689.522705 310.130981,678.355469 
	C311.383118,665.406555 310.422668,652.243713 310.422668,639.010925 
	C309.405975,638.856323 308.434448,638.574768 307.464966,638.581543 
	C295.253052,638.666931 297.752716,637.336182 297.527100,648.084473 
	C297.342102,656.897461 297.592987,665.729187 297.112366,674.523132 
	C296.802673,680.189880 293.067505,683.100098 287.470093,683.193604 
	C281.919617,683.286316 278.202362,680.430298 277.198822,675.041016 
	C276.837341,673.099731 276.894836,671.066528 276.889313,669.074951 
	C276.861694,659.131287 276.876709,649.187439 276.876709,638.555176 
	C273.721802,638.555176 271.085876,638.736572 268.484985,638.512085 
	C264.713898,638.186584 263.175598,639.364502 263.296600,643.474854 
	C263.604858,653.949524 263.461731,664.437439 263.600830,675.798279 
M657.130493,639.382080 
	C649.526184,657.319580 641.921875,675.257019 633.982605,693.984741 
	C638.776001,693.984741 642.281616,694.253540 645.710144,693.856079 
	C647.135010,693.690918 649.368835,692.276978 649.572021,691.134949 
	C650.889771,683.728333 655.458069,681.999268 662.107483,683.042847 
	C663.894165,683.323242 665.803711,683.334778 667.584900,683.037781 
	C672.578979,682.205017 675.236206,684.222961 676.611328,689.055115 
	C677.139221,690.910156 679.012146,693.431274 680.619324,693.720581 
	C684.433838,694.407349 688.455811,693.941589 693.037964,693.941589 
	C692.224243,691.715637 691.722473,690.175110 691.105835,688.682129 
	C685.581787,675.306824 680.018372,661.947693 674.505127,648.567871 
	C670.012695,637.665405 670.036133,637.655762 657.130493,639.382080 
M357.682678,638.560181 
	C353.716278,637.852234 351.839478,639.678406 350.354584,643.365967 
	C344.259216,658.502625 337.795105,673.490662 331.506104,688.549927 
	C330.852570,690.114807 330.460785,691.789001 329.770782,693.971558 
	C334.097504,693.971558 337.601074,694.194580 341.050018,693.857910 
	C342.364349,693.729614 344.500244,692.460083 344.649872,691.467651 
	C345.873932,683.349365 351.160309,682.170471 357.950378,683.061157 
	C359.424622,683.254517 360.980225,683.296753 362.439087,683.053406 
	C367.560730,682.199036 370.580780,684.075745 371.851898,689.253845 
	C372.268585,690.951355 373.766418,693.492310 375.040436,693.666382 
	C379.174835,694.231079 383.434662,693.877502 388.209595,693.877502 
	C387.381104,691.613892 386.925201,690.213806 386.363556,688.857483 
	C380.310577,674.240173 373.981934,659.729126 368.318909,644.962646 
	C366.381653,639.911133 363.824799,637.620911 357.682678,638.560181 
M593.010315,671.223022 
	C589.922913,661.734985 586.905029,652.223206 583.677795,642.782959 
	C583.156433,641.257751 581.821899,639.014832 580.660950,638.882935 
	C576.487488,638.408569 572.227295,638.696777 567.306152,638.696777 
	C574.235229,657.004517 580.648865,674.463196 587.515076,691.742065 
	C589.301636,696.238098 594.029053,693.279297 597.354919,693.958801 
	C600.455811,694.592346 602.084839,693.133179 603.182739,690.112488 
	C606.704346,680.423279 610.534729,670.846252 614.246094,661.226074 
	C617.035583,653.995300 619.825378,646.764587 622.827881,638.982239 
	C620.689636,638.793701 619.249084,638.534790 617.813660,638.560852 
	C605.824097,638.778564 608.945984,636.930786 605.265503,647.477417 
	C601.932617,657.027710 598.978271,666.710022 595.484985,677.481323 
	C594.435303,674.909607 593.830444,673.427795 593.010315,671.223022 
M209.011627,683.464111 
	C209.011627,686.869507 209.011627,690.274902 209.011627,693.995117 
	C218.271973,693.995117 226.583557,693.995483 234.895126,693.995056 
	C245.056580,693.994507 245.580078,693.296326 243.168060,682.151062 
	C238.202637,682.151062 233.073669,681.916992 227.977463,682.225037 
	C223.897079,682.471741 222.436417,681.174622 222.527069,676.955200 
	C222.770172,665.641968 222.699921,654.317993 222.480621,643.003601 
	C222.451797,641.517151 220.998184,638.966248 219.907120,638.794189 
	C216.438095,638.247253 212.828522,638.591736 209.011276,638.591736 
	C209.011276,653.868591 209.011276,668.170776 209.011627,683.464111 
M368.085968,584.211670 
	C365.793030,581.320312 365.135956,575.777954 358.973877,578.643372 
	C358.973877,583.400452 358.840973,588.065002 359.071381,592.711487 
	C359.125977,593.812134 360.399841,594.852234 361.112854,595.920227 
	C361.867950,594.908936 362.996002,593.995056 363.291656,592.863647 
	C363.747131,591.120483 363.631989,589.228333 363.775940,587.153687 
	C368.601471,589.402344 367.805450,597.828796 375.305908,595.523438 
	C375.439636,594.271301 375.654083,593.135864 375.665405,591.998413 
	C375.703491,588.166016 375.806885,584.324280 375.563843,580.506470 
	C375.504761,579.578796 374.214630,578.729431 373.490570,577.844055 
	C372.713867,578.829590 371.464325,579.728210 371.263580,580.819702 
	C370.899597,582.798462 371.160431,584.892212 371.160431,588.383057 
	C369.595123,586.325195 369.019440,585.568359 368.085968,584.211670 
M546.344482,585.799500 
	C544.830933,579.691040 541.012451,576.724365 535.416138,577.308899 
	C530.213196,577.852478 526.827271,581.431458 526.715332,586.505920 
	C526.596436,591.893311 530.036499,595.884521 535.227356,596.381836 
	C541.578430,596.990173 545.438171,593.586914 546.344482,585.799500 
M343.232208,581.438110 
	C340.280853,577.514771 336.072266,575.996704 331.869476,577.943726 
	C329.120087,579.217346 326.387848,582.219727 325.341125,585.069702 
	C323.868835,589.078247 325.788605,592.934387 329.731903,595.104980 
	C333.710144,597.294861 337.831604,597.124939 341.351257,594.213989 
	C345.320282,590.931458 345.713257,586.669922 343.232208,581.438110 
M564.210876,595.660095 
	C564.709290,593.553772 565.207703,591.447449 565.737244,589.209534 
	C569.145630,591.124634 568.654541,597.834534 574.977905,595.333313 
	C573.762085,593.052795 572.612305,590.895935 571.462463,588.739075 
	C571.949280,588.746460 572.436096,588.753845 572.922913,588.761230 
	C573.173767,585.963013 574.643677,582.358948 573.432739,580.526917 
	C570.514526,576.111816 565.543701,577.890747 560.687256,578.172424 
	C560.687256,583.453735 560.553589,588.416321 560.811096,593.358521 
	C560.857178,594.243408 562.520691,595.044006 564.210876,595.660095 
M450.812073,577.802124 
	C448.380280,577.802124 445.948486,577.802124 443.075104,577.802124 
	C443.075104,582.014587 442.845734,585.510071 443.154541,588.957275 
	C443.365936,591.316650 444.081238,595.494141 444.994385,595.613220 
	C449.591553,596.212524 446.736267,591.737732 448.137970,589.912598 
	C448.218018,589.808289 448.383972,589.769958 448.660065,589.618774 
	C451.739899,591.106140 451.239502,598.053955 457.582886,595.352600 
	C456.399994,593.146545 455.252136,591.005798 454.147949,588.946533 
	C458.771454,582.747925 458.084900,579.924011 450.812073,577.802124 
M597.258362,577.807861 
	C596.053772,578.433838 594.214661,578.758850 593.750916,579.736328 
	C591.352844,584.791199 589.306702,590.013062 587.137817,595.176636 
	C587.445679,595.539246 587.753540,595.901917 588.061340,596.264526 
	C590.886047,594.992737 593.714905,592.718811 596.534241,592.730530 
	C599.361694,592.742371 602.179749,595.034058 605.001892,596.326538 
	C605.424377,595.888916 605.846863,595.451294 606.269348,595.013672 
	C603.492981,589.314575 600.716553,583.615417 597.258362,577.807861 
M471.354279,588.922363 
	C472.530243,594.429565 474.849274,596.631775 479.472168,596.411560 
	C483.359467,596.226562 486.435455,594.534241 486.845093,590.402954 
	C487.245667,586.363342 486.932281,582.252869 486.932281,578.173523 
	C486.388947,577.894104 485.845612,577.614746 485.302277,577.335327 
	C484.379211,578.483521 482.871735,579.532104 482.655548,580.800720 
	C482.214630,583.388245 482.844177,586.177246 482.282104,588.717163 
	C481.992889,590.024048 480.091095,590.974121 478.918030,592.085449 
	C477.951630,590.940918 476.353088,589.898315 476.148651,588.630798 
	C475.703949,585.873657 476.159149,582.979736 475.832336,580.190247 
	C475.732513,579.337891 474.380707,578.319641 473.406219,578.024292 
	C472.968933,577.891785 471.525177,579.298096 471.444458,580.097656 
	C471.178589,582.730103 471.327179,585.404297 471.354279,588.922363 
M312.301483,593.473999 
	C310.873718,592.910950 309.466125,592.287842 308.013275,591.799438 
	C305.981750,591.116516 303.207336,591.114380 302.078156,589.734558 
	C301.079620,588.514404 301.160187,585.296082 302.125824,583.904907 
	C303.044830,582.580750 305.703918,582.401672 307.638458,581.865234 
	C309.149628,581.446106 310.722870,581.250854 313.431122,580.734436 
	C307.323486,576.397278 302.066895,576.608093 298.594360,580.250610 
	C295.367401,583.635376 295.186676,589.403564 298.192719,593.070679 
	C301.412842,596.999023 306.907867,597.401672 312.301483,593.473999 
M402.767120,592.014709 
	C404.284973,585.548950 397.479034,585.990662 394.311157,582.337891 
	C397.478424,581.617981 399.990417,581.047058 402.502411,580.476074 
	C398.471619,576.612488 394.143372,576.032043 391.505280,579.739807 
	C386.226837,587.158325 395.848938,587.261536 398.854553,591.539246 
	C395.219757,592.034851 392.495026,592.406372 389.770294,592.777893 
	C395.569183,597.654907 398.650574,597.284180 402.767120,592.014709 
M514.433472,581.088318 
	C514.108521,580.025940 513.833435,578.061462 513.450867,578.040344 
	C509.484253,577.820862 505.498077,577.855103 501.524139,578.001282 
	C501.062225,578.018250 500.280243,579.148560 500.300140,579.740723 
	C500.320831,580.356140 501.131653,581.461670 501.602692,581.464661 
	C505.848572,581.492188 505.105377,584.526855 505.147186,587.093994 
	C505.176941,588.921204 504.850220,590.823181 505.264923,592.552124 
	C505.564301,593.800293 506.820984,594.818848 507.650665,595.939819 
	C508.395721,594.887268 509.612244,593.906677 509.786224,592.766968 
	C510.133423,590.492188 510.095795,588.112000 509.873596,585.808472 
	C509.583405,582.800110 510.854156,581.505981 514.433472,581.088318 
M423.373444,595.880432 
	C424.144348,591.346680 424.915283,586.812927 425.536621,583.158630 
	C427.237793,581.613892 428.510712,580.458069 429.783600,579.302307 
	C428.212891,578.777222 426.675201,578.007385 425.062988,577.789978 
	C423.108490,577.526367 421.051453,577.490540 419.114227,577.811584 
	C417.736786,578.039856 416.484100,579.021118 415.175720,579.666321 
	C416.256409,580.402344 417.325378,581.156494 418.423920,581.864807 
	C418.817383,582.118530 419.282196,582.261658 420.183350,582.665283 
	C420.183350,585.826904 419.972870,589.137390 420.290405,592.396484 
	C420.411774,593.642456 421.741364,594.770630 423.373444,595.880432 
z"/>
<path fill="#FFFFFE" opacity="1.000000" stroke="none" 
	d="
M432.546326,385.432068 
	C430.928436,384.504242 429.667755,383.668945 428.308594,383.049683 
	C415.438354,377.185394 410.828583,366.714081 410.910950,353.153778 
	C411.095093,322.834381 410.950684,292.513092 411.013855,262.192719 
	C411.021454,258.542236 411.428711,254.887802 411.747681,251.243683 
	C412.424194,243.514572 416.352020,237.710449 422.902435,233.861877 
	C440.848785,223.317810 458.865021,212.891281 476.922485,202.538345 
	C486.506561,197.043503 496.230927,196.954407 505.889740,202.525604 
	C535.174561,219.417007 564.444519,236.334106 593.754944,253.181076 
	C601.899597,257.862427 605.682739,264.980438 605.961548,274.143646 
	C606.118652,279.304199 606.121460,284.470734 606.122925,289.634552 
	C606.140686,352.607941 606.145203,415.581329 606.153076,478.554718 
	C606.153320,480.515564 606.153076,482.476440 606.153076,485.315704 
	C603.976562,484.227417 602.520874,483.589996 601.152100,482.801575 
	C581.380615,471.413177 561.779968,459.715302 541.795166,448.715088 
	C530.771790,442.647461 525.790894,433.939758 525.837524,421.582428 
	C525.961853,388.597168 525.867004,355.611023 525.814514,322.625305 
	C525.808960,319.138153 526.188660,315.431030 525.152161,312.226135 
	C524.102173,308.979462 522.139221,305.369781 519.474731,303.438751 
	C513.705261,299.257294 507.323975,295.875671 501.020142,292.488495 
	C495.077545,289.295471 491.987244,291.157990 491.398071,297.982849 
	C491.198059,300.299652 491.296539,302.644196 491.296356,304.976044 
	C491.293793,340.960846 491.297485,376.945618 491.299683,412.930420 
	C491.299774,414.682556 491.299683,416.434692 491.299683,419.376038 
	C471.106720,407.714233 451.982239,396.669525 432.546326,385.432068 
z"/>
<path fill="#FFFEFE" opacity="1.000000" stroke="none" 
	d="
M421.945312,419.093079 
	C445.001801,432.401398 467.738220,445.532532 491.065887,459.005096 
	C489.184784,460.253021 488.030396,461.110352 486.793793,461.825500 
	C467.764160,472.830566 448.560913,483.547211 429.743774,494.903778 
	C417.370239,502.371429 405.731964,502.784668 393.143982,495.341156 
	C366.483337,479.576263 339.409546,464.511017 312.709259,448.811798 
	C300.617432,441.702087 296.382660,429.841492 296.164886,416.521545 
	C295.859863,397.868713 296.047241,379.207672 296.043610,360.550140 
	C296.034668,314.405914 296.036835,268.261658 296.034576,222.117432 
	C296.034454,219.801926 296.034576,217.486404 296.034576,214.241272 
	C298.094360,215.223450 299.540833,215.798141 300.875549,216.566910 
	C320.212738,227.704880 339.372955,239.163422 358.922089,249.915070 
	C370.465546,256.263763 376.369415,265.250031 376.360077,278.419800 
	C376.338989,308.236328 377.251831,338.077759 376.285095,367.860352 
	C375.709106,385.605682 380.902649,398.039795 397.772522,405.318176 
	C406.124359,408.921539 413.699005,414.326202 421.945312,419.093079 
z"/>
<path fill="#FDFCF9" opacity="1.000000" stroke="none" 
	d="
M465.781067,664.000000 
	C465.781036,674.116150 465.781036,683.732239 465.781036,693.938965 
	C460.843231,693.938965 456.544281,694.163208 452.295135,693.801941 
	C451.023285,693.693909 449.541718,692.170959 448.750153,690.920288 
	C443.227783,682.194946 437.866364,673.367920 432.440796,664.581116 
	C431.421661,662.930603 430.346313,661.314697 428.296082,659.932739 
	C428.296082,671.104736 428.296082,682.276733 428.296082,693.695679 
	C423.786377,693.695679 419.873688,693.695679 415.684723,693.695679 
	C415.514862,692.147278 415.253265,690.862061 415.251282,689.576416 
	C415.227325,674.081238 415.337372,658.585083 415.173615,643.091736 
	C415.136322,639.562439 416.373688,638.770081 419.731628,638.422119 
	C427.253265,637.642822 432.486694,639.383362 436.019287,646.947205 
	C439.590332,654.593262 444.725616,661.510315 449.200195,668.731506 
	C450.023315,670.059937 450.963531,671.315735 452.824097,672.310669 
	C452.824097,661.277954 452.824097,650.245239 452.824097,638.610840 
	C456.629669,638.610840 459.959442,638.301025 463.167511,638.789673 
	C464.200317,638.947021 465.607574,641.182861 465.655334,642.510620 
	C465.906799,649.499512 465.777954,656.502136 465.781067,664.000000 
z"/>
<path fill="#FDFCF9" opacity="1.000000" stroke="none" 
	d="
M521.864075,637.077881 
	C535.002563,638.085938 544.843628,643.475586 548.916382,656.078125 
	C552.657471,667.654236 550.806030,678.572205 541.818237,687.372620 
	C530.050781,698.894836 508.111877,697.932434 497.248138,685.680603 
	C486.681976,673.764343 488.178253,653.374329 500.418396,643.572144 
	C506.530304,638.677673 513.698181,636.936462 521.864075,637.077881 
M523.002930,682.953003 
	C531.458435,680.700928 535.764221,675.460144 536.108093,667.002258 
	C536.442505,658.777649 532.475281,652.248169 525.604431,650.077148 
	C519.153931,648.039001 513.245300,649.174194 508.761353,654.385315 
	C503.668152,660.304443 503.471100,667.287109 506.360565,674.128967 
	C509.217438,680.893616 514.924683,683.558167 523.002930,682.953003 
z"/>
<path fill="#FDFCF9" opacity="1.000000" stroke="none" 
	d="
M263.550049,675.359131 
	C263.461731,664.437439 263.604858,653.949524 263.296600,643.474854 
	C263.175598,639.364502 264.713898,638.186584 268.484985,638.512085 
	C271.085876,638.736572 273.721802,638.555176 276.876709,638.555176 
	C276.876709,649.187439 276.861694,659.131287 276.889313,669.074951 
	C276.894836,671.066528 276.837341,673.099731 277.198822,675.041016 
	C278.202362,680.430298 281.919617,683.286316 287.470093,683.193604 
	C293.067505,683.100098 296.802673,680.189880 297.112366,674.523132 
	C297.592987,665.729187 297.342102,656.897461 297.527100,648.084473 
	C297.752716,637.336182 295.253052,638.666931 307.464966,638.581543 
	C308.434448,638.574768 309.405975,638.856323 310.422668,639.010925 
	C310.422668,652.243713 311.383118,665.406555 310.130981,678.355469 
	C309.051147,689.522705 298.795929,695.820251 286.138397,695.398926 
	C273.400940,694.975037 265.786499,688.352783 263.550049,675.359131 
z"/>
<path fill="#FDFCF9" opacity="1.000000" stroke="none" 
	d="
M657.431152,639.127441 
	C670.036133,637.655762 670.012695,637.665405 674.505127,648.567871 
	C680.018372,661.947693 685.581787,675.306824 691.105835,688.682129 
	C691.722473,690.175110 692.224243,691.715637 693.037964,693.941589 
	C688.455811,693.941589 684.433838,694.407349 680.619324,693.720581 
	C679.012146,693.431274 677.139221,690.910156 676.611328,689.055115 
	C675.236206,684.222961 672.578979,682.205017 667.584900,683.037781 
	C665.803711,683.334778 663.894165,683.323242 662.107483,683.042847 
	C655.458069,681.999268 650.889771,683.728333 649.572021,691.134949 
	C649.368835,692.276978 647.135010,693.690918 645.710144,693.856079 
	C642.281616,694.253540 638.776001,693.984741 633.982605,693.984741 
	C641.921875,675.257019 649.526184,657.319580 657.431152,639.127441 
M658.204773,667.790833 
	C657.874084,669.113220 657.543335,670.435608 657.149292,672.011230 
	C661.680237,672.011230 665.581299,672.011230 670.264343,672.011230 
	C668.078674,665.949402 666.083069,660.414856 663.582642,653.480042 
	C661.495789,659.056641 659.998840,663.056885 658.204773,667.790833 
z"/>
<path fill="#FDFCF9" opacity="1.000000" stroke="none" 
	d="
M358.112000,638.559448 
	C363.824799,637.620911 366.381653,639.911133 368.318909,644.962646 
	C373.981934,659.729126 380.310577,674.240173 386.363556,688.857483 
	C386.925201,690.213806 387.381104,691.613892 388.209595,693.877502 
	C383.434662,693.877502 379.174835,694.231079 375.040436,693.666382 
	C373.766418,693.492310 372.268585,690.951355 371.851898,689.253845 
	C370.580780,684.075745 367.560730,682.199036 362.439087,683.053406 
	C360.980225,683.296753 359.424622,683.254517 357.950378,683.061157 
	C351.160309,682.170471 345.873932,683.349365 344.649872,691.467651 
	C344.500244,692.460083 342.364349,693.729614 341.050018,693.857910 
	C337.601074,694.194580 334.097504,693.971558 329.770782,693.971558 
	C330.460785,691.789001 330.852570,690.114807 331.506104,688.549927 
	C337.795105,673.490662 344.259216,658.502625 350.354584,643.365967 
	C351.839478,639.678406 353.716278,637.852234 358.112000,638.559448 
M363.937714,667.643188 
	C362.384827,663.497803 360.831970,659.352356 359.279083,655.206970 
	C358.905640,655.211914 358.532196,655.216858 358.158752,655.221802 
	C356.139679,660.666443 354.120575,666.111023 351.932404,672.011719 
	C356.683533,672.011719 360.613068,672.011719 364.936920,672.011719 
	C364.638550,670.579468 364.414154,669.502380 363.937714,667.643188 
z"/>
<path fill="#FDFCF9" opacity="1.000000" stroke="none" 
	d="
M593.117981,671.584473 
	C593.830444,673.427795 594.435303,674.909607 595.484985,677.481323 
	C598.978271,666.710022 601.932617,657.027710 605.265503,647.477417 
	C608.945984,636.930786 605.824097,638.778564 617.813660,638.560852 
	C619.249084,638.534790 620.689636,638.793701 622.827881,638.982239 
	C619.825378,646.764587 617.035583,653.995300 614.246094,661.226074 
	C610.534729,670.846252 606.704346,680.423279 603.182739,690.112488 
	C602.084839,693.133179 600.455811,694.592346 597.354919,693.958801 
	C594.029053,693.279297 589.301636,696.238098 587.515076,691.742065 
	C580.648865,674.463196 574.235229,657.004517 567.306152,638.696777 
	C572.227295,638.696777 576.487488,638.408569 580.660950,638.882935 
	C581.821899,639.014832 583.156433,641.257751 583.677795,642.782959 
	C586.905029,652.223206 589.922913,661.734985 593.117981,671.584473 
z"/>
<path fill="#FDFBF7" opacity="1.000000" stroke="none" 
	d="
M209.011444,682.968567 
	C209.011276,668.170776 209.011276,653.868591 209.011276,638.591736 
	C212.828522,638.591736 216.438095,638.247253 219.907120,638.794189 
	C220.998184,638.966248 222.451797,641.517151 222.480621,643.003601 
	C222.699921,654.317993 222.770172,665.641968 222.527069,676.955200 
	C222.436417,681.174622 223.897079,682.471741 227.977463,682.225037 
	C233.073669,681.916992 238.202637,682.151062 243.168060,682.151062 
	C245.580078,693.296326 245.056580,693.994507 234.895126,693.995056 
	C226.583557,693.995483 218.271973,693.995117 209.011627,693.995117 
	C209.011627,690.274902 209.011627,686.869507 209.011444,682.968567 
z"/>
<path fill="#FAF6EE" opacity="1.000000" stroke="none" 
	d="
M368.264862,584.511597 
	C369.019440,585.568359 369.595123,586.325195 371.160431,588.383057 
	C371.160431,584.892212 370.899597,582.798462 371.263580,580.819702 
	C371.464325,579.728210 372.713867,578.829590 373.490570,577.844055 
	C374.214630,578.729431 375.504761,579.578796 375.563843,580.506470 
	C375.806885,584.324280 375.703491,588.166016 375.665405,591.998413 
	C375.654083,593.135864 375.439636,594.271301 375.305908,595.523438 
	C367.805450,597.828796 368.601471,589.402344 363.775940,587.153687 
	C363.631989,589.228333 363.747131,591.120483 363.291656,592.863647 
	C362.996002,593.995056 361.867950,594.908936 361.112854,595.920227 
	C360.399841,594.852234 359.125977,593.812134 359.071381,592.711487 
	C358.840973,588.065002 358.973877,583.400452 358.973877,578.643372 
	C365.135956,575.777954 365.793030,581.320312 368.264862,584.511597 
z"/>
<path fill="#FBF7F0" opacity="1.000000" stroke="none" 
	d="
M546.362183,586.173828 
	C545.438171,593.586914 541.578430,596.990173 535.227356,596.381836 
	C530.036499,595.884521 526.596436,591.893311 526.715332,586.505920 
	C526.827271,581.431458 530.213196,577.852478 535.416138,577.308899 
	C541.012451,576.724365 544.830933,579.691040 546.362183,586.173828 
M534.388977,581.907166 
	C533.494873,583.031555 531.811401,584.202515 531.874390,585.270386 
	C531.997742,587.360962 532.582153,589.922119 533.967285,591.268127 
	C534.914001,592.188049 538.317810,592.123962 539.231384,591.168701 
	C540.573486,589.765320 541.416260,587.064148 541.129578,585.113159 
	C540.685730,582.093567 538.173218,580.945862 534.388977,581.907166 
z"/>
<path fill="#FAF6EE" opacity="1.000000" stroke="none" 
	d="
M343.431030,581.765503 
	C345.713257,586.669922 345.320282,590.931458 341.351257,594.213989 
	C337.831604,597.124939 333.710144,597.294861 329.731903,595.104980 
	C325.788605,592.934387 323.868835,589.078247 325.341125,585.069702 
	C326.387848,582.219727 329.120087,579.217346 331.869476,577.943726 
	C336.072266,575.996704 340.280853,577.514771 343.431030,581.765503 
M338.610291,583.086121 
	C334.209412,580.653687 330.650085,581.450012 330.234741,585.348450 
	C330.026672,587.300842 330.984558,589.958496 332.376709,591.297241 
	C333.312714,592.197388 337.155579,591.965393 337.564575,591.158508 
	C338.668182,588.981384 338.630188,586.225525 338.610291,583.086121 
z"/>
<path fill="#FBF7F0" opacity="1.000000" stroke="none" 
	d="
M563.824097,595.771851 
	C562.520691,595.044006 560.857178,594.243408 560.811096,593.358521 
	C560.553589,588.416321 560.687256,583.453735 560.687256,578.172424 
	C565.543701,577.890747 570.514526,576.111816 573.432739,580.526917 
	C574.643677,582.358948 573.173767,585.963013 572.922913,588.761230 
	C572.436096,588.753845 571.949280,588.746460 571.462463,588.739075 
	C572.612305,590.895935 573.762085,593.052795 574.977905,595.333313 
	C568.654541,597.834534 569.145630,591.124634 565.737244,589.209534 
	C565.207703,591.447449 564.709290,593.553772 563.824097,595.771851 
z"/>
<path fill="#F8F2E9" opacity="1.000000" stroke="none" 
	d="
M451.216553,577.825928 
	C458.084900,579.924011 458.771454,582.747925 454.147949,588.946533 
	C455.252136,591.005798 456.399994,593.146545 457.582886,595.352600 
	C451.239502,598.053955 451.739899,591.106140 448.660065,589.618774 
	C448.383972,589.769958 448.218018,589.808289 448.137970,589.912598 
	C446.736267,591.737732 449.591553,596.212524 444.994385,595.613220 
	C444.081238,595.494141 443.365936,591.316650 443.154541,588.957275 
	C442.845734,585.510071 443.075104,582.014587 443.075104,577.802124 
	C445.948486,577.802124 448.380280,577.802124 451.216553,577.825928 
z"/>
<path fill="#FBF7F0" opacity="1.000000" stroke="none" 
	d="
M597.599243,577.862061 
	C600.716553,583.615417 603.492981,589.314575 606.269348,595.013672 
	C605.846863,595.451294 605.424377,595.888916 605.001892,596.326538 
	C602.179749,595.034058 599.361694,592.742371 596.534241,592.730530 
	C593.714905,592.718811 590.886047,594.992737 588.061340,596.264526 
	C587.753540,595.901917 587.445679,595.539246 587.137817,595.176636 
	C589.306702,590.013062 591.352844,584.791199 593.750916,579.736328 
	C594.214661,578.758850 596.053772,578.433838 597.599243,577.862061 
z"/>
<path fill="#FAF6EE" opacity="1.000000" stroke="none" 
	d="
M471.335388,588.492432 
	C471.327179,585.404297 471.178589,582.730103 471.444458,580.097656 
	C471.525177,579.298096 472.968933,577.891785 473.406219,578.024292 
	C474.380707,578.319641 475.732513,579.337891 475.832336,580.190247 
	C476.159149,582.979736 475.703949,585.873657 476.148651,588.630798 
	C476.353088,589.898315 477.951630,590.940918 478.918030,592.085449 
	C480.091095,590.974121 481.992889,590.024048 482.282104,588.717163 
	C482.844177,586.177246 482.214630,583.388245 482.655548,580.800720 
	C482.871735,579.532104 484.379211,578.483521 485.302277,577.335327 
	C485.845612,577.614746 486.388947,577.894104 486.932281,578.173523 
	C486.932281,582.252869 487.245667,586.363342 486.845093,590.402954 
	C486.435455,594.534241 483.359467,596.226562 479.472168,596.411560 
	C474.849274,596.631775 472.530243,594.429565 471.335388,588.492432 
z"/>
<path fill="#FAF6EE" opacity="1.000000" stroke="none" 
	d="
M312.157837,593.778687 
	C306.907867,597.401672 301.412842,596.999023 298.192719,593.070679 
	C295.186676,589.403564 295.367401,583.635376 298.594360,580.250610 
	C302.066895,576.608093 307.323486,576.397278 313.431122,580.734436 
	C310.722870,581.250854 309.149628,581.446106 307.638458,581.865234 
	C305.703918,582.401672 303.044830,582.580750 302.125824,583.904907 
	C301.160187,585.296082 301.079620,588.514404 302.078156,589.734558 
	C303.207336,591.114380 305.981750,591.116516 308.013275,591.799438 
	C309.466125,592.287842 310.873718,592.910950 312.157837,593.778687 
z"/>
<path fill="#FAF6EE" opacity="1.000000" stroke="none" 
	d="
M402.629211,592.369385 
	C398.650574,597.284180 395.569183,597.654907 389.770294,592.777893 
	C392.495026,592.406372 395.219757,592.034851 398.854553,591.539246 
	C395.848938,587.261536 386.226837,587.158325 391.505280,579.739807 
	C394.143372,576.032043 398.471619,576.612488 402.502411,580.476074 
	C399.990417,581.047058 397.478424,581.617981 394.311157,582.337891 
	C397.479034,585.990662 404.284973,585.548950 402.629211,592.369385 
z"/>
<path fill="#F8F2E9" opacity="1.000000" stroke="none" 
	d="
M514.086182,581.296265 
	C510.854156,581.505981 509.583405,582.800110 509.873596,585.808472 
	C510.095795,588.112000 510.133423,590.492188 509.786224,592.766968 
	C509.612244,593.906677 508.395721,594.887268 507.650696,595.939819 
	C506.820984,594.818848 505.564301,593.800293 505.264923,592.552124 
	C504.850220,590.823181 505.176941,588.921204 505.147186,587.093994 
	C505.105377,584.526855 505.848572,581.492188 501.602692,581.464661 
	C501.131653,581.461670 500.320831,580.356140 500.300140,579.740723 
	C500.280243,579.148560 501.062225,578.018250 501.524139,578.001282 
	C505.498077,577.855103 509.484253,577.820862 513.450867,578.040344 
	C513.833435,578.061462 514.108521,580.025940 514.086182,581.296265 
z"/>
<path fill="#F8F2E9" opacity="1.000000" stroke="none" 
	d="
M422.946899,595.916504 
	C421.741364,594.770630 420.411774,593.642456 420.290405,592.396484 
	C419.972870,589.137390 420.183350,585.826904 420.183350,582.665283 
	C419.282196,582.261658 418.817383,582.118530 418.423920,581.864807 
	C417.325378,581.156494 416.256409,580.402344 415.175720,579.666321 
	C416.484100,579.021118 417.736786,578.039856 419.114227,577.811584 
	C421.051453,577.490540 423.108490,577.526367 425.062988,577.789978 
	C426.675201,578.007385 428.212891,578.777222 429.783600,579.302246 
	C428.510712,580.458069 427.237793,581.613892 425.536621,583.158630 
	C424.915283,586.812927 424.144348,591.346680 422.946899,595.916504 
z"/>
<path fill="#B39674" opacity="1.000000" stroke="none" 
	d="
M522.582275,682.999390 
	C514.924683,683.558167 509.217438,680.893616 506.360565,674.128967 
	C503.471100,667.287109 503.668152,660.304443 508.761353,654.385315 
	C513.245300,649.174194 519.153931,648.039001 525.604431,650.077148 
	C532.475281,652.248169 536.442505,658.777649 536.108093,667.002258 
	C535.764221,675.460144 531.458435,680.700928 522.582275,682.999390 
z"/>
<path fill="#B2997C" opacity="1.000000" stroke="none" 
	d="
M658.353333,667.424011 
	C659.998840,663.056885 661.495789,659.056641 663.582642,653.480042 
	C666.083069,660.414856 668.078674,665.949402 670.264343,672.011230 
	C665.581299,672.011230 661.680237,672.011230 657.149292,672.011230 
	C657.543335,670.435608 657.874084,669.113220 658.353333,667.424011 
z"/>
<path fill="#B2997C" opacity="1.000000" stroke="none" 
	d="
M364.063751,668.034302 
	C364.414154,669.502380 364.638550,670.579468 364.936920,672.011719 
	C360.613068,672.011719 356.683533,672.011719 351.932404,672.011719 
	C354.120575,666.111023 356.139679,660.666443 358.158752,655.221802 
	C358.532196,655.216858 358.905640,655.211914 359.279083,655.206970 
	C360.831970,659.352356 362.384827,663.497803 364.063751,668.034302 
z"/>
<path fill="#B2997C" opacity="1.000000" stroke="none" 
	d="
M534.731873,581.788574 
	C538.173218,580.945862 540.685730,582.093567 541.129578,585.113159 
	C541.416260,587.064148 540.573486,589.765320 539.231384,591.168701 
	C538.317810,592.123962 534.914001,592.188049 533.967285,591.268127 
	C532.582153,589.922119 531.997742,587.360962 531.874390,585.270386 
	C531.811401,584.202515 533.494873,583.031555 534.731873,581.788574 
z"/>
<path fill="#B2997C" opacity="1.000000" stroke="none" 
	d="
M338.827759,583.392700 
	C338.630188,586.225525 338.668182,588.981384 337.564575,591.158508 
	C337.155579,591.965393 333.312714,592.197388 332.376709,591.297241 
	C330.984558,589.958496 330.026672,587.300842 330.234741,585.348450 
	C330.650085,581.450012 334.209412,580.653687 338.827759,583.392700 
z"/>
</svg>