<svg version="1.1" id="Layer_1" xmlns="http://www.w3.org/2000/svg" xmlns:xlink="http://www.w3.org/1999/xlink" x="0px" y="0px"
	 width="100%" viewBox="0 0 960 720" enable-background="new 0 0 960 720" xml:space="preserve">
<path fill="#FFFFFF" opacity="1.000000" stroke="none" 
	d="
M521.000000,721.000000 
	C347.333374,721.000000 174.166763,721.000000 1.000116,721.000000 
	C1.000077,481.000122 1.000077,241.000244 1.000039,1.000277 
	C320.999786,1.000185 640.999573,1.000185 960.999512,1.000092 
	C960.999634,240.999710 960.999634,480.999420 960.999817,720.999573 
	C814.500000,721.000000 668.000000,721.000000 521.000000,721.000000 
M880.524963,480.901428 
	C880.654785,480.596619 880.784546,480.291779 881.017578,479.505188 
	C881.017578,479.505188 880.885681,479.030487 881.037292,478.101776 
	C880.997437,472.712616 880.957581,467.323486 881.069641,461.041595 
	C881.219055,435.786346 881.368408,410.531097 881.701843,384.376160 
	C881.701843,381.776825 881.701843,379.177490 881.701843,376.540466 
	C860.787354,376.540466 840.636963,376.540466 819.997620,376.540466 
	C819.997620,402.028748 819.997620,427.104828 819.060669,452.179382 
	C796.374939,452.182007 773.689270,452.184662 750.762695,451.251099 
	C750.741211,448.426758 750.710999,445.602417 750.699768,442.778046 
	C750.614075,421.195740 750.532166,399.613434 750.606018,377.055450 
	C749.195190,376.217834 747.787964,374.656586 746.372925,374.649445 
	C718.207031,374.506439 690.040222,374.539001 661.873596,374.559967 
	C660.894897,374.560699 659.916382,374.808868 658.039246,374.690552 
	C652.825500,374.684479 647.611694,374.678406 641.417236,374.555481 
	C624.610352,374.341248 607.803528,374.127045 590.357422,373.410034 
	C584.224976,373.620392 578.092468,373.830750 571.051941,373.814209 
	C549.700195,373.850861 528.348450,373.887543 506.356354,373.411743 
	C501.379242,373.361755 496.399231,373.396515 491.426117,373.228760 
	C488.630219,373.134369 487.305389,374.054840 487.874542,377.917358 
	C487.874542,402.635803 487.874542,427.354279 487.874542,452.166595 
	C500.042664,452.166595 511.523529,452.166595 522.838135,452.904724 
	C522.951660,453.644409 523.065186,454.384094 523.163879,456.045135 
	C523.163879,464.618958 523.163879,473.192780 523.163879,481.873657 
	C527.927185,481.873657 531.917786,481.873657 536.837830,482.032928 
	C540.934387,481.963593 545.030945,481.894287 550.045898,481.902313 
	C566.977295,481.871307 583.908630,481.840271 601.785889,481.963135 
	C607.572937,481.902222 613.359985,481.841309 620.059265,481.895233 
	C641.651184,481.868439 663.243042,481.841614 685.780701,481.964233 
	C690.937073,481.848145 696.093506,481.732025 702.133423,481.828217 
	C711.737854,481.815125 721.342224,481.802032 731.869507,482.002258 
	C745.976685,482.010040 760.083984,482.039154 774.190979,481.992737 
	C775.605591,481.988098 777.018738,481.525330 779.263794,480.944916 
	C785.263550,480.794891 791.263245,480.644867 798.158508,480.615631 
	C805.363342,480.616302 812.568237,480.616943 820.487061,480.954620 
	C821.006897,480.907471 821.526672,480.860352 822.972961,480.912842 
	C841.974304,480.879639 860.975647,480.846466 880.524963,480.901428 
M311.984375,518.095947 
	C311.939880,504.476013 311.895386,490.856049 312.212799,476.836517 
	C312.446381,476.565216 312.679962,476.293884 313.842926,476.238464 
	C319.436584,476.238464 325.030273,476.238464 330.883942,476.238464 
	C330.883942,468.255219 330.883942,460.653656 331.203827,452.682373 
	C331.372894,452.397369 331.592865,452.159393 332.808258,452.161377 
	C371.530640,452.161377 410.252991,452.161377 449.224762,452.161377 
	C449.224762,449.778778 449.224762,447.970978 449.224762,446.163147 
	C449.224762,401.878021 449.229858,357.592926 449.214966,313.307800 
	C449.213776,309.818298 449.073914,306.328857 449.338593,302.509430 
	C449.593414,302.315918 449.805176,302.083191 450.916595,301.905792 
	C456.346161,301.905792 461.775757,301.905792 467.324036,301.905792 
	C467.324036,293.561798 467.324036,285.778320 467.820770,277.193756 
	C467.926910,276.897980 468.033051,276.602234 469.032410,276.467499 
	C476.260620,276.467499 483.488831,276.467499 490.915619,276.467499 
	C490.915619,265.315735 490.915619,254.589661 491.094513,243.218353 
	C491.028809,242.779068 490.963104,242.339767 491.042969,240.987244 
	C491.042969,236.410339 491.042969,231.833435 491.042969,227.171539 
	C483.391815,227.171539 476.284271,227.171539 468.535553,226.873566 
	C467.818207,226.238754 467.123657,225.081085 466.380096,225.048737 
	C457.351074,224.655685 448.314850,224.428314 438.289246,224.081161 
	C396.333710,224.081161 354.378174,224.081161 311.885406,224.081161 
	C311.885406,217.975815 311.885406,212.254044 311.885406,206.327133 
	C265.373627,206.327133 219.399719,206.327133 172.589203,206.101639 
	C161.563858,206.176422 150.538528,206.251205 138.477203,206.275482 
	C118.055618,206.275482 97.634033,206.275482 76.941315,206.275482 
	C76.941315,215.335037 76.941315,223.933670 76.677818,232.996979 
	C76.768272,233.506577 76.858734,234.016159 76.746750,235.528107 
	C76.746750,257.558990 76.746750,279.589874 76.746750,301.807861 
	C92.971458,301.807861 108.571785,301.807861 124.506836,302.181946 
	C124.697205,302.457123 124.887573,302.732269 124.917381,303.934235 
	C124.917381,318.157715 124.917381,332.381195 124.917381,346.961395 
	C135.494797,346.961395 145.734955,346.961395 156.211990,347.536926 
	C156.339493,347.923981 156.466995,348.311005 156.501770,349.699860 
	C156.501770,383.754883 156.501770,417.809937 156.501770,452.083344 
	C181.369980,452.083344 205.649857,452.083344 230.007782,452.677490 
	C230.177872,453.034546 230.347961,453.391632 230.397324,454.736267 
	C230.397324,476.407166 230.397324,498.078033 230.397324,519.744141 
	C246.116852,519.744141 261.057159,519.744141 276.629578,519.897705 
	C276.843506,519.862244 277.057434,519.826843 277.734039,519.988098 
	C278.056274,519.924438 278.378510,519.860718 279.359711,519.898865 
	C279.574005,519.847534 279.788300,519.796143 280.925476,519.916504 
	C290.955963,519.858337 300.986481,519.800171 311.509064,519.878113 
	C311.602600,519.591248 311.696167,519.304382 311.984375,518.095947 
z"/>
<path fill="#019299" opacity="1.000000" stroke="none" 
	d="
M156.594498,348.698059 
	C156.466995,348.311005 156.339493,347.923981 156.004196,346.922821 
	C145.556915,331.874969 135.317429,317.441193 125.077942,303.007446 
	C124.887573,302.732269 124.697205,302.457123 124.206467,301.679169 
	C119.862961,295.309418 115.878830,289.400726 111.765457,283.583435 
	C100.188492,267.210724 88.558357,250.875671 76.949188,234.525757 
	C76.858734,234.016159 76.768272,233.506577 77.171341,232.656097 
	C96.620277,220.723343 116.328560,211.007736 138.645782,207.738373 
	C138.996353,207.686996 139.226715,206.815002 139.513184,206.325989 
	C150.538528,206.251205 161.563858,206.176422 172.965668,206.462936 
	C173.155396,207.084137 172.968658,207.344025 172.781937,207.603928 
	C172.927856,207.660919 173.069305,207.748535 173.220322,207.770584 
	C197.892136,211.375290 219.452087,222.398132 238.985825,237.101776 
	C259.790558,252.762100 279.684357,269.632538 300.095032,286.291626 
	C314.455048,298.382050 329.177704,309.463989 345.943024,317.472626 
	C361.369659,324.841675 377.438202,328.699036 394.700745,326.226562 
	C413.556335,323.525970 429.470947,314.649780 444.302948,303.309509 
	C446.039154,301.982025 448.060089,301.026917 450.065247,300.207764 
	C450.112305,300.947968 450.043091,301.379639 449.973877,301.811279 
	C449.805176,302.083191 449.593414,302.315918 448.863373,302.833099 
	C422.705627,335.842865 396.996216,368.507843 371.351685,401.223724 
	C358.129456,418.091949 345.022644,435.050598 331.863708,451.968414 
	C331.592865,452.159393 331.372894,452.397369 330.753967,453.018799 
	C324.507263,460.911011 318.710388,468.466797 312.913513,476.022583 
	C312.679962,476.293884 312.446381,476.565216 311.765320,477.198608 
	C300.859924,490.993011 290.402039,504.425293 279.681396,518.003662 
	C279.179321,518.698853 278.940033,519.247986 278.700745,519.797058 
	C278.378510,519.860718 278.056274,519.924438 277.397888,519.610352 
	C276.728790,518.768311 276.395813,518.303894 275.960785,517.517700 
	C262.605377,498.314423 249.371078,479.419586 236.074814,460.568481 
	C234.388763,458.178009 232.378235,456.016357 230.518036,453.748688 
	C230.347961,453.391632 230.177872,453.034546 229.879761,452.050842 
	C209.534973,422.677734 189.350357,393.908539 169.073914,365.204224 
	C165.096359,359.573425 160.763489,354.193634 156.594498,348.698059 
z"/>
<path fill="#EAB733" opacity="1.000000" stroke="none" 
	d="
M449.949005,299.899170 
	C448.060089,301.026917 446.039154,301.982025 444.302948,303.309509 
	C429.470947,314.649780 413.556335,323.525970 394.700745,326.226562 
	C377.438202,328.699036 361.369659,324.841675 345.943024,317.472626 
	C329.177704,309.463989 314.455048,298.382050 300.415131,286.132294 
	C315.606659,278.883911 330.664398,272.256195 345.573700,265.309784 
	C376.506378,250.897949 405.379150,231.809830 439.280487,224.157898 
	C448.314850,224.428314 457.351074,224.655685 466.380096,225.048737 
	C467.123657,225.081085 467.818207,226.238754 469.071167,227.267288 
	C476.703674,232.407501 483.800507,237.153992 490.897369,241.900482 
	C490.963104,242.339767 491.028809,242.779068 490.699127,243.692413 
	C482.915558,254.879822 475.527374,265.593170 468.139160,276.306519 
	C468.033051,276.602234 467.926910,276.897980 467.312286,277.745239 
	C462.217163,284.352356 457.630493,290.408020 452.722351,296.615417 
	C452.243225,297.175232 452.085663,297.583313 451.962524,297.987854 
	C451.997009,297.984314 451.973846,297.919006 451.633148,297.883179 
	C451.170685,298.224579 451.048889,298.601807 450.960480,298.985168 
	C450.993866,298.991364 450.972137,298.927032 450.613342,298.846069 
	C450.147888,299.166229 450.041260,299.567383 449.965851,299.957031 
	C449.997040,299.945557 449.949005,299.899170 449.949005,299.899170 
z"/>
<path fill="#000000" opacity="1.000000" stroke="none" 
	d="
M332.335999,452.064880 
	C345.022644,435.050598 358.129456,418.091949 371.351685,401.223724 
	C396.996216,368.507843 422.705627,335.842865 448.693298,302.998077 
	C449.073914,306.328857 449.213776,309.818298 449.214966,313.307800 
	C449.229858,357.592926 449.224762,401.878021 449.224762,446.163147 
	C449.224762,447.970978 449.224762,449.778778 449.224762,452.161377 
	C410.252991,452.161377 371.530640,452.161377 332.335999,452.064880 
z"/>
<path fill="#010101" opacity="1.000000" stroke="none" 
	d="
M438.784851,224.119537 
	C405.379150,231.809830 376.506378,250.897949 345.573700,265.309784 
	C330.664398,272.256195 315.606659,278.883911 300.296021,285.815308 
	C279.684357,269.632538 259.790558,252.762100 238.985825,237.101776 
	C219.452087,222.398132 197.892136,211.375290 173.220322,207.770584 
	C173.069305,207.748535 172.927856,207.660919 172.781937,207.603928 
	C172.968658,207.344025 173.155396,207.084137 173.383972,206.575684 
	C219.399719,206.327133 265.373627,206.327133 311.885406,206.327133 
	C311.885406,212.254044 311.885406,217.975815 311.885406,224.081161 
	C354.378174,224.081161 396.333710,224.081161 438.784851,224.119537 
z"/>
<path fill="#000000" opacity="1.000000" stroke="none" 
	d="
M730.946655,481.788940 
	C721.342224,481.802032 711.737854,481.815125 701.673828,481.348450 
	C700.758179,479.454651 700.386047,478.006866 699.833496,476.631622 
	C686.213196,442.730316 672.573792,408.836700 658.937744,374.941711 
	C659.916382,374.808868 660.894897,374.560699 661.873596,374.559967 
	C690.040222,374.539001 718.207031,374.506439 746.372925,374.649445 
	C747.787964,374.656586 749.195190,376.217834 750.032715,377.604675 
	C743.519104,378.153870 737.578796,378.153870 731.143188,378.153870 
	C731.143188,412.457794 731.143188,446.159668 731.079346,480.179291 
	C730.992493,480.927643 730.969604,481.358307 730.946655,481.788940 
z"/>
<path fill="#010101" opacity="1.000000" stroke="none" 
	d="
M590.996643,373.912811 
	C607.803528,374.127045 624.610352,374.341248 641.888916,375.022217 
	C627.416870,410.384033 612.473145,445.279114 597.460815,480.334259 
	C598.819458,480.927277 599.829712,481.368286 600.840027,481.809265 
	C583.908630,481.840271 566.977295,481.871307 549.562622,481.495972 
	C549.143311,480.598053 549.105957,480.065521 549.285645,479.620636 
	C560.875916,450.925873 572.536804,422.259430 584.049622,393.533630 
	C586.628540,387.098877 588.694519,380.458496 590.996643,373.912811 
z"/>
<path fill="#77787B" opacity="1.000000" stroke="none" 
	d="
M601.312988,481.886200 
	C599.829712,481.368286 598.819458,480.927277 597.460815,480.334259 
	C612.473145,445.279114 627.416870,410.384033 642.379272,375.080627 
	C647.611694,374.678406 652.825500,374.684479 658.488525,374.816132 
	C672.573792,408.836700 686.213196,442.730316 699.833496,476.631622 
	C700.386047,478.006866 700.758179,479.454651 701.232056,481.242310 
	C696.093506,481.732025 690.937073,481.848145 685.050415,481.650330 
	C682.816345,480.182159 680.539978,479.332733 679.943237,477.820557 
	C677.443665,471.486389 675.596802,464.896179 673.152344,458.537567 
	C672.603516,457.109955 670.628113,455.283752 669.278625,455.257996 
	C656.287476,455.010406 643.288879,455.045166 630.295227,455.213898 
	C629.080261,455.229675 627.164734,456.473969 626.794739,457.562622 
	C624.071106,465.575958 621.657959,473.694824 619.147034,481.780426 
	C613.359985,481.841309 607.572937,481.902222 601.312988,481.886200 
M657.088135,418.354889 
	C655.321960,412.844971 653.555725,407.335083 651.463867,400.809113 
	C646.273743,413.611389 641.451843,425.505432 636.415283,437.928955 
	C645.701904,437.928955 654.215088,437.928955 663.261841,437.928955 
	C661.197815,431.389160 659.261719,425.254608 657.088135,418.354889 
z"/>
<path fill="#76777A" opacity="1.000000" stroke="none" 
	d="
M880.917725,461.934326 
	C880.957581,467.323486 880.997437,472.712616 880.500610,478.557983 
	C862.313965,479.011078 844.663696,478.959808 827.014648,479.083740 
	C825.354675,479.095398 823.702393,480.210480 822.046509,480.813232 
	C821.526672,480.860352 821.006897,480.907471 820.259216,480.357788 
	C820.020142,470.567627 820.008850,461.374268 819.997620,452.180939 
	C819.997620,427.104828 819.997620,402.028748 819.997620,376.540466 
	C840.636963,376.540466 860.787354,376.540466 881.701843,376.540466 
	C881.701843,379.177490 881.701843,381.776825 881.299194,384.879517 
	C878.695129,386.828888 876.176147,387.959229 874.358582,389.787048 
	C870.642639,393.523895 866.378418,394.533691 861.258057,394.318085 
	C853.320007,393.983887 845.357422,394.229889 837.242981,394.229889 
	C837.242981,402.043823 837.242981,409.252502 837.242981,417.103394 
	C850.640015,417.103394 863.680969,417.103394 876.713257,417.103394 
	C876.713257,423.197144 876.713257,428.640656 876.713257,434.740082 
	C863.435913,434.740082 850.383240,434.740082 837.205872,434.740082 
	C837.205872,444.128113 837.205872,452.854095 837.205872,461.934326 
	C851.993286,461.934326 866.455505,461.934326 880.917725,461.934326 
z"/>
<path fill="#000000" opacity="1.000000" stroke="none" 
	d="
M156.548126,349.198975 
	C160.763489,354.193634 165.096359,359.573425 169.073914,365.204224 
	C189.350357,393.908539 209.534973,422.677734 229.840729,451.753784 
	C205.649857,452.083344 181.369980,452.083344 156.501770,452.083344 
	C156.501770,417.809937 156.501770,383.754883 156.548126,349.198975 
z"/>
<path fill="#76777A" opacity="1.000000" stroke="none" 
	d="
M590.677002,373.661438 
	C588.694519,380.458496 586.628540,387.098877 584.049622,393.533630 
	C572.536804,422.259430 560.875916,450.925873 549.285645,479.620636 
	C549.105957,480.065521 549.143311,480.598053 549.103455,481.457336 
	C545.030945,481.894287 540.934387,481.963593 536.460815,481.584412 
	C532.417847,472.867737 528.774475,464.589264 525.036621,456.353699 
	C524.776550,455.780701 523.814331,455.526306 523.178650,455.123779 
	C523.065186,454.384094 522.951660,453.644409 522.833862,452.182251 
	C517.289429,439.443512 511.803253,427.401917 506.194275,415.417877 
	C500.184753,402.578186 494.059631,389.792633 487.984955,376.983429 
	C487.305389,374.054840 488.630219,373.134369 491.426117,373.228760 
	C496.399231,373.396515 501.379242,373.361755 506.790283,374.001343 
	C508.081635,375.769409 509.176575,376.841095 509.761230,378.142090 
	C520.258850,401.502869 530.688904,424.894043 541.165955,448.264099 
	C541.583496,449.195465 542.322632,449.982666 543.268005,451.353149 
	C553.001953,425.124420 562.480957,399.582764 571.959961,374.041138 
	C578.092468,373.830750 584.224976,373.620392 590.677002,373.661438 
z"/>
<path fill="#76777A" opacity="1.000000" stroke="none" 
	d="
M731.143188,479.861572 
	C731.143188,446.159668 731.143188,412.457794 731.143188,378.153870 
	C737.578796,378.153870 743.519104,378.153870 749.954224,378.092499 
	C750.532166,399.613434 750.614075,421.195740 750.699768,442.778046 
	C750.710999,445.602417 750.741211,448.426758 750.839417,452.169067 
	C750.916138,456.182892 750.916138,459.278687 750.916138,463.014893 
	C766.450989,463.014893 781.586243,463.014893 797.263000,463.014893 
	C797.263000,469.271606 797.263000,474.883209 797.263000,480.494812 
	C791.263245,480.644867 785.263550,480.794891 778.514038,480.802765 
	C775.978333,480.466370 774.193665,480.117645 772.406189,480.102478 
	C758.652161,479.985718 744.897583,479.933685 731.143188,479.861572 
z"/>
<path fill="#010101" opacity="1.000000" stroke="none" 
	d="
M571.505981,373.927673 
	C562.480957,399.582764 553.001953,425.124420 543.268005,451.353149 
	C542.322632,449.982666 541.583496,449.195465 541.165955,448.264099 
	C530.688904,424.894043 520.258850,401.502869 509.761230,378.142090 
	C509.176575,376.841095 508.081635,375.769409 507.110474,374.257568 
	C528.348450,373.887543 549.700195,373.850861 571.505981,373.927673 
z"/>
<path fill="#010101" opacity="1.000000" stroke="none" 
	d="
M880.993652,461.487976 
	C866.455505,461.934326 851.993286,461.934326 837.205872,461.934326 
	C837.205872,452.854095 837.205872,444.128113 837.205872,434.740082 
	C850.383240,434.740082 863.435913,434.740082 876.713257,434.740082 
	C876.713257,428.640656 876.713257,423.197144 876.713257,417.103394 
	C863.680969,417.103394 850.640015,417.103394 837.242981,417.103394 
	C837.242981,409.252502 837.242981,402.043823 837.242981,394.229889 
	C845.357422,394.229889 853.320007,393.983887 861.258057,394.318085 
	C866.378418,394.533691 870.642639,393.523895 874.358582,389.787048 
	C876.176147,387.959229 878.695129,386.828888 881.207214,385.329346 
	C881.368408,410.531097 881.219055,435.786346 880.993652,461.487976 
z"/>
<path fill="#010202" opacity="1.000000" stroke="none" 
	d="
M230.457672,454.242493 
	C232.378235,456.016357 234.388763,458.178009 236.074814,460.568481 
	C249.371078,479.419586 262.605377,498.314423 275.940735,517.834961 
	C276.014282,518.897522 276.005859,519.320801 275.997437,519.744141 
	C261.057159,519.744141 246.116852,519.744141 230.397324,519.744141 
	C230.397324,498.078033 230.397324,476.407166 230.457672,454.242493 
z"/>
<path fill="#010202" opacity="1.000000" stroke="none" 
	d="
M76.847961,235.026932 
	C88.558357,250.875671 100.188492,267.210724 111.765457,283.583435 
	C115.878830,289.400726 119.862961,295.309418 124.039093,301.492126 
	C108.571785,301.807861 92.971458,301.807861 76.746750,301.807861 
	C76.746750,279.589874 76.746750,257.558990 76.847961,235.026932 
z"/>
<path fill="#030303" opacity="1.000000" stroke="none" 
	d="
M619.603149,481.837830 
	C621.657959,473.694824 624.071106,465.575958 626.794739,457.562622 
	C627.164734,456.473969 629.080261,455.229675 630.295227,455.213898 
	C643.288879,455.045166 656.287476,455.010406 669.278625,455.257996 
	C670.628113,455.283752 672.603516,457.109955 673.152344,458.537567 
	C675.596802,464.896179 677.443665,471.486389 679.943237,477.820557 
	C680.539978,479.332733 682.816345,480.182159 684.577576,481.575623 
	C663.243042,481.841614 641.651184,481.868439 619.603149,481.837830 
z"/>
<path fill="#010101" opacity="1.000000" stroke="none" 
	d="
M487.929749,377.450378 
	C494.059631,389.792633 500.184753,402.578186 506.194275,415.417877 
	C511.803253,427.401917 517.289429,439.443512 522.916992,451.813171 
	C511.523529,452.166595 500.042664,452.166595 487.874542,452.166595 
	C487.874542,427.354279 487.874542,402.635803 487.929749,377.450378 
z"/>
<path fill="#010101" opacity="1.000000" stroke="none" 
	d="
M797.710754,480.555237 
	C797.263000,474.883209 797.263000,469.271606 797.263000,463.014893 
	C781.586243,463.014893 766.450989,463.014893 750.916138,463.014893 
	C750.916138,459.278687 750.916138,456.182892 750.959839,452.637177 
	C773.689270,452.184662 796.374939,452.182007 819.529175,452.180176 
	C820.008850,461.374268 820.020142,470.567627 819.902222,480.189270 
	C812.568237,480.616943 805.363342,480.616302 797.710754,480.555237 
z"/>
<path fill="#010202" opacity="1.000000" stroke="none" 
	d="
M279.944183,517.857605 
	C290.402039,504.425293 300.859924,490.993011 311.584351,477.398438 
	C311.895386,490.856049 311.939880,504.476013 311.724121,518.637329 
	C311.259033,519.322083 311.110077,519.509827 311.016968,519.741943 
	C300.986481,519.800171 290.955963,519.858337 280.461670,519.515991 
	C279.979980,518.696167 279.962097,518.276917 279.944183,517.857605 
z"/>
<path fill="#010202" opacity="1.000000" stroke="none" 
	d="
M138.995193,206.300735 
	C139.226715,206.815002 138.996353,207.686996 138.645782,207.738373 
	C116.328560,211.007736 96.620277,220.723343 77.303085,232.423767 
	C76.941315,223.933670 76.941315,215.335037 76.941315,206.275482 
	C97.634033,206.275482 118.055618,206.275482 138.995193,206.300735 
z"/>
<path fill="#010101" opacity="1.000000" stroke="none" 
	d="
M124.997658,303.470825 
	C135.317429,317.441193 145.556915,331.874969 155.885757,346.635071 
	C145.734955,346.961395 135.494797,346.961395 124.917381,346.961395 
	C124.917381,332.381195 124.917381,318.157715 124.997658,303.470825 
z"/>
<path fill="#030303" opacity="1.000000" stroke="none" 
	d="
M468.585815,276.387024 
	C475.527374,265.593170 482.915558,254.879822 490.609680,244.015015 
	C490.915619,254.589661 490.915619,265.315735 490.915619,276.467499 
	C483.488831,276.467499 476.260620,276.467499 468.585815,276.387024 
z"/>
<path fill="#010202" opacity="1.000000" stroke="none" 
	d="
M313.378235,476.130524 
	C318.710388,468.466797 324.507263,460.911011 330.594025,453.203674 
	C330.883942,460.653656 330.883942,468.255219 330.883942,476.238464 
	C325.030273,476.238464 319.436584,476.238464 313.378235,476.130524 
z"/>
<path fill="#030303" opacity="1.000000" stroke="none" 
	d="
M453.043854,296.463654 
	C457.630493,290.408020 462.217163,284.352356 467.063904,278.145813 
	C467.324036,285.778320 467.324036,293.561798 467.324036,301.905792 
	C461.775757,301.905792 456.346161,301.905792 450.445251,301.858521 
	C450.043091,301.379639 450.112305,300.947968 450.065247,300.207764 
	C449.949005,299.899170 449.997040,299.945557 450.266754,299.971191 
	C450.681702,299.640198 450.826904,299.283630 450.972137,298.927032 
	C450.972137,298.927032 450.993866,298.991364 451.232513,298.926086 
	C451.638733,298.546875 451.806274,298.232941 451.973816,297.919006 
	C451.973846,297.919006 451.997009,297.984314 452.262421,297.835693 
	C452.699829,297.279266 452.871826,296.871460 453.043854,296.463654 
z"/>
<path fill="#030303" opacity="1.000000" stroke="none" 
	d="
M523.171265,455.584473 
	C523.814331,455.526306 524.776550,455.780701 525.036621,456.353699 
	C528.774475,464.589264 532.417847,472.867737 535.996155,481.504761 
	C531.917786,481.873657 527.927185,481.873657 523.163879,481.873657 
	C523.163879,473.192780 523.163879,464.618958 523.171265,455.584473 
z"/>
<path fill="#030303" opacity="1.000000" stroke="none" 
	d="
M490.970154,241.443863 
	C483.800507,237.153992 476.703674,232.407501 469.391785,227.416275 
	C476.284271,227.171539 483.391815,227.171539 491.042969,227.171539 
	C491.042969,231.833435 491.042969,236.410339 490.970154,241.443863 
z"/>
<path fill="#565759" opacity="1.000000" stroke="none" 
	d="
M822.509766,480.863037 
	C823.702393,480.210480 825.354675,479.095398 827.014648,479.083740 
	C844.663696,478.959808 862.313965,479.011078 880.424805,479.022339 
	C880.885681,479.030487 881.017578,479.505188 880.774414,479.840515 
	C880.283203,480.333313 880.098511,480.545807 879.976990,480.813293 
	C860.975647,480.846466 841.974304,480.879639 822.509766,480.863037 
z"/>
<path fill="#333333" opacity="1.000000" stroke="none" 
	d="
M731.079346,480.179291 
	C744.897583,479.933685 758.652161,479.985718 772.406189,480.102478 
	C774.193665,480.117645 775.978333,480.466370 778.098450,480.967896 
	C777.018738,481.525330 775.605591,481.988098 774.190979,481.992737 
	C760.083984,482.039154 745.976685,482.010040 731.408081,481.895599 
	C730.969604,481.358307 730.992493,480.927643 731.079346,480.179291 
z"/>
<path fill="#030303" opacity="1.000000" stroke="none" 
	d="
M276.313507,519.820923 
	C276.005859,519.320801 276.014282,518.897522 276.042786,518.156860 
	C276.395813,518.303894 276.728790,518.768311 277.166565,519.512085 
	C277.057434,519.826843 276.843506,519.862244 276.313507,519.820923 
z"/>
<path fill="#030303" opacity="1.000000" stroke="none" 
	d="
M279.681396,518.003662 
	C279.962097,518.276917 279.979980,518.696167 280.000244,519.430176 
	C279.788300,519.796143 279.574005,519.847534 279.030212,519.847961 
	C278.940033,519.247986 279.179321,518.698853 279.681396,518.003662 
z"/>
<path fill="#030303" opacity="1.000000" stroke="none" 
	d="
M311.263000,519.810059 
	C311.110077,519.509827 311.259033,519.322083 311.626770,519.098145 
	C311.696167,519.304382 311.602600,519.591248 311.263000,519.810059 
z"/>
<path fill="#76777A" opacity="1.000000" stroke="none" 
	d="
M880.250977,480.857361 
	C880.098511,480.545807 880.283203,480.333313 880.722778,480.081421 
	C880.784546,480.291779 880.654785,480.596619 880.250977,480.857361 
z"/>
<path fill="#019299" opacity="1.000000" stroke="none" 
	d="
M452.722351,296.615417 
	C452.871826,296.871460 452.699829,297.279266 452.227966,297.839233 
	C452.085663,297.583313 452.243225,297.175232 452.722351,296.615417 
z"/>
<path fill="#019299" opacity="1.000000" stroke="none" 
	d="
M450.613342,298.846069 
	C450.826904,299.283630 450.681702,299.640198 450.235565,299.982666 
	C450.041260,299.567383 450.147888,299.166229 450.613342,298.846069 
z"/>
<path fill="#019299" opacity="1.000000" stroke="none" 
	d="
M451.633118,297.883179 
	C451.806274,298.232941 451.638733,298.546875 451.199127,298.919922 
	C451.048889,298.601807 451.170685,298.224579 451.633118,297.883179 
z"/>
<path fill="#FFFFFF" opacity="1.000000" stroke="none" 
	d="
M657.206848,418.737488 
	C659.261719,425.254608 661.197815,431.389160 663.261841,437.928955 
	C654.215088,437.928955 645.701904,437.928955 636.415283,437.928955 
	C641.451843,425.505432 646.273743,413.611389 651.463867,400.809113 
	C653.555725,407.335083 655.321960,412.844971 657.206848,418.737488 
z"/>
</svg>