<?xml version="1.0" encoding="UTF-8" standalone="no"?>
<svg
   version="1.1"
   id="Layer_1"
   x="0px"
   y="0px"
   width="300"
   viewBox="0 0 300 150"
   enable-background="new 0 0 960 720"
   xml:space="preserve"
   sodipodi:docname="vale2.svg"
   height="150"
   inkscape:version="1.4 (e7c3feb100, 2024-10-09)"
   inkscape:export-filename="VALE22.svg"
   inkscape:export-xdpi="96"
   inkscape:export-ydpi="96"
   xmlns:inkscape="http://www.inkscape.org/namespaces/inkscape"
   xmlns:sodipodi="http://sodipodi.sourceforge.net/DTD/sodipodi-0.dtd"
   xmlns="http://www.w3.org/2000/svg"
   xmlns:svg="http://www.w3.org/2000/svg"><defs
   id="defs37" /><sodipodi:namedview
   id="namedview37"
   pagecolor="#ffffff"
   bordercolor="#000000"
   borderopacity="0.25"
   inkscape:showpageshadow="2"
   inkscape:pageopacity="0.0"
   inkscape:pagecheckerboard="0"
   inkscape:deskcolor="#d1d1d1"
   showgrid="false"
   inkscape:zoom="2.8284271"
   inkscape:cx="311.65731"
   inkscape:cy="48.260038"
   inkscape:window-width="1920"
   inkscape:window-height="992"
   inkscape:window-x="1920"
   inkscape:window-y="0"
   inkscape:window-maximized="1"
   inkscape:current-layer="Layer_1"><inkscape:page
     x="0"
     y="0"
     width="300"
     height="150"
     id="page2"
     margin="0"
     bleed="0" /></sodipodi:namedview>




































<g
   id="g1"
   transform="translate(-0.00295665,1.3695776)"><path
     fill="#019299"
     opacity="1"
     stroke="none"
     d="M 30.43511,68.270284 C 30.387864,68.126869 30.340621,67.983462 30.216385,67.612501 26.34533,62.036791 22.551275,56.688613 18.757216,51.34045 18.686678,51.238487 18.61614,51.136535 18.434309,50.84828 16.824899,48.488084 15.348651,46.298725 13.824516,44.143229 9.5348781,38.076616 5.2255401,32.023957 0.92397133,25.965792 0.89045671,25.776969 0.85693616,25.588153 1.0062861,25.273023 8.2127395,20.851554 15.441225,16.838162 23.784535,16.040207 c 6.650968,-0.6361 7.005289,-0.612104 12.810974,0.01193 9.141699,1.33566 17.130351,5.419975 24.368223,10.868148 7.708822,5.80265 15.080112,12.053688 22.642918,18.226414 5.320847,4.479888 10.77606,8.586101 16.98815,11.553559 5.71606,2.730465 11.66997,4.159744 18.06629,3.243611 6.9866,-1.000655 12.88348,-4.289567 18.37921,-8.491501 0.64332,-0.491873 1.39214,-0.845772 2.13512,-1.149297 0.0174,0.274271 -0.008,0.434219 -0.0339,0.594155 -0.0625,0.100752 -0.14098,0.186986 -0.41148,0.378617 -9.69228,12.231177 -19.21844,24.334594 -28.72056,36.456875 -4.89926,6.250219 -9.75575,12.533942 -14.631558,18.802532 -0.100355,0.0708 -0.181865,0.15894 -0.411194,0.3892 -2.314606,2.92432 -4.462532,5.72398 -6.610462,8.52364 -0.08654,0.10053 -0.173086,0.20107 -0.425441,0.43576 -4.0408,5.11126 -7.915779,10.08835 -11.888119,15.11957 -0.186037,0.25759 -0.274702,0.46107 -0.363366,0.66452 -0.119397,0.0236 -0.238797,0.0472 -0.482748,-0.0692 -0.247923,-0.312 -0.371303,-0.48408 -0.532495,-0.77539 -4.948603,-7.11543 -9.852335,-14.11657 -14.779029,-21.10151 -0.624735,-0.88574 -1.369701,-1.6867 -2.058961,-2.52695 -0.06302,-0.1323 -0.126044,-0.26461 -0.236503,-0.62911 C 50.051238,95.682116 42.572194,85.02221 35.05912,74.386341 33.585311,72.299949 31.979843,70.306565 30.435099,68.27028 Z"
     id="path2"
     sodipodi:nodetypes="cccccccscsccsscccsccccccccsccscc"
     style="opacity:0.947989;fill:#016b67;fill-opacity:1;stroke-width:0.370532" /><path
     fill="#eab733"
     opacity="1"
     stroke="none"
     d="m 139.13234,50.188733 c -0.6999,0.417868 -1.44872,0.771766 -2.09204,1.26364 -5.49573,4.201933 -11.39261,7.490846 -18.37921,8.491501 -6.39632,0.916133 -12.35023,-0.513146 -18.06629,-3.243611 -6.21209,-2.967458 -11.667303,-7.073671 -16.869543,-11.6126 5.628949,-2.685756 11.305006,-4.586964 16.732693,-7.715406 13.21138,-7.614852 31.40722,-22.673436 45.75977,-14.09596 2.82808,1.904612 5.45769,3.663338 8.0873,5.422065 0.0243,0.162771 0.0487,0.325546 -0.0735,0.663967 -2.88406,4.145294 -5.62162,8.114933 -8.35919,12.084572 -0.0393,0.10957 -0.0786,0.219155 -0.30638,0.533092 -1.88791,2.448149 -3.58742,4.691965 -5.40604,6.992006 -0.17754,0.207427 -0.23592,0.358634 -0.28154,0.508529 0.0128,-0.0015 0.004,-0.02549 -0.12205,-0.03878 -0.17136,0.1265 -0.21648,0.266276 -0.24924,0.408323 0.0124,0.0022 0.004,-0.02153 -0.12863,-0.05154 -0.17246,0.118629 -0.21197,0.267268 -0.23991,0.411646 0.0116,-0.0043 -0.006,-0.02145 -0.006,-0.02145 z"
     id="path3"
     sodipodi:nodetypes="cssccsccccccccccccc"
     style="fill:#e6aa06;fill-opacity:1;stroke-width:0.370532" /><path
     fill="#77787b"
     opacity="1"
     stroke="none"
     d="m 195.21755,117.62075 c -0.54961,-0.1919 -0.92394,-0.35531 -1.42736,-0.57504 5.56255,-12.98906 11.09968,-25.9188 16.64373,-38.999839 1.93878,-0.149036 3.87066,-0.146787 5.96899,-0.09801 5.21904,12.60571 10.27288,25.164389 15.31964,37.725899 0.20474,0.50958 0.34262,1.04603 0.51821,1.70841 -1.904,0.18146 -3.81462,0.22448 -5.99582,0.15119 -0.82779,-0.54401 -1.67126,-0.85875 -1.89237,-1.41906 -0.92617,-2.34701 -1.61049,-4.78889 -2.51624,-7.14496 -0.20336,-0.52898 -0.93531,-1.20565 -1.43534,-1.21519 -4.81364,-0.0917 -9.63003,-0.0789 -14.4446,-0.0163 -0.45018,0.006 -1.15995,0.4669 -1.29704,0.87028 -1.00919,2.9692 -1.90334,5.97749 -2.83372,8.97347 -2.14428,0.0226 -4.28857,0.0451 -6.60808,0.0392 m 20.66647,-23.540385 c -0.65442,-2.041602 -1.30887,-4.083192 -2.08397,-6.501273 -1.92311,4.743654 -3.70977,9.150777 -5.57598,13.754088 3.44099,0 6.5954,0 9.94751,0 -0.76479,-2.423201 -1.48217,-4.696248 -2.28756,-7.252815 z"
     id="path8"
     style="fill:#808080;stroke-width:0.370532" /><path
     fill="#76777a"
     opacity="1"
     stroke="none"
     d="m 298.82005,110.22795 c -0.0717,2.01848 -0.0353,4.68574 -0.0464,6.85164 -6.84687,0.0381 -12.82457,-0.0457 -19.36411,1.7e-4 -1.08632,0.008 -1.93969,0.0288 -3.06539,-0.0253 -0.0886,-3.62756 -0.0928,-7.034 -0.0969,-10.44042 V 78.586773 h 22.86339 c 0,0.9771 0,1.940235 -0.14919,3.089885 -0.96489,0.722304 -1.89825,1.141131 -2.57172,1.818397 -1.37688,1.384619 -2.95691,1.758782 -4.85416,1.678892 -2.94131,-0.123828 -5.8917,-0.03268 -8.89836,-0.03268 v 8.475364 h 14.625 v 6.534959 h -14.63875 v 10.07634 z"
     id="path9"
     sodipodi:nodetypes="ccscccccssccccccc"
     style="fill:#808080;stroke-width:0.370532" /><path
     fill="#76777a"
     opacity="1"
     stroke="none"
     d="m 191.27657,77.520015 c -5.92601,14.528045 -9.77358,24.185905 -15.33682,39.261275 -0.26246,0.71123 -0.19803,0.70153 -0.46962,0.70565 -1.24476,0.0189 -2.86031,0.0105 -4.28239,0.022 -1.49805,-3.2298 -2.84803,-6.29725 -4.23303,-9.34878 -0.0964,-0.21232 -0.52787,-0.98859 -0.81619,-1.54566 -2.05439,-4.72011 -4.0872,-9.181905 -6.1655,-13.622376 -2.22672,-4.757516 -4.49628,-9.494975 -6.74714,-14.241194 -0.2518,-1.085136 0.23909,-1.4262 1.27506,-1.391225 1.8427,0.06216 3.68795,0.04928 5.69292,0.286266 0.47848,0.655126 0.8842,1.052218 1.10083,1.53428 3.8897,8.655917 7.75437,17.323094 11.63646,25.982449 0.15471,0.3451 0.42858,0.63679 0.77887,1.14459 3.60674,-9.718582 7.11902,-19.182584 10.63129,-28.646572 2.27229,-0.07796 4.54458,-0.155902 6.93526,-0.140691 z"
     id="path11"
     sodipodi:nodetypes="csscscsccccscccc"
     style="fill:#808080;stroke-width:0.370532" /><path
     fill="#76777a"
     opacity="1"
     stroke="none"
     d="m 243.32379,116.87056 c 0,-12.48763 0,-24.975255 0,-37.685956 2.3846,0 4.58567,0 6.97009,-0.02275 0.21415,7.974193 0.2445,15.97113 0.27625,23.968066 0.004,1.04652 0.0153,2.09303 0.0517,3.47967 0.0284,1.48725 0.0284,2.63435 0.0284,4.01873 5.75616,0 11.36426,0 17.173,0 0,2.31831 0,4.39759 0,6.47687 -2.2231,0.0556 -4.44618,0.11119 -6.94709,0.11411 -0.93956,-0.12465 -1.60084,-0.25387 -2.26315,-0.25948 -5.09631,-0.0433 -10.19282,-0.0625 -15.28927,-0.0893 z"
     id="path12"
     style="fill:#808080;stroke-width:0.370532" /><path
     fill="#019299"
     opacity="1"
     stroke="none"
     d="m 140.15996,48.971999 c 0.0554,0.09487 -0.008,0.245977 -0.18319,0.45346 -0.0527,-0.09483 0.006,-0.246033 0.18319,-0.45346 z"
     id="path34"
     style="stroke-width:0.370532" /><path
     fill="#019299"
     opacity="1"
     stroke="none"
     d="m 139.3785,49.798526 c 0.0791,0.16213 0.0254,0.29425 -0.13998,0.421146 -0.072,-0.153878 -0.0325,-0.302517 0.13998,-0.421146 z"
     id="path35"
     style="stroke-width:0.370532" /><path
     fill="#019299"
     opacity="1"
     stroke="none"
     d="m 139.75636,49.441744 c 0.0642,0.129598 0.002,0.245919 -0.1608,0.384146 -0.0557,-0.11787 -0.0106,-0.257646 0.1608,-0.384146 z"
     id="path36"
     style="stroke-width:0.370532" /></g>
<g
   id="g96"
   transform="translate(-6.3900973,0.86493025)"><path
     style="fill:#0f3a68;fill-opacity:1;stroke:none"
     d="m 34.58529,113.19598 -2.509728,-1.05059"
     id="path85" /><path
     style="fill:#ff9955;fill-opacity:1;stroke:none"
     d="m 34.118364,113.31271 -2.918288,-1.22568 c 0,0 -1.575876,-1.05059 -2.042802,-1.34241 -0.466926,-0.29183 -2.684825,-1.69261 -2.684825,-1.69261 0,0 -1.809338,-1.22568 -2.159533,-1.45915 -0.350195,-0.23346 -3.618677,-2.62645 -3.618677,-2.62645 0,0 -1.400778,-1.75098 -2.159533,-2.33463 -0.758755,-0.58366 -3.326848,-3.501944 -3.326848,-3.501944 l -0.817121,-1.34241 6.88716,-7.062259 9.338521,-8.871596 9.688716,-7.70428 10.155642,-6.712062 9.280156,-5.252919 17.918288,-8.171206 7.354085,-2.684825 3.326849,6.070039 -8.988327,5.544747 -9.747082,8.229572 -10.680934,10.038911 -7.412451,8.054475 -8.346304,10.5642 -5.428015,8.054467 z"
     id="path87" /><path
     style="fill:#0072b5;fill-opacity:1;stroke:none"
     d="m 48.388792,116.84384 c 0,0 0.744163,-0.0146 0.81712,0.0146 0.07296,0.0292 1.648833,-0.0146 1.648833,-0.0146 l 3.385214,-0.30642 1.444553,-0.18969 1.707198,-0.32101 1.546693,-0.3502 1.094358,-0.26264 1.473735,-0.37938 1.82393,-0.62743 2.013619,-0.78794 2.597276,-1.13813 2.976654,-1.56129 2.582684,-1.67801 3.75,-2.88911 2.028211,-1.89688 1.721789,-1.75098 1.371596,-1.59046 1.021401,-1.342417 1.167315,-1.590457 0.5107,-0.74417 0.787938,-1.240269 0.904669,-1.561284 1.298638,-2.62646 0.817121,-1.838521 0.525292,-1.298638 0.321011,-0.948444 0.787938,-2.64105 0.335603,-1.400779 0.233463,-0.933852 0.277241,-1.342412 0.20428,-1.298638 0.23346,-1.867705 0.10214,-1.517509 0.13132,-1.736382 -0.0292,-1.794747 -0.0584,-1.92607 -0.17509,-1.838521 -0.0875,-0.992218 -0.1751,-1.123541 -0.496108,-2.641051 -0.40856,-1.619649 -0.437743,-1.546693 -0.466926,-1.502918 -0.189689,-0.569066 -4.640078,4.392023 -2.580247,2.602035 -3.549291,3.714374 -1.924937,1.942346 -2.480545,2.655642 -2.889105,3.180934 -2.568093,3.326848 -1.955253,2.830739 -1.92607,2.655642 -2.859922,4.319066 -2.217899,3.560312 -4.96109,8.63813 -3.501945,6.88716 -2.101167,4.20233 z"
     id="path88" /><path
     style="fill:#0072b5;fill-opacity:1;stroke:none"
     d="m 10.596963,92.009213 4.785992,-4.2607 8.521401,-7.120623 9.396887,-6.828793 6.945525,-4.377432 4.669261,-2.62646 8.054475,-4.319066 11.96498,-4.902723 8.754864,-3.968872 6.945525,-2.217899 3.560312,-1.400778 -4.85297,-5.998729 -1.836531,-1.989999 -0.88594,-0.907664 -0.686,-0.514005 -2.175938,-1.514579 -2.876459,-1.911357 -1.677894,-0.985773 -1.563929,-0.704067 c 0,0 -1.654456,-0.70729 -2.238114,-0.940753 -0.583657,-0.233463 -2.762494,-1.020246 -2.762494,-1.020246 l -3.159563,-0.941208 -3.984497,-0.74313 -4.155459,-0.412695 -4.206469,0.02389 -2.918288,0.233463 -1.72179,0.262646 -1.634241,0.291828 -1.371596,0.291829 -0.904669,0.175097 -0.671206,0.145915 -0.554475,0.116731 -0.875486,0.321012 c 0,0 -0.787938,0.145914 -0.904669,0.20428 -0.116732,0.05837 -1.167316,0.350195 -1.167316,0.350195 0,0 -1.196498,0.554474 -1.313229,0.554474 -0.116732,0 -1.021401,0.408561 -1.225681,0.496109 -0.20428,0.08755 -1.225681,0.554475 -1.400778,0.612841 -0.175098,0.05837 -0.919261,0.452334 -0.919261,0.452334 l -0.642023,0.379378 -0.992218,0.466926 -1.240273,0.714981 -1.386186,0.860894 -2.101168,1.400779 -0.933852,0.758755 -0.5107,0.379377 -0.350195,0.248054 -0.40856,0.335604 -0.802529,0.71498 -1.371596,1.284047 -0.685797,0.656615 -0.612841,0.61284 -0.948443,0.977627 -0.933853,1.065175 -1.050583,1.371595 -0.466926,0.627432 -0.656615,0.933852 -0.714981,0.992218 -0.963035,1.488327 -1.050583,1.838521 c -0.614665,1.248668 -1.3259467,2.455211 -1.8103487,3.760941 -0.04522,0.148253 -0.08254,0.515885 -0.08254,0.515885 l 0.0591,0.420224 c 0,0 0.115577,0.229017 0.177907,0.330463 0.05822,0.09476 0.10951,0.131471 0.198022,0.218998 0.06735,0.0666 0.168997,0.115265 0.204665,0.13431 0.07505,0.04007 0.381755,0.113495 0.381755,0.113495 0,0 0.3204627,0.02598 0.4333437,0.01032 0.451365,-0.06262 0.709417,-0.157031 1.1079,-0.316536 2.531517,-1.013326 3.404772,-2.053291 7.895369,-3.758136 5.612129,-2.457211 11.291485,-4.023083 17.116811,-5.182852 1.768847,-0.352162 4.999785,-0.880183 5.495894,-1.026097 8.072926,-0.94629 15.301063,-0.66413 23.437879,-0.940856 -7.967347,2.601 -12.657584,4.423393 -15.116732,5.340467 -0.122281,0.0456 -9.623701,3.263313 -10.07768,3.387125 -0.453979,0.123813 -5.942999,2.393708 -6.149353,2.434979 -0.206354,0.04127 -7.717644,3.673103 -7.717644,3.673103 l -4.581061,2.104812 c 0,0 -5.076312,2.682604 -5.241395,2.806416 -0.165083,0.123813 -5.984269,3.095312 -5.984269,3.095312 l -3.7556447,2.228625 -0.330167,5.282665 c 0,0 0.247625,3.01277 0.247625,3.219124 0,0.206355 0.619062,3.508021 0.619062,3.508021 l 1.650833,4.457248 z"
     id="path89"
     sodipodi:nodetypes="cccccccccccccccccccscccccccccccccscsssccccccccccccccccccccccsccssscsscsscsssccscccsccc" /></g><path
   id="path95"
   style="font-weight:bold;font-size:13.7273px;font-family:'Open Sans';-inkscape-font-specification:'Open Sans, Bold';fill:#000080;stroke-width:1.14394"
   d="m 262.85938,59.794922 c -1.06797,0 -1.94801,0.207475 -2.64063,0.623047 -0.69262,0.415573 -1.20587,1.00068 -1.54101,1.75586 -0.33067,0.750712 -0.49609,1.634082 -0.49609,2.648437 0,1.014354 0.16542,1.900508 0.49609,2.660156 0.33514,0.75965 0.84701,1.349491 1.53515,1.769532 0.69263,0.420041 1.56931,0.630859 2.63282,0.630859 1.06797,0 1.94661,-0.210818 2.63476,-0.630859 0.68816,-0.420041 1.19667,-1.006538 1.52735,-1.761719 0.33514,-0.759649 0.5039,-1.644411 0.5039,-2.654297 0,-1.018823 -0.16876,-1.906929 -0.5039,-2.662109 -0.33068,-0.75518 -0.83919,-1.340287 -1.52735,-1.75586 -0.68368,-0.415572 -1.55758,-0.623047 -2.62109,-0.623047 z m -47.9375,0.01367 c -1.02329,0 -1.83342,0.244791 -2.42773,0.736328 -0.59432,0.487069 -0.89063,1.170482 -0.89063,2.050782 0,0.446852 0.0766,0.832563 0.22852,1.154296 0.15639,0.317266 0.3544,0.587121 0.5957,0.810547 0.2413,0.223426 0.49556,0.413914 0.76367,0.570313 0.26811,0.151929 0.51625,0.281427 0.74414,0.388672 0.36195,0.174272 0.68668,0.336352 0.97266,0.488281 0.29045,0.15193 0.51825,0.315962 0.68359,0.490234 0.16533,0.174273 0.24805,0.383138 0.24805,0.628907 0,0.29939 -0.10917,0.547525 -0.32813,0.74414 -0.21448,0.196615 -0.57652,0.294922 -1.08593,0.294922 -0.49154,0 -0.98781,-0.08271 -1.48829,-0.248047 -0.50048,-0.165335 -0.98253,-0.349135 -1.44726,-0.554687 v 1.929687 c 0.80881,0.39323 1.73227,0.589844 2.77344,0.589844 1.15287,0 2.04237,-0.257604 2.66797,-0.771484 0.63006,-0.51388 0.94531,-1.208154 0.94531,-2.083985 0,-0.51388 -0.095,-0.943033 -0.28711,-1.287109 -0.19215,-0.348545 -0.46673,-0.649591 -0.82422,-0.904297 -0.35301,-0.259174 -0.78078,-0.507309 -1.28125,-0.744141 -0.61665,-0.294922 -1.07839,-0.541666 -1.38672,-0.738281 -0.30833,-0.201081 -0.46289,-0.475672 -0.46289,-0.824217 0,-0.294922 0.10443,-0.533587 0.31445,-0.716797 0.21002,-0.183209 0.51107,-0.27539 0.9043,-0.27539 0.37089,0 0.73627,0.05152 1.09375,0.154297 0.35749,0.09831 0.76157,0.238665 1.21289,0.421875 l 0.66992,-1.615235 c -0.50494,-0.223426 -0.99035,-0.393584 -1.45508,-0.509765 -0.46025,-0.12065 -0.94371,-0.179688 -1.45312,-0.179688 z m 39.10937,0 c -0.98754,0 -1.82357,0.216944 -2.51171,0.650391 -0.68369,0.428978 -1.20363,1.023554 -1.55665,1.783203 -0.35301,0.759649 -0.52929,1.631597 -0.52929,2.619141 0,1.005417 0.15595,1.887397 0.46875,2.642578 0.3128,0.750711 0.79347,1.335818 1.4414,1.755859 0.47815,0.304574 1.05445,0.494821 1.72461,0.576172 l -0.47656,0.945312 c 0.41111,0.05809 0.69795,0.151663 0.86328,0.28125 0.16534,0.129587 0.24805,0.276071 0.24805,0.441407 0,0.156396 -0.0482,0.264172 -0.14648,0.322265 -0.0938,0.06256 -0.20636,0.09375 -0.33594,0.09375 -0.13406,0 -0.29474,-0.0156 -0.48242,-0.04687 -0.18768,-0.03128 -0.34698,-0.06247 -0.47657,-0.09375 v 1.126953 c 0.12959,0.04022 0.27664,0.0728 0.4375,0.09961 0.16088,0.02681 0.34189,0.04102 0.54297,0.04102 0.782,-10e-7 1.32171,-0.143703 1.6211,-0.429688 0.29939,-0.281517 0.44921,-0.679479 0.44921,-1.193359 0,-0.33514 -0.11251,-0.606386 -0.33593,-0.816407 -0.22343,-0.21002 -0.47296,-0.359848 -0.75,-0.449218 l 0.13086,-0.296875 c 0.31746,-0.01825 0.62072,-0.04718 0.89453,-0.09961 0.42004,-0.07596 0.8478,-0.204072 1.28125,-0.382812 v -1.742188 c -0.4692,0.165336 -0.90643,0.293442 -1.3086,0.382813 -0.39769,0.08937 -0.79566,0.132812 -1.19336,0.132812 -0.85796,0 -1.48177,-0.285451 -1.875,-0.857422 -0.38876,-0.571971 -0.58398,-1.378756 -0.58398,-2.419922 0,-1.02776 0.21082,-1.840671 0.63086,-2.439453 0.42451,-0.598782 1.03272,-0.898437 1.82812,-0.898437 0.35748,0 0.72287,0.06573 1.09375,0.195312 0.37089,0.129587 0.73905,0.280806 1.10547,0.455078 l 0.66992,-1.689453 c -0.44685,-0.214489 -0.91471,-0.381303 -1.40624,-0.501953 -0.48708,-0.125118 -0.97583,-0.1875 -1.4629,-0.1875 z m 18.33985,0 c -1.02329,0 -1.83147,0.244791 -2.42578,0.736328 -0.59432,0.487069 -0.89258,1.170482 -0.89258,2.050782 0,0.446852 0.0766,0.832563 0.22851,1.154296 0.1564,0.317266 0.35441,0.587121 0.59571,0.810547 0.2413,0.223426 0.49751,0.413914 0.76562,0.570313 0.26811,0.151929 0.5143,0.281427 0.74219,0.388672 0.36195,0.174272 0.68667,0.336352 0.97266,0.488281 0.29045,0.15193 0.51826,0.315962 0.68359,0.490234 0.16533,0.174273 0.24805,0.383138 0.24805,0.628907 0,0.29939 -0.10917,0.547525 -0.32813,0.74414 -0.21449,0.196615 -0.57653,0.294922 -1.08594,0.294922 -0.49154,0 -0.9878,-0.08271 -1.48828,-0.248047 -0.50047,-0.165335 -0.98254,-0.349135 -1.44726,-0.554687 v 1.929687 c 0.8088,0.39323 1.73422,0.589844 2.77539,0.589844 1.15288,0 2.04042,-0.257604 2.66601,-0.771484 0.63006,-0.51388 0.94532,-1.208154 0.94532,-2.083985 0,-0.51388 -0.095,-0.943033 -0.28711,-1.287109 -0.19215,-0.348545 -0.46674,-0.649591 -0.82422,-0.904297 -0.35302,-0.259174 -0.78078,-0.507309 -1.28125,-0.744141 -0.61666,-0.294922 -1.07839,-0.541666 -1.38672,-0.738281 -0.30833,-0.201083 -0.46289,-0.475674 -0.46289,-0.824219 0,-0.294922 0.10443,-0.533587 0.31445,-0.716797 0.21002,-0.183209 0.51302,-0.27539 0.90625,-0.27539 0.37089,0 0.73432,0.05152 1.0918,0.154297 0.35748,0.09831 0.76157,0.238665 1.21289,0.421875 l 0.66992,-1.615235 c -0.50494,-0.223426 -0.9884,-0.393584 -1.45312,-0.509765 -0.46026,-0.12065 -0.94567,-0.179688 -1.45508,-0.179688 z m -52.7168,0.140625 v 9.798828 h 5.64258 v -1.714843 h -3.56445 v -2.527344 h 3.3164 v -1.703125 h -3.3164 v -2.150391 h 3.56445 v -1.703125 z m 7.6875,0 v 9.798828 h 2.07813 V 65.98828 h 1.10546 l 2.33985,3.759765 h 2.30469 l -2.88086,-4.269531 c 0.32173,-0.147461 0.62139,-0.33795 0.89843,-0.570312 0.27706,-0.232364 0.50013,-0.51447 0.66993,-0.84961 0.1698,-0.335138 0.2539,-0.726975 0.2539,-1.173828 0,-0.987543 -0.31998,-1.722478 -0.95898,-2.205078 -0.63454,-0.487069 -1.61899,-0.730469 -2.95508,-0.730469 z m 7.82813,0 3.32617,9.798828 h 2.26367 l 3.33203,-9.798828 h -2.09765 l -1.85743,5.832031 c -0.0313,0.102776 -0.0828,0.289921 -0.15429,0.5625 -0.067,0.268112 -0.13554,0.552172 -0.20704,0.851563 -0.067,0.299391 -0.11382,0.547525 -0.14062,0.744141 -0.0268,-0.196616 -0.0783,-0.44475 -0.1543,-0.744141 -0.0715,-0.303859 -0.14335,-0.591264 -0.21484,-0.859375 -0.0715,-0.27258 -0.12303,-0.45638 -0.1543,-0.554688 l -1.84375,-5.832031 z m 10.15625,0 v 9.798828 h 2.07617 v -9.798828 z m 35.34375,0 v 9.798828 h 2.77343 c 1.6891,0 3.00302,-0.418293 3.94141,-1.253906 0.94285,-0.840083 1.41406,-2.084928 1.41406,-3.738281 0,-1.050103 -0.20747,-1.932083 -0.62304,-2.642578 -0.41558,-0.714964 -1.00068,-1.253285 -1.75586,-1.615235 -0.75518,-0.366419 -1.64607,-0.548828 -2.67383,-0.548828 z m 10.16015,0 v 9.798828 h 5.64453 v -1.714843 h -3.5664 v -2.527344 h 3.31836 v -1.703125 h -3.31836 v -2.150391 h 3.5664 v -1.703125 z m -27.9707,1.574219 c 0.8803,0 1.51219,0.29492 1.89648,0.884766 0.3843,0.589844 0.57813,1.399974 0.57813,2.427734 0,1.02776 -0.19523,1.835936 -0.58399,2.425781 -0.38429,0.585376 -1.01953,0.878907 -1.90429,0.878907 -0.87136,0 -1.50325,-0.293531 -1.89649,-0.878907 -0.39322,-0.589845 -0.58984,-1.398021 -0.58984,-2.425781 0,-1.02776 0.19662,-1.83789 0.58984,-2.427734 0.3977,-0.589846 1.03433,-0.884766 1.91016,-0.884766 z m -33.43945,0.128906 h 0.6289 c 0.67028,0 1.16516,0.09831 1.48242,0.294922 0.32174,0.196615 0.48243,0.527461 0.48243,0.992188 0,0.446852 -0.14983,0.785214 -0.44922,1.017578 -0.29492,0.227894 -0.78646,0.341797 -1.47461,0.341797 h -0.66992 z m 53.32617,0 h 1.10742 c 0.90711,0 1.59665,0.254261 2.07031,0.763672 0.47814,0.509412 0.7168,1.306728 0.7168,2.392578 0,2.14936 -1.00005,3.22461 -3.00195,3.22461 h -0.89258 z m 4.16406,12.560547 c -0.0581,0.236831 -0.15362,0.414506 -0.2832,0.535156 -0.12512,0.116182 -0.25462,0.175782 -0.38867,0.175782 -0.21449,0 -0.43422,-0.0596 -0.66211,-0.175782 -0.22343,-0.116181 -0.45123,-0.231475 -0.6836,-0.347656 -0.23236,-0.116182 -0.47297,-0.173828 -0.71875,-0.173828 -0.47366,0 -0.88248,0.166814 -1.22656,0.501953 -0.34409,0.330671 -0.5421,0.853396 -0.5957,1.56836 h 0.99804 c 0.0581,-0.2413 0.15027,-0.418975 0.27539,-0.535157 0.12959,-0.12065 0.26383,-0.18164 0.40235,-0.18164 0.21449,0 0.43282,0.05765 0.65625,0.173828 0.22342,0.116181 0.45123,0.234818 0.68359,0.355469 0.23684,0.116181 0.4755,0.173828 0.7168,0.173828 0.46473,0 0.87216,-0.166814 1.2207,-0.501954 0.34857,-0.339608 0.54992,-0.862333 0.60352,-1.568359 z m 8.4375,2.740235 c -1.06797,0 -1.948,0.209427 -2.64062,0.625 -0.69263,0.415572 -1.20589,1.000679 -1.54102,1.755859 -0.33067,0.750711 -0.49609,1.63213 -0.49609,2.646484 0,1.014355 0.16542,1.902461 0.49609,2.66211 0.33513,0.759648 0.847,1.34949 1.53516,1.769531 0.69262,0.420041 1.5693,0.628906 2.63281,0.628906 1.06797,0 1.94661,-0.208865 2.63476,-0.628906 0.68816,-0.420041 1.19863,-1.008492 1.5293,-1.763672 C 299.83319,83.888787 300,83.004025 300,81.994139 c 0,-1.018823 -0.16681,-1.904976 -0.50195,-2.660156 -0.33067,-0.75518 -0.84114,-1.340287 -1.5293,-1.755859 -0.68368,-0.415573 -1.55758,-0.625 -2.62109,-0.625 z m -18.29883,0.01367 c -0.98754,0 -1.82552,0.216944 -2.51367,0.650391 -0.68368,0.428979 -1.20167,1.023554 -1.55469,1.783203 -0.35301,0.759649 -0.52929,1.633551 -0.52929,2.621094 0,1.005417 0.15595,1.885445 0.46875,2.640625 0.3128,0.750712 0.79347,1.335818 1.4414,1.755859 0.47862,0.30487 1.05556,0.494959 1.72656,0.576172 l -0.47851,0.945313 c 0.4111,0.05809 0.69794,0.151663 0.86328,0.28125 0.16533,0.129587 0.24805,0.278024 0.24805,0.443359 0,0.156395 -0.0482,0.264172 -0.14649,0.322266 -0.0938,0.06256 -0.20635,0.09375 -0.33593,0.09375 -0.13406,0 -0.29475,-0.0156 -0.48243,-0.04687 -0.18768,-0.03128 -0.34697,-0.06247 -0.47656,-0.09375 v 1.125 c 0.12959,0.04021 0.27468,0.07475 0.43555,0.101562 0.16086,0.02681 0.34188,0.03906 0.54297,0.03906 0.78198,0 1.32365,-0.141749 1.62304,-0.427735 0.2994,-0.281516 0.44922,-0.679479 0.44922,-1.193359 0,-0.335139 -0.11251,-0.608339 -0.33593,-0.818359 -0.22343,-0.210021 -0.47296,-0.359849 -0.75,-0.449219 l 0.13085,-0.294922 c 0.31748,-0.01825 0.62073,-0.04718 0.89454,-0.09961 0.42004,-0.07596 0.84585,-0.204072 1.27929,-0.382813 v -1.742187 c -0.46919,0.165335 -0.90447,0.291488 -1.30664,0.380859 -0.3977,0.08937 -0.79566,0.134765 -1.19336,0.134765 -0.85796,0 -1.48372,-0.285451 -1.87695,-0.857421 -0.38877,-0.571971 -0.58203,-1.378756 -0.58203,-2.419922 0,-1.02776 0.20886,-1.840671 0.6289,-2.439453 0.42451,-0.598782 1.03468,-0.898438 1.83008,-0.898438 0.35748,0 0.72287,0.06377 1.09375,0.19336 0.37089,0.129587 0.73905,0.282759 1.10547,0.457031 l 0.66992,-1.689453 c -0.44685,-0.214489 -0.91471,-0.383256 -1.40625,-0.503907 -0.48706,-0.125118 -0.97582,-0.1875 -1.46289,-0.1875 z m -11.4082,0.101563 -3.45703,9.839844 h 2.23828 l 0.71094,-2.333985 h 3.57226 l 0.71094,2.333985 h 2.23828 l -3.47265,-9.839844 z m 18.21875,0 -3.45899,9.839844 h 2.24024 l 0.70898,-2.333985 h 3.57227 l 0.71094,2.333985 h 2.23828 l -3.47071,-9.839844 z m -71.76563,0.03906 v 9.800782 h 2.07618 v -9.800782 z m 4.54297,0 v 9.800782 h 6.05274 v -1.716797 h -3.97461 v -8.083985 z m 7.68946,0 v 6.314454 c 0,1.090319 0.33835,1.965611 1.01757,2.626953 0.67922,0.66134 1.66702,0.992187 2.9629,0.992187 0.91157,0 1.66683,-0.157345 2.26562,-0.474609 0.60325,-0.317266 1.05273,-0.746418 1.34766,-1.28711 0.29938,-0.545159 0.44922,-1.155331 0.44922,-1.830078 v -6.341797 h -2.07227 v 5.986328 c 0,0.759649 -0.15261,1.3183 -0.46094,1.675782 -0.30386,0.353013 -0.79539,0.529297 -1.47461,0.529297 -0.64794,0 -1.13808,-0.16208 -1.46875,-0.488282 -0.33067,-0.326202 -0.49609,-0.894323 -0.49609,-1.703125 v -6 z m 10.4414,0 v 9.800782 h 1.85742 v -4.558594 c 0,-0.335139 -0.009,-0.709427 -0.0273,-1.125 -0.0179,-0.415573 -0.0382,-0.80741 -0.0605,-1.173828 -0.0179,-0.370888 -0.0301,-0.648822 -0.0391,-0.832032 h 0.0606 l 2.35937,7.689454 h 1.90235 l 2.52734,-7.675782 h 0.0606 l -0.041,0.824219 c -0.0179,0.361951 -0.0335,0.744318 -0.0469,1.146485 -0.009,0.402167 -0.0117,0.758078 -0.0117,1.066406 v 4.638672 h 1.93555 v -9.800782 h -2.82813 l -2.45898,7.494141 h -0.041 l -2.31836,-7.494141 z m 12.94336,0 v 9.800782 h 2.07813 v -9.800782 z m 4.54492,0 v 9.800782 h 1.85743 v -4.611328 c -0.0179,-0.464726 -0.0382,-0.933149 -0.0606,-1.402344 -0.0223,-0.469195 -0.046,-0.935665 -0.0684,-1.400391 h 0.0605 l 4.26367,7.414063 h 2.64062 v -9.800782 h -1.86914 v 4.638672 c 0.0134,0.451321 0.029,0.902195 0.0469,1.353516 0.0179,0.446852 0.0349,0.896335 0.0527,1.347656 h -0.0469 l -4.25586,-7.339844 z m 14.66602,1.482422 c 0.0447,0.18321 0.10233,0.400154 0.17383,0.650391 0.076,0.245769 0.14921,0.489169 0.2207,0.730469 0.076,0.236832 0.13697,0.430102 0.18164,0.582031 l 0.71094,2.279297 h -2.55469 l 0.70508,-2.279297 c 0.0313,-0.102776 0.0828,-0.274325 0.1543,-0.515625 0.0715,-0.2413 0.14473,-0.495561 0.2207,-0.763672 0.0805,-0.27258 0.14283,-0.500384 0.1875,-0.683594 z m 18.21875,0 c 0.0447,0.18321 0.10233,0.400154 0.17383,0.650391 0.076,0.245769 0.1492,0.489169 0.2207,0.730469 0.076,0.236832 0.13697,0.430102 0.18164,0.582031 l 0.70899,2.279297 h -2.55274 l 0.70313,-2.279297 c 0.0313,-0.102776 0.0828,-0.274325 0.15429,-0.515625 0.0715,-0.2413 0.14474,-0.495561 0.22071,-0.763672 0.0804,-0.27258 0.14478,-0.500384 0.18945,-0.683594 z m 10.20703,0.09375 c 0.8803,0 1.51219,0.294921 1.89649,0.884766 0.38429,0.589845 0.57812,1.398021 0.57812,2.425781 0,1.02776 -0.19522,1.835937 -0.58398,2.425781 -0.3843,0.585377 -1.01953,0.878907 -1.9043,0.878907 -0.87137,0 -1.50326,-0.29353 -1.89649,-0.878907 -0.39323,-0.589844 -0.58984,-1.398021 -0.58984,-2.425781 0,-1.02776 0.19661,-1.835936 0.58984,-2.425781 0.3977,-0.589845 1.03433,-0.884766 1.91016,-0.884766 z" /></svg>
